{
DisplayStrings = (
<<<<<<< Updated upstream
/bSignVocalicRr
=======
/bBa/bSignVocalicR,
/bBa/bSignVocalicR/bCandrabindu
>>>>>>> Stashed changes
);
copyright = "Copyright 2015 The Hoogli Authors";
customParameters = (
{
name = fsType;
value = (
);
},
{
name = license;
value = "This Font Software is licensed under the SIL Open Font License, Version 1.1. This license is available with a FAQ at: http://scripts.sil.org/OFL";
},
{
name = licenseURL;
value = "http://scripts.sil.org/OFL";
},
{
name = vendorID;
value = BRNT;
}
);
date = "2016-03-15 10:13:38 +0000";
designer = "Anand Singh Naorem";
designerURL = www.brandnewtype.com;
familyName = "Hoogli";
features = (
{
code = "sub one by onesuperior;\012sub two by twosuperior;\012sub three by threesuperior;\012";
name = sups;
},
{
code = "sub one slash four by onequarter;\012sub one slash two by onehalf;\012sub three slash four by threequarters;\012";
name = frac;
}
);
fontMaster = (
{
ascender = 800;
capHeight = 700;
descender = -200;
guideLines = (
{
position = "{-56, 587}";
},
{
position = "{-28, 554}";
},
{
position = "{649, -12}";
},
{
position = "{458, -140}";
},
{
position = "{400, -82}";
},
{
position = "{584, -120}";
}
);
id = "F2EBC5D5-DDE2-4851-B52F-F2293ECE9CC7";
userData = {
GSCornerRadius = 20;
GSOffsetHorizontal = 25;
GSOffsetMakeStroke = 1;
GSOffsetVertical = 20;
};
weight = Light;
weightValue = 0;
xHeight = 500;
},
{
ascender = 800;
capHeight = 700;
descender = -200;
guideLines = (
{
position = "{-109, 587}";
},
{
position = "{-84, 502}";
},
{
position = "{650, -11}";
},
{
position = "{504, -140}";
},
{
position = "{419, -82}";
}
);
id = "A309AC34-D742-49E2-8DE7-30304959F2B2";
userData = {
GSCornerRadius = 55;
};
weight = Bold;
xHeight = 500;
}
);
glyphs = (
{
glyphname = A;
lastChange = "2016-03-19 06:03:29 +0000";
layers = (
{
layerId = "F2EBC5D5-DDE2-4851-B52F-F2293ECE9CC7";
name = Light;
paths = (
{
closed = 1;
nodes = (
"298 521 CURVE SMOOTH",
"227 361 OFFCURVE",
"128 136 OFFCURVE",
"81 4 CURVE SMOOTH",
"77 -6 OFFCURVE",
"65 -11 OFFCURVE",
"55 -8 CURVE SMOOTH",
"45 -4 OFFCURVE",
"40 8 OFFCURVE",
"43 18 CURVE SMOOTH",
"90 150 OFFCURVE",
"191 377 OFFCURVE",
"262 537 CURVE SMOOTH",
"266 547 OFFCURVE",
"278 552 OFFCURVE",
"288 547 CURVE SMOOTH",
"298 543 OFFCURVE",
"303 531 OFFCURVE"
);
},
{
closed = 1;
nodes = (
"304 538 CURVE SMOOTH",
"380 376 OFFCURVE",
"484 148 OFFCURVE",
"534 18 CURVE SMOOTH",
"538 8 OFFCURVE",
"532 -4 OFFCURVE",
"522 -8 CURVE SMOOTH",
"512 -12 OFFCURVE",
"500 -6 OFFCURVE",
"496 4 CURVE SMOOTH",
"446 132 OFFCURVE",
"344 360 OFFCURVE",
"268 520 CURVE SMOOTH",
"263 530 OFFCURVE",
"268 542 OFFCURVE",
"277 547 CURVE SMOOTH",
"287 552 OFFCURVE",
"299 547 OFFCURVE"
);
},
{
closed = 1;
nodes = (
"134 183 CURVE SMOOTH",
"440 183 LINE SMOOTH",
"451 183 OFFCURVE",
"460 174 OFFCURVE",
"460 163 CURVE SMOOTH",
"460 152 OFFCURVE",
"451 143 OFFCURVE",
"440 143 CURVE SMOOTH",
"134 143 LINE SMOOTH",
"123 143 OFFCURVE",
"114 152 OFFCURVE",
"114 163 CURVE SMOOTH",
"114 174 OFFCURVE",
"123 183 OFFCURVE"
);
}
);
width = 579;
},
{
layerId = "A309AC34-D742-49E2-8DE7-30304959F2B2";
name = Bold;
paths = (
{
closed = 1;
nodes = (
"328 510 CURVE SMOOTH",
"258 351 OFFCURVE",
"159 126 OFFCURVE",
"112 -5 CURVE SMOOTH",
"104 -27 OFFCURVE",
"75 -38 OFFCURVE",
"52 -30 CURVE SMOOTH",
"30 -22 OFFCURVE",
"14 5 OFFCURVE",
"22 27 CURVE SMOOTH",
"69 160 OFFCURVE",
"170 387 OFFCURVE",
"242 548 CURVE SMOOTH",
"252 570 OFFCURVE",
"281 579 OFFCURVE",
"303 569 CURVE SMOOTH",
"325 560 OFFCURVE",
"338 532 OFFCURVE"
);
},
{
closed = 1;
nodes = (
"334 549 CURVE SMOOTH",
"410 387 OFFCURVE",
"514 158 OFFCURVE",
"564 28 CURVE SMOOTH",
"573 6 OFFCURVE",
"558 -21 OFFCURVE",
"536 -30 CURVE SMOOTH",
"514 -39 OFFCURVE",
"484 -28 OFFCURVE",
"476 -6 CURVE SMOOTH",
"426 122 OFFCURVE",
"324 349 OFFCURVE",
"248 509 CURVE SMOOTH",
"238 530 OFFCURVE",
"251 559 OFFCURVE",
"272 569 CURVE SMOOTH",
"294 579 OFFCURVE",
"323 571 OFFCURVE"
);
},
{
closed = 1;
nodes = (
"139 207 CURVE SMOOTH",
"445 207 LINE SMOOTH",
"469 207 OFFCURVE",
"489 187 OFFCURVE",
"489 163 CURVE SMOOTH",
"489 139 OFFCURVE",
"469 119 OFFCURVE",
"445 119 CURVE SMOOTH",
"139 119 LINE SMOOTH",
"115 119 OFFCURVE",
"95 139 OFFCURVE",
"95 163 CURVE SMOOTH",
"95 187 OFFCURVE",
"115 207 OFFCURVE"
);
}
);
width = 589;
}
);
leftKerningGroup = A;
rightKerningGroup = A;
unicode = 0041;
userData = {
com.typemytype.robofont.guides = (
{
angle = 0;
isGlobal = 0;
magnetic = 5;
x = 277;
y = 570;
}
);
com.typemytype.robofont.layerData = {
mask = {
anchors = (
);
components = (
);
contours = (
);
lib = {
};
name = A;
unicodes = (
);
width = 579;
};
wire = {
anchors = (
);
components = (
);
contours = (
);
lib = {
};
name = A;
unicodes = (
);
width = 579;
};
};
};
},
{
glyphname = Aacute;
lastChange = "2016-03-19 06:03:29 +0000";
layers = (
{
layerId = "F2EBC5D5-DDE2-4851-B52F-F2293ECE9CC7";
name = Light;
paths = (
{
closed = 1;
nodes = (
"298 516 CURVE SMOOTH",
"227 356 OFFCURVE",
"128 131 OFFCURVE",
"81 -2 CURVE SMOOTH",
"77 -12 OFFCURVE",
"66 -17 OFFCURVE",
"55 -14 CURVE SMOOTH",
"45 -10 OFFCURVE",
"40 1 OFFCURVE",
"43 12 CURVE SMOOTH",
"90 145 OFFCURVE",
"191 372 OFFCURVE",
"262 532 CURVE SMOOTH",
"266 542 OFFCURVE",
"278 547 OFFCURVE",
"288 542 CURVE SMOOTH",
"298 538 OFFCURVE",
"303 526 OFFCURVE"
);
},
{
closed = 1;
nodes = (
"304 532 CURVE SMOOTH",
"380 370 OFFCURVE",
"484 143 OFFCURVE",
"534 12 CURVE SMOOTH",
"538 2 OFFCURVE",
"532 -10 OFFCURVE",
"522 -14 CURVE SMOOTH",
"512 -18 OFFCURVE",
"500 -12 OFFCURVE",
"496 -2 CURVE SMOOTH",
"446 127 OFFCURVE",
"344 354 OFFCURVE",
"268 516 CURVE SMOOTH",
"263 525 OFFCURVE",
"268 538 OFFCURVE",
"278 542 CURVE SMOOTH",
"287 547 OFFCURVE",
"300 542 OFFCURVE"
);
},
{
closed = 1;
nodes = (
"134 178 CURVE SMOOTH",
"440 178 LINE SMOOTH",
"451 178 OFFCURVE",
"460 169 OFFCURVE",
"460 158 CURVE SMOOTH",
"460 147 OFFCURVE",
"451 138 OFFCURVE",
"440 138 CURVE SMOOTH",
"134 138 LINE SMOOTH",
"123 138 OFFCURVE",
"114 147 OFFCURVE",
"114 158 CURVE SMOOTH",
"114 169 OFFCURVE",
"123 178 OFFCURVE"
);
},
{
closed = 1;
nodes = (
"414 726 CURVE SMOOTH",
"367 697 OFFCURVE",
"316 666 OFFCURVE",
"287 644 CURVE SMOOTH",
"278 637 OFFCURVE",
"265 639 OFFCURVE",
"259 648 CURVE SMOOTH",
"252 657 OFFCURVE",
"254 670 OFFCURVE",
"263 676 CURVE SMOOTH",
"294 698 OFFCURVE",
"345 731 OFFCURVE",
"394 760 CURVE SMOOTH",
"403 766 OFFCURVE",
"416 763 OFFCURVE",
"421 753 CURVE SMOOTH",
"427 744 OFFCURVE",
"424 731 OFFCURVE"
);
}
);
width = 579;
},
{
layerId = "A309AC34-D742-49E2-8DE7-30304959F2B2";
name = Bold;
paths = (
{
closed = 1;
nodes = (
"328 505 CURVE SMOOTH",
"258 346 OFFCURVE",
"159 121 OFFCURVE",
"112 -11 CURVE SMOOTH",
"104 -33 OFFCURVE",
"75 -44 OFFCURVE",
"52 -36 CURVE SMOOTH",
"30 -29 OFFCURVE",
"14 -2 OFFCURVE",
"22 21 CURVE SMOOTH",
"69 155 OFFCURVE",
"170 382 OFFCURVE",
"242 543 CURVE SMOOTH",
"252 565 OFFCURVE",
"281 574 OFFCURVE",
"303 564 CURVE SMOOTH",
"325 555 OFFCURVE",
"338 527 OFFCURVE"
);
},
{
closed = 1;
nodes = (
"334 544 CURVE SMOOTH",
"410 381 OFFCURVE",
"514 153 OFFCURVE",
"564 22 CURVE SMOOTH",
"573 0 OFFCURVE",
"558 -28 OFFCURVE",
"536 -36 CURVE SMOOTH",
"514 -45 OFFCURVE",
"484 -34 OFFCURVE",
"476 -12 CURVE SMOOTH",
"426 117 OFFCURVE",
"324 343 OFFCURVE",
"248 504 CURVE SMOOTH",
"238 526 OFFCURVE",
"251 554 OFFCURVE",
"272 564 CURVE SMOOTH",
"294 574 OFFCURVE",
"323 565 OFFCURVE"
);
},
{
closed = 1;
nodes = (
"139 202 CURVE SMOOTH",
"445 202 LINE SMOOTH",
"469 202 OFFCURVE",
"489 182 OFFCURVE",
"489 158 CURVE SMOOTH",
"489 134 OFFCURVE",
"469 114 OFFCURVE",
"445 114 CURVE SMOOTH",
"139 114 LINE SMOOTH",
"115 114 OFFCURVE",
"95 134 OFFCURVE",
"95 158 CURVE SMOOTH",
"95 182 OFFCURVE",
"115 202 OFFCURVE"
);
},
{
closed = 1;
nodes = (
"432 705 CURVE SMOOTH",
"385 677 OFFCURVE",
"335 646 OFFCURVE",
"306 624 CURVE SMOOTH",
"287 610 OFFCURVE",
"259 615 OFFCURVE",
"245 634 CURVE SMOOTH",
"230 653 OFFCURVE",
"235 682 OFFCURVE",
"254 696 CURVE SMOOTH",
"285 718 OFFCURVE",
"337 751 OFFCURVE",
"386 781 CURVE SMOOTH",
"406 793 OFFCURVE",
"434 786 OFFCURVE",
"447 766 CURVE SMOOTH",
"459 745 OFFCURVE",
"452 717 OFFCURVE"
);
}
);
width = 589;
}
);
leftKerningGroup = A;
rightKerningGroup = A;
unicode = 00C1;
userData = {
com.typemytype.robofont.layerData = {
mask = {
anchors = (
);
components = (
);
contours = (
);
lib = {
};
name = Aacute;
unicodes = (
);
width = 579;
};
wire = {
anchors = (
);
components = (
);
contours = (
);
lib = {
};
name = Aacute;
unicodes = (
);
width = 579;
};
};
};
},
{
glyphname = Abreve;
lastChange = "2016-03-19 06:03:29 +0000";
layers = (
{
layerId = "F2EBC5D5-DDE2-4851-B52F-F2293ECE9CC7";
name = Light;
paths = (
{
closed = 1;
nodes = (
"298 516 CURVE SMOOTH",
"227 355 OFFCURVE",
"128 131 OFFCURVE",
"81 -2 CURVE SMOOTH",
"77 -12 OFFCURVE",
"66 -17 OFFCURVE",
"55 -14 CURVE SMOOTH",
"45 -10 OFFCURVE",
"40 1 OFFCURVE",
"43 12 CURVE SMOOTH",
"90 145 OFFCURVE",
"191 371 OFFCURVE",
"262 532 CURVE SMOOTH",
"266 542 OFFCURVE",
"278 547 OFFCURVE",
"288 542 CURVE SMOOTH",
"298 538 OFFCURVE",
"303 526 OFFCURVE"
);
},
{
closed = 1;
nodes = (
"304 532 CURVE SMOOTH",
"380 370 OFFCURVE",
"484 143 OFFCURVE",
"534 12 CURVE SMOOTH",
"538 2 OFFCURVE",
"532 -10 OFFCURVE",
"522 -14 CURVE SMOOTH",
"512 -18 OFFCURVE",
"500 -12 OFFCURVE",
"496 -2 CURVE SMOOTH",
"446 127 OFFCURVE",
"344 354 OFFCURVE",
"268 516 CURVE SMOOTH",
"263 525 OFFCURVE",
"268 538 OFFCURVE",
"278 542 CURVE SMOOTH",
"287 547 OFFCURVE",
"300 542 OFFCURVE"
);
},
{
closed = 1;
nodes = (
"134 178 CURVE SMOOTH",
"440 178 LINE SMOOTH",
"451 178 OFFCURVE",
"460 169 OFFCURVE",
"460 158 CURVE SMOOTH",
"460 147 OFFCURVE",
"451 138 OFFCURVE",
"440 138 CURVE SMOOTH",
"134 138 LINE SMOOTH",
"123 138 OFFCURVE",
"114 147 OFFCURVE",
"114 158 CURVE SMOOTH",
"114 169 OFFCURVE",
"123 178 OFFCURVE"
);
},
{
closed = 1;
nodes = (
"166 759 CURVE SMOOTH",
"192 725 OFFCURVE",
"231 701 OFFCURVE",
"275 701 CURVE SMOOTH",
"323 701 OFFCURVE",
"356 724 OFFCURVE",
"381 758 CURVE SMOOTH",
"387 767 OFFCURVE",
"400 770 OFFCURVE",
"408 763 CURVE SMOOTH",
"417 757 OFFCURVE",
"420 744 OFFCURVE",
"413 736 CURVE SMOOTH",
"382 690 OFFCURVE",
"337 661 OFFCURVE",
"275 661 CURVE SMOOTH",
"219 661 OFFCURVE",
"168 691 OFFCURVE",
"134 735 CURVE SMOOTH",
"128 743 OFFCURVE",
"129 756 OFFCURVE",
"138 763 CURVE SMOOTH",
"146 769 OFFCURVE",
"159 768 OFFCURVE"
);
}
);
width = 579;
},
{
layerId = "A309AC34-D742-49E2-8DE7-30304959F2B2";
name = Bold;
paths = (
{
closed = 1;
nodes = (
"328 505 CURVE SMOOTH",
"258 345 OFFCURVE",
"159 121 OFFCURVE",
"112 -11 CURVE SMOOTH",
"104 -33 OFFCURVE",
"75 -44 OFFCURVE",
"52 -36 CURVE SMOOTH",
"30 -29 OFFCURVE",
"14 -2 OFFCURVE",
"22 21 CURVE SMOOTH",
"69 155 OFFCURVE",
"170 381 OFFCURVE",
"242 543 CURVE SMOOTH",
"251 565 OFFCURVE",
"281 574 OFFCURVE",
"303 564 CURVE SMOOTH",
"324 555 OFFCURVE",
"338 527 OFFCURVE"
);
},
{
closed = 1;
nodes = (
"334 544 CURVE SMOOTH",
"410 381 OFFCURVE",
"514 153 OFFCURVE",
"564 22 CURVE SMOOTH",
"573 0 OFFCURVE",
"558 -28 OFFCURVE",
"536 -36 CURVE SMOOTH",
"514 -45 OFFCURVE",
"484 -34 OFFCURVE",
"476 -12 CURVE SMOOTH",
"426 117 OFFCURVE",
"324 343 OFFCURVE",
"248 504 CURVE SMOOTH",
"238 526 OFFCURVE",
"251 554 OFFCURVE",
"272 564 CURVE SMOOTH",
"294 574 OFFCURVE",
"323 565 OFFCURVE"
);
},
{
closed = 1;
nodes = (
"139 202 CURVE SMOOTH",
"445 202 LINE SMOOTH",
"469 202 OFFCURVE",
"489 182 OFFCURVE",
"489 158 CURVE SMOOTH",
"489 134 OFFCURVE",
"469 114 OFFCURVE",
"445 114 CURVE SMOOTH",
"139 114 LINE SMOOTH",
"115 114 OFFCURVE",
"95 134 OFFCURVE",
"95 158 CURVE SMOOTH",
"95 182 OFFCURVE",
"115 202 OFFCURVE"
);
},
{
closed = 1;
nodes = (
"191 775 CURVE SMOOTH",
"212 747 OFFCURVE",
"244 725 OFFCURVE",
"280 725 CURVE SMOOTH",
"319 725 OFFCURVE",
"345 746 OFFCURVE",
"364 773 CURVE SMOOTH",
"378 793 OFFCURVE",
"408 797 OFFCURVE",
"427 783 CURVE SMOOTH",
"447 769 OFFCURVE",
"453 740 OFFCURVE",
"440 721 CURVE SMOOTH",
"403 668 OFFCURVE",
"351 637 OFFCURVE",
"280 637 CURVE SMOOTH",
"216 637 OFFCURVE",
"158 669 OFFCURVE",
"119 719 CURVE SMOOTH",
"104 738 OFFCURVE",
"109 767 OFFCURVE",
"128 782 CURVE SMOOTH",
"147 796 OFFCURVE",
"177 794 OFFCURVE"
);
}
);
width = 589;
}
);
leftKerningGroup = A;
rightKerningGroup = A;
unicode = 0102;
userData = {
com.typemytype.robofont.layerData = {
mask = {
anchors = (
);
components = (
);
contours = (
);
lib = {
};
name = Abreve;
unicodes = (
);
width = 579;
};
wire = {
anchors = (
);
components = (
);
contours = (
);
lib = {
};
name = Abreve;
unicodes = (
);
width = 579;
};
};
};
},
{
glyphname = Acircumflex;
lastChange = "2016-03-19 06:03:29 +0000";
layers = (
{
layerId = "F2EBC5D5-DDE2-4851-B52F-F2293ECE9CC7";
name = Light;
paths = (
{
closed = 1;
nodes = (
"298 517 CURVE SMOOTH",
"227 356 OFFCURVE",
"128 131 OFFCURVE",
"81 -1 CURVE SMOOTH",
"77 -11 OFFCURVE",
"65 -16 OFFCURVE",
"55 -13 CURVE SMOOTH",
"45 -9 OFFCURVE",
"40 3 OFFCURVE",
"43 13 CURVE SMOOTH",
"90 145 OFFCURVE",
"191 372 OFFCURVE",
"262 533 CURVE SMOOTH",
"266 543 OFFCURVE",
"278 548 OFFCURVE",
"288 543 CURVE SMOOTH",
"298 539 OFFCURVE",
"303 527 OFFCURVE"
);
},
{
closed = 1;
nodes = (
"304 533 CURVE SMOOTH",
"380 371 OFFCURVE",
"484 143 OFFCURVE",
"534 13 CURVE SMOOTH",
"538 3 OFFCURVE",
"532 -9 OFFCURVE",
"522 -13 CURVE SMOOTH",
"512 -17 OFFCURVE",
"500 -11 OFFCURVE",
"496 -1 CURVE SMOOTH",
"446 127 OFFCURVE",
"344 355 OFFCURVE",
"268 517 CURVE SMOOTH",
"263 526 OFFCURVE",
"268 539 OFFCURVE",
"278 543 CURVE SMOOTH",
"287 548 OFFCURVE",
"300 543 OFFCURVE"
);
},
{
closed = 1;
nodes = (
"134 178 CURVE SMOOTH",
"440 178 LINE SMOOTH",
"451 178 OFFCURVE",
"460 169 OFFCURVE",
"460 158 CURVE SMOOTH",
"460 147 OFFCURVE",
"451 138 OFFCURVE",
"440 138 CURVE SMOOTH",
"134 138 LINE SMOOTH",
"123 138 OFFCURVE",
"114 147 OFFCURVE",
"114 158 CURVE SMOOTH",
"114 169 OFFCURVE",
"123 178 OFFCURVE"
);
},
{
closed = 1;
nodes = (
"286 704 CURVE SMOOTH",
"251 679 OFFCURVE",
"214 654 OFFCURVE",
"185 632 CURVE SMOOTH",
"176 626 OFFCURVE",
"164 627 OFFCURVE",
"157 636 CURVE SMOOTH",
"151 645 OFFCURVE",
"152 657 OFFCURVE",
"161 664 CURVE SMOOTH",
"190 686 OFFCURVE",
"227 711 OFFCURVE",
"262 736 CURVE SMOOTH",
"271 743 OFFCURVE",
"284 740 OFFCURVE",
"290 732 CURVE SMOOTH",
"297 723 OFFCURVE",
"294 710 OFFCURVE"
);
},
{
closed = 1;
nodes = (
"370 632 CURVE SMOOTH",
"341 654 OFFCURVE",
"305 679 OFFCURVE",
"270 704 CURVE SMOOTH",
"261 710 OFFCURVE",
"258 723 OFFCURVE",
"265 731 CURVE SMOOTH",
"271 740 OFFCURVE",
"284 743 OFFCURVE",
"292 736 CURVE SMOOTH",
"329 711 OFFCURVE",
"365 686 OFFCURVE",
"394 664 CURVE SMOOTH",
"403 657 OFFCURVE",
"404 645 OFFCURVE",
"398 636 CURVE SMOOTH",
"391 627 OFFCURVE",
"379 626 OFFCURVE"
);
}
);
width = 579;
},
{
layerId = "A309AC34-D742-49E2-8DE7-30304959F2B2";
name = Bold;
paths = (
{
closed = 1;
nodes = (
"328 506 CURVE SMOOTH",
"258 346 OFFCURVE",
"159 121 OFFCURVE",
"112 -10 CURVE SMOOTH",
"104 -32 OFFCURVE",
"75 -43 OFFCURVE",
"52 -35 CURVE SMOOTH",
"30 -27 OFFCURVE",
"14 0 OFFCURVE",
"22 22 CURVE SMOOTH",
"69 155 OFFCURVE",
"170 382 OFFCURVE",
"242 544 CURVE SMOOTH",
"251 566 OFFCURVE",
"281 575 OFFCURVE",
"303 565 CURVE SMOOTH",
"324 556 OFFCURVE",
"338 528 OFFCURVE"
);
},
{
closed = 1;
nodes = (
"334 545 CURVE SMOOTH",
"410 382 OFFCURVE",
"514 153 OFFCURVE",
"564 23 CURVE SMOOTH",
"573 1 OFFCURVE",
"558 -26 OFFCURVE",
"536 -35 CURVE SMOOTH",
"514 -44 OFFCURVE",
"484 -33 OFFCURVE",
"476 -11 CURVE SMOOTH",
"426 117 OFFCURVE",
"324 344 OFFCURVE",
"248 505 CURVE SMOOTH",
"238 527 OFFCURVE",
"251 555 OFFCURVE",
"272 565 CURVE SMOOTH",
"294 575 OFFCURVE",
"323 566 OFFCURVE"
);
},
{
closed = 1;
nodes = (
"139 202 CURVE SMOOTH",
"445 202 LINE SMOOTH",
"469 202 OFFCURVE",
"489 182 OFFCURVE",
"489 158 CURVE SMOOTH",
"489 134 OFFCURVE",
"469 114 OFFCURVE",
"445 114 CURVE SMOOTH",
"139 114 LINE SMOOTH",
"115 114 OFFCURVE",
"95 134 OFFCURVE",
"95 158 CURVE SMOOTH",
"95 182 OFFCURVE",
"115 202 OFFCURVE"
);
},
{
closed = 1;
nodes = (
"305 684 CURVE SMOOTH",
"270 659 OFFCURVE",
"234 634 OFFCURVE",
"205 613 CURVE SMOOTH",
"186 598 OFFCURVE",
"157 602 OFFCURVE",
"143 621 CURVE SMOOTH",
"129 640 OFFCURVE",
"132 669 OFFCURVE",
"151 683 CURVE SMOOTH",
"180 706 OFFCURVE",
"218 731 OFFCURVE",
"253 756 CURVE SMOOTH",
"273 770 OFFCURVE",
"301 765 OFFCURVE",
"315 746 CURVE SMOOTH",
"329 726 OFFCURVE",
"324 698 OFFCURVE"
);
},
{
closed = 1;
nodes = (
"360 613 CURVE SMOOTH",
"332 634 OFFCURVE",
"296 659 OFFCURVE",
"261 684 CURVE SMOOTH",
"241 697 OFFCURVE",
"236 726 OFFCURVE",
"250 745 CURVE SMOOTH",
"263 765 OFFCURVE",
"292 770 OFFCURVE",
"311 756 CURVE SMOOTH",
"348 731 OFFCURVE",
"384 706 OFFCURVE",
"414 683 CURVE SMOOTH",
"433 669 OFFCURVE",
"436 640 OFFCURVE",
"422 621 CURVE SMOOTH",
"408 602 OFFCURVE",
"379 598 OFFCURVE"
);
}
);
width = 589;
}
);
leftKerningGroup = A;
rightKerningGroup = A;
unicode = 00C2;
userData = {
com.typemytype.robofont.guides = (
{
angle = 90;
isGlobal = 0;
magnetic = 5;
x = 279;
y = 591;
}
);
com.typemytype.robofont.layerData = {
mask = {
anchors = (
);
components = (
);
contours = (
);
lib = {
};
name = Acircumflex;
unicodes = (
);
width = 579;
};
wire = {
anchors = (
);
components = (
);
contours = (
);
lib = {
};
name = Acircumflex;
unicodes = (
);
width = 579;
};
};
};
},
{
glyphname = Adieresis;
lastChange = "2016-03-19 06:18:53 +0000";
layers = (
{
layerId = "F2EBC5D5-DDE2-4851-B52F-F2293ECE9CC7";
name = Light;
paths = (
{
closed = 1;
nodes = (
"268 539 OFFCURVE",
"263 526 OFFCURVE",
"268 517 CURVE SMOOTH",
"344 355 OFFCURVE",
"446 128 OFFCURVE",
"496 -1 CURVE SMOOTH",
"500 -11 OFFCURVE",
"512 -17 OFFCURVE",
"522 -13 CURVE SMOOTH",
"532 -9 OFFCURVE",
"538 3 OFFCURVE",
"534 13 CURVE SMOOTH",
"484 144 OFFCURVE",
"380 371 OFFCURVE",
"304 533 CURVE SMOOTH",
"300 543 OFFCURVE",
"287 548 OFFCURVE",
"278 543 CURVE SMOOTH"
);
},
{
closed = 1;
nodes = (
"278 548 OFFCURVE",
"266 543 OFFCURVE",
"262 533 CURVE SMOOTH",
"191 372 OFFCURVE",
"90 146 OFFCURVE",
"43 13 CURVE SMOOTH",
"40 2 OFFCURVE",
"45 -9 OFFCURVE",
"55 -13 CURVE SMOOTH",
"66 -16 OFFCURVE",
"77 -11 OFFCURVE",
"81 -1 CURVE SMOOTH",
"128 132 OFFCURVE",
"227 356 OFFCURVE",
"298 517 CURVE SMOOTH",
"303 527 OFFCURVE",
"298 539 OFFCURVE",
"288 543 CURVE SMOOTH"
);
},
{
closed = 1;
nodes = (
"134 179 LINE SMOOTH",
"123 179 OFFCURVE",
"114 170 OFFCURVE",
"114 159 CURVE SMOOTH",
"114 148 OFFCURVE",
"123 139 OFFCURVE",
"134 139 CURVE SMOOTH",
"440 139 LINE SMOOTH",
"451 139 OFFCURVE",
"460 148 OFFCURVE",
"460 159 CURVE SMOOTH",
"460 170 OFFCURVE",
"451 179 OFFCURVE",
"440 179 CURVE SMOOTH"
);
},
{
closed = 1;
nodes = (
"163 723 OFFCURVE",
"144 705 OFFCURVE",
"144 675 CURVE SMOOTH",
"144 645 OFFCURVE",
"163 628 OFFCURVE",
"182 628 CURVE SMOOTH",
"201 628 OFFCURVE",
"219 645 OFFCURVE",
"219 675 CURVE SMOOTH",
"219 705 OFFCURVE",
"201 723 OFFCURVE",
"182 723 CURVE SMOOTH"
);
},
{
closed = 1;
nodes = (
"366 723 OFFCURVE",
"347 705 OFFCURVE",
"347 675 CURVE SMOOTH",
"347 645 OFFCURVE",
"366 628 OFFCURVE",
"385 628 CURVE SMOOTH",
"404 628 OFFCURVE",
"422 645 OFFCURVE",
"422 675 CURVE SMOOTH",
"422 705 OFFCURVE",
"404 723 OFFCURVE",
"385 723 CURVE SMOOTH"
);
}
);
width = 579;
},
{
layerId = "A309AC34-D742-49E2-8DE7-30304959F2B2";
name = Bold;
paths = (
{
closed = 1;
nodes = (
"251 555 OFFCURVE",
"238 527 OFFCURVE",
"248 505 CURVE SMOOTH",
"324 344 OFFCURVE",
"426 118 OFFCURVE",
"476 -11 CURVE SMOOTH",
"484 -33 OFFCURVE",
"514 -44 OFFCURVE",
"536 -35 CURVE SMOOTH",
"558 -27 OFFCURVE",
"573 1 OFFCURVE",
"564 23 CURVE SMOOTH",
"514 154 OFFCURVE",
"410 382 OFFCURVE",
"334 545 CURVE SMOOTH",
"323 566 OFFCURVE",
"294 575 OFFCURVE",
"272 565 CURVE SMOOTH"
);
},
{
closed = 1;
nodes = (
"281 575 OFFCURVE",
"251 566 OFFCURVE",
"242 544 CURVE SMOOTH",
"170 382 OFFCURVE",
"69 156 OFFCURVE",
"22 22 CURVE SMOOTH",
"14 -1 OFFCURVE",
"30 -28 OFFCURVE",
"52 -35 CURVE SMOOTH",
"75 -43 OFFCURVE",
"104 -32 OFFCURVE",
"112 -10 CURVE SMOOTH",
"159 122 OFFCURVE",
"258 346 OFFCURVE",
"328 506 CURVE SMOOTH",
"338 528 OFFCURVE",
"324 556 OFFCURVE",
"303 565 CURVE SMOOTH"
);
},
{
closed = 1;
nodes = (
"139 203 LINE SMOOTH",
"115 203 OFFCURVE",
"95 183 OFFCURVE",
"95 159 CURVE SMOOTH",
"95 135 OFFCURVE",
"115 115 OFFCURVE",
"139 115 CURVE SMOOTH",
"445 115 LINE SMOOTH",
"469 115 OFFCURVE",
"489 135 OFFCURVE",
"489 159 CURVE SMOOTH",
"489 183 OFFCURVE",
"469 203 OFFCURVE",
"445 203 CURVE SMOOTH"
);
},
{
closed = 1;
nodes = (
"159 747 OFFCURVE",
"120 727 OFFCURVE",
"120 675 CURVE SMOOTH",
"120 623 OFFCURVE",
"158 604 OFFCURVE",
"187 604 CURVE SMOOTH",
"216 604 OFFCURVE",
"253 621 OFFCURVE",
"253 675 CURVE SMOOTH",
"253 729 OFFCURVE",
"215 747 OFFCURVE",
"187 747 CURVE SMOOTH"
);
},
{
closed = 1;
nodes = (
"362 747 OFFCURVE",
"323 727 OFFCURVE",
"323 675 CURVE SMOOTH",
"323 623 OFFCURVE",
"361 604 OFFCURVE",
"390 604 CURVE SMOOTH",
"419 604 OFFCURVE",
"456 621 OFFCURVE",
"456 675 CURVE SMOOTH",
"456 729 OFFCURVE",
"418 747 OFFCURVE",
"390 747 CURVE SMOOTH"
);
}
);
width = 589;
}
);
leftKerningGroup = A;
rightKerningGroup = A;
unicode = 00C4;
userData = {
com.typemytype.robofont.layerData = {
mask = {
anchors = (
);
components = (
);
contours = (
);
lib = {
};
name = Adieresis;
unicodes = (
);
width = 579;
};
wire = {
anchors = (
);
components = (
);
contours = (
);
lib = {
};
name = Adieresis;
unicodes = (
);
width = 579;
};
};
};
},
{
glyphname = Agrave;
lastChange = "2016-03-19 06:03:29 +0000";
layers = (
{
layerId = "F2EBC5D5-DDE2-4851-B52F-F2293ECE9CC7";
name = Light;
paths = (
{
closed = 1;
nodes = (
"298 516 CURVE SMOOTH",
"227 355 OFFCURVE",
"128 131 OFFCURVE",
"81 -2 CURVE SMOOTH",
"77 -12 OFFCURVE",
"66 -17 OFFCURVE",
"55 -14 CURVE SMOOTH",
"45 -10 OFFCURVE",
"40 1 OFFCURVE",
"43 12 CURVE SMOOTH",
"90 145 OFFCURVE",
"191 371 OFFCURVE",
"262 532 CURVE SMOOTH",
"266 542 OFFCURVE",
"278 547 OFFCURVE",
"288 542 CURVE SMOOTH",
"298 538 OFFCURVE",
"303 526 OFFCURVE"
);
},
{
closed = 1;
nodes = (
"304 532 CURVE SMOOTH",
"380 370 OFFCURVE",
"484 143 OFFCURVE",
"534 12 CURVE SMOOTH",
"538 2 OFFCURVE",
"532 -10 OFFCURVE",
"522 -14 CURVE SMOOTH",
"512 -18 OFFCURVE",
"500 -12 OFFCURVE",
"496 -2 CURVE SMOOTH",
"446 127 OFFCURVE",
"344 354 OFFCURVE",
"268 516 CURVE SMOOTH",
"263 525 OFFCURVE",
"268 538 OFFCURVE",
"278 542 CURVE SMOOTH",
"287 547 OFFCURVE",
"300 542 OFFCURVE"
);
},
{
closed = 1;
nodes = (
"134 178 CURVE SMOOTH",
"440 178 LINE SMOOTH",
"451 178 OFFCURVE",
"460 169 OFFCURVE",
"460 158 CURVE SMOOTH",
"460 147 OFFCURVE",
"451 138 OFFCURVE",
"440 138 CURVE SMOOTH",
"134 138 LINE SMOOTH",
"123 138 OFFCURVE",
"114 147 OFFCURVE",
"114 158 CURVE SMOOTH",
"114 169 OFFCURVE",
"123 178 OFFCURVE"
);
},
{
closed = 1;
nodes = (
"175 761 CURVE SMOOTH",
"213 740 OFFCURVE",
"270 697 OFFCURVE",
"298 675 CURVE SMOOTH",
"307 668 OFFCURVE",
"308 655 OFFCURVE",
"302 647 CURVE SMOOTH",
"295 638 OFFCURVE",
"282 637 OFFCURVE",
"274 643 CURVE SMOOTH",
"246 665 OFFCURVE",
"191 706 OFFCURVE",
"155 727 CURVE SMOOTH",
"146 732 OFFCURVE",
"142 744 OFFCURVE",
"148 754 CURVE SMOOTH",
"153 763 OFFCURVE",
"165 767 OFFCURVE"
);
}
);
width = 579;
},
{
layerId = "A309AC34-D742-49E2-8DE7-30304959F2B2";
name = Bold;
paths = (
{
closed = 1;
nodes = (
"328 505 CURVE SMOOTH",
"258 345 OFFCURVE",
"159 121 OFFCURVE",
"112 -11 CURVE SMOOTH",
"104 -33 OFFCURVE",
"75 -44 OFFCURVE",
"52 -36 CURVE SMOOTH",
"30 -29 OFFCURVE",
"14 -2 OFFCURVE",
"22 21 CURVE SMOOTH",
"69 155 OFFCURVE",
"170 381 OFFCURVE",
"242 543 CURVE SMOOTH",
"251 565 OFFCURVE",
"281 574 OFFCURVE",
"303 564 CURVE SMOOTH",
"324 555 OFFCURVE",
"338 527 OFFCURVE"
);
},
{
closed = 1;
nodes = (
"334 544 CURVE SMOOTH",
"410 381 OFFCURVE",
"514 153 OFFCURVE",
"564 22 CURVE SMOOTH",
"573 0 OFFCURVE",
"558 -28 OFFCURVE",
"536 -36 CURVE SMOOTH",
"514 -45 OFFCURVE",
"484 -34 OFFCURVE",
"476 -12 CURVE SMOOTH",
"426 117 OFFCURVE",
"324 343 OFFCURVE",
"248 504 CURVE SMOOTH",
"238 526 OFFCURVE",
"251 554 OFFCURVE",
"272 564 CURVE SMOOTH",
"294 574 OFFCURVE",
"323 565 OFFCURVE"
);
},
{
closed = 1;
nodes = (
"139 202 CURVE SMOOTH",
"445 202 LINE SMOOTH",
"469 202 OFFCURVE",
"489 182 OFFCURVE",
"489 158 CURVE SMOOTH",
"489 134 OFFCURVE",
"469 114 OFFCURVE",
"445 114 CURVE SMOOTH",
"139 114 LINE SMOOTH",
"115 114 OFFCURVE",
"95 134 OFFCURVE",
"95 158 CURVE SMOOTH",
"95 182 OFFCURVE",
"115 202 OFFCURVE"
);
},
{
closed = 1;
nodes = (
"192 782 CURVE SMOOTH",
"230 760 OFFCURVE",
"289 717 OFFCURVE",
"318 694 CURVE SMOOTH",
"337 679 OFFCURVE",
"340 650 OFFCURVE",
"326 632 CURVE SMOOTH",
"311 613 OFFCURVE",
"282 609 OFFCURVE",
"264 624 CURVE SMOOTH",
"237 645 OFFCURVE",
"184 686 OFFCURVE",
"148 706 CURVE SMOOTH",
"128 717 OFFCURVE",
"120 745 OFFCURVE",
"132 766 CURVE SMOOTH",
"143 786 OFFCURVE",
"171 794 OFFCURVE"
);
}
);
width = 589;
}
);
leftKerningGroup = A;
rightKerningGroup = A;
unicode = 00C0;
userData = {
com.typemytype.robofont.layerData = {
mask = {
anchors = (
);
components = (
);
contours = (
);
lib = {
};
name = Agrave;
unicodes = (
);
width = 579;
};
wire = {
anchors = (
);
components = (
);
contours = (
);
lib = {
};
name = Agrave;
unicodes = (
);
width = 579;
};
};
};
},
{
glyphname = Amacron;
lastChange = "2016-03-19 06:03:29 +0000";
layers = (
{
layerId = "F2EBC5D5-DDE2-4851-B52F-F2293ECE9CC7";
name = Light;
paths = (
{
closed = 1;
nodes = (
"298 517 CURVE SMOOTH",
"227 357 OFFCURVE",
"128 132 OFFCURVE",
"81 -1 CURVE SMOOTH",
"77 -11 OFFCURVE",
"66 -16 OFFCURVE",
"55 -13 CURVE SMOOTH",
"45 -9 OFFCURVE",
"40 2 OFFCURVE",
"43 13 CURVE SMOOTH",
"90 146 OFFCURVE",
"191 373 OFFCURVE",
"262 533 CURVE SMOOTH",
"266 543 OFFCURVE",
"278 548 OFFCURVE",
"288 543 CURVE SMOOTH",
"298 539 OFFCURVE",
"303 527 OFFCURVE"
);
},
{
closed = 1;
nodes = (
"304 533 CURVE SMOOTH",
"380 371 OFFCURVE",
"484 144 OFFCURVE",
"534 13 CURVE SMOOTH",
"538 3 OFFCURVE",
"532 -9 OFFCURVE",
"522 -13 CURVE SMOOTH",
"512 -17 OFFCURVE",
"500 -11 OFFCURVE",
"496 -1 CURVE SMOOTH",
"446 128 OFFCURVE",
"344 355 OFFCURVE",
"268 517 CURVE SMOOTH",
"263 526 OFFCURVE",
"268 539 OFFCURVE",
"278 543 CURVE SMOOTH",
"287 548 OFFCURVE",
"300 543 OFFCURVE"
);
},
{
closed = 1;
nodes = (
"134 179 CURVE SMOOTH",
"440 179 LINE SMOOTH",
"451 179 OFFCURVE",
"460 170 OFFCURVE",
"460 159 CURVE SMOOTH",
"460 148 OFFCURVE",
"451 139 OFFCURVE",
"440 139 CURVE SMOOTH",
"134 139 LINE SMOOTH",
"123 139 OFFCURVE",
"114 148 OFFCURVE",
"114 159 CURVE SMOOTH",
"114 170 OFFCURVE",
"123 179 OFFCURVE"
);
},
{
closed = 1;
nodes = (
"402 681 CURVE SMOOTH",
"161 681 LINE SMOOTH",
"150 681 OFFCURVE",
"141 690 OFFCURVE",
"141 701 CURVE SMOOTH",
"141 712 OFFCURVE",
"150 721 OFFCURVE",
"161 721 CURVE SMOOTH",
"402 721 LINE SMOOTH",
"413 721 OFFCURVE",
"422 712 OFFCURVE",
"422 701 CURVE SMOOTH",
"422 690 OFFCURVE",
"413 681 OFFCURVE"
);
}
);
width = 573;
},
{
layerId = "A309AC34-D742-49E2-8DE7-30304959F2B2";
name = Bold;
paths = (
{
closed = 1;
nodes = (
"328 506 CURVE SMOOTH",
"258 347 OFFCURVE",
"159 122 OFFCURVE",
"112 -10 CURVE SMOOTH",
"104 -32 OFFCURVE",
"75 -43 OFFCURVE",
"52 -35 CURVE SMOOTH",
"30 -28 OFFCURVE",
"14 -1 OFFCURVE",
"22 22 CURVE SMOOTH",
"69 156 OFFCURVE",
"170 383 OFFCURVE",
"242 544 CURVE SMOOTH",
"252 566 OFFCURVE",
"281 575 OFFCURVE",
"303 565 CURVE SMOOTH",
"325 556 OFFCURVE",
"338 528 OFFCURVE"
);
},
{
closed = 1;
nodes = (
"334 545 CURVE SMOOTH",
"410 382 OFFCURVE",
"514 154 OFFCURVE",
"564 23 CURVE SMOOTH",
"573 1 OFFCURVE",
"558 -27 OFFCURVE",
"536 -35 CURVE SMOOTH",
"514 -44 OFFCURVE",
"484 -33 OFFCURVE",
"476 -11 CURVE SMOOTH",
"426 118 OFFCURVE",
"324 344 OFFCURVE",
"248 505 CURVE SMOOTH",
"238 527 OFFCURVE",
"251 555 OFFCURVE",
"272 565 CURVE SMOOTH",
"294 575 OFFCURVE",
"323 566 OFFCURVE"
);
},
{
closed = 1;
nodes = (
"139 203 CURVE SMOOTH",
"445 203 LINE SMOOTH",
"469 203 OFFCURVE",
"489 183 OFFCURVE",
"489 159 CURVE SMOOTH",
"489 135 OFFCURVE",
"469 115 OFFCURVE",
"445 115 CURVE SMOOTH",
"139 115 LINE SMOOTH",
"115 115 OFFCURVE",
"95 135 OFFCURVE",
"95 159 CURVE SMOOTH",
"95 183 OFFCURVE",
"115 203 OFFCURVE"
);
},
{
closed = 1;
nodes = (
"407 657 CURVE SMOOTH",
"166 657 LINE SMOOTH",
"142 657 OFFCURVE",
"122 677 OFFCURVE",
"122 701 CURVE SMOOTH",
"122 725 OFFCURVE",
"142 745 OFFCURVE",
"166 745 CURVE SMOOTH",
"407 745 LINE SMOOTH",
"431 745 OFFCURVE",
"451 725 OFFCURVE",
"451 701 CURVE SMOOTH",
"451 677 OFFCURVE",
"431 657 OFFCURVE"
);
}
);
width = 583;
}
);
leftKerningGroup = A;
rightKerningGroup = A;
unicode = 0100;
userData = {
com.typemytype.robofont.layerData = {
mask = {
anchors = (
);
components = (
);
contours = (
);
lib = {
};
name = Amacron;
unicodes = (
);
width = 573;
};
wire = {
anchors = (
);
components = (
);
contours = (
);
lib = {
};
name = Amacron;
unicodes = (
);
width = 573;
};
};
};
},
{
glyphname = Aogonek;
lastChange = "2016-03-19 06:03:29 +0000";
layers = (
{
layerId = "F2EBC5D5-DDE2-4851-B52F-F2293ECE9CC7";
name = Light;
paths = (
{
closed = 1;
nodes = (
"298 527 CURVE SMOOTH",
"227 366 OFFCURVE",
"128 141 OFFCURVE",
"81 9 CURVE SMOOTH",
"77 -1 OFFCURVE",
"65 -6 OFFCURVE",
"55 -3 CURVE SMOOTH",
"45 1 OFFCURVE",
"40 13 OFFCURVE",
"43 23 CURVE SMOOTH",
"90 155 OFFCURVE",
"191 382 OFFCURVE",
"262 543 CURVE SMOOTH",
"266 553 OFFCURVE",
"278 558 OFFCURVE",
"288 553 CURVE SMOOTH",
"298 549 OFFCURVE",
"303 537 OFFCURVE"
);
},
{
closed = 1;
nodes = (
"304 543 CURVE SMOOTH",
"380 381 OFFCURVE",
"484 153 OFFCURVE",
"534 23 CURVE SMOOTH",
"538 13 OFFCURVE",
"532 1 OFFCURVE",
"522 -3 CURVE SMOOTH",
"512 -7 OFFCURVE",
"500 -1 OFFCURVE",
"496 9 CURVE SMOOTH",
"446 137 OFFCURVE",
"344 365 OFFCURVE",
"268 527 CURVE SMOOTH",
"263 536 OFFCURVE",
"268 549 OFFCURVE",
"278 553 CURVE SMOOTH",
"287 558 OFFCURVE",
"300 553 OFFCURVE"
);
},
{
closed = 1;
nodes = (
"134 188 CURVE SMOOTH",
"440 188 LINE SMOOTH",
"451 188 OFFCURVE",
"460 179 OFFCURVE",
"460 168 CURVE SMOOTH",
"460 157 OFFCURVE",
"451 148 OFFCURVE",
"440 148 CURVE SMOOTH",
"134 148 LINE SMOOTH",
"123 148 OFFCURVE",
"114 157 OFFCURVE",
"114 168 CURVE SMOOTH",
"114 179 OFFCURVE",
"123 188 OFFCURVE"
);
},
{
closed = 1;
nodes = (
"530 16 CURVE SMOOTH",
"530 -21 LINE SMOOTH",
"530 -26 OFFCURVE",
"527 -33 OFFCURVE",
"523 -37 CURVE SMOOTH",
"443 -101 OFFCURVE",
"422 -127 OFFCURVE",
"422 -152 CURVE SMOOTH",
"422 -183 OFFCURVE",
"470 -195 OFFCURVE",
"526 -195 CURVE SMOOTH",
"537 -195 OFFCURVE",
"546 -204 OFFCURVE",
"546 -215 CURVE SMOOTH",
"546 -226 OFFCURVE",
"537 -235 OFFCURVE",
"526 -235 CURVE SMOOTH",
"418 -235 OFFCURVE",
"382 -195 OFFCURVE",
"382 -152 CURVE SMOOTH",
"382 -121 OFFCURVE",
"397 -87 OFFCURVE",
"497 -5 CURVE",
"490 -21 LINE",
"490 16 LINE SMOOTH",
"490 27 OFFCURVE",
"499 36 OFFCURVE",
"510 36 CURVE SMOOTH",
"521 36 OFFCURVE",
"530 27 OFFCURVE"
);
}
);
width = 590;
},
{
layerId = "A309AC34-D742-49E2-8DE7-30304959F2B2";
name = Bold;
paths = (
{
closed = 1;
nodes = (
"328 516 CURVE SMOOTH",
"258 356 OFFCURVE",
"159 131 OFFCURVE",
"112 0 CURVE SMOOTH",
"104 -22 OFFCURVE",
"75 -33 OFFCURVE",
"52 -25 CURVE SMOOTH",
"30 -17 OFFCURVE",
"14 10 OFFCURVE",
"22 32 CURVE SMOOTH",
"69 165 OFFCURVE",
"170 392 OFFCURVE",
"242 554 CURVE SMOOTH",
"251 576 OFFCURVE",
"281 585 OFFCURVE",
"303 575 CURVE SMOOTH",
"324 566 OFFCURVE",
"338 538 OFFCURVE"
);
},
{
closed = 1;
nodes = (
"334 555 CURVE SMOOTH",
"410 392 OFFCURVE",
"514 163 OFFCURVE",
"564 33 CURVE SMOOTH",
"573 11 OFFCURVE",
"558 -16 OFFCURVE",
"536 -25 CURVE SMOOTH",
"514 -34 OFFCURVE",
"484 -23 OFFCURVE",
"476 -1 CURVE SMOOTH",
"426 127 OFFCURVE",
"324 354 OFFCURVE",
"248 515 CURVE SMOOTH",
"238 537 OFFCURVE",
"251 565 OFFCURVE",
"272 575 CURVE SMOOTH",
"294 585 OFFCURVE",
"323 576 OFFCURVE"
);
},
{
closed = 1;
nodes = (
"139 212 CURVE SMOOTH",
"445 212 LINE SMOOTH",
"469 212 OFFCURVE",
"489 192 OFFCURVE",
"489 168 CURVE SMOOTH",
"489 144 OFFCURVE",
"469 124 OFFCURVE",
"445 124 CURVE SMOOTH",
"139 124 LINE SMOOTH",
"115 124 OFFCURVE",
"95 144 OFFCURVE",
"95 168 CURVE SMOOTH",
"95 192 OFFCURVE",
"115 212 OFFCURVE"
);
},
{
closed = 1;
nodes = (
"564 17 CURVE SMOOTH",
"564 -19 LINE SMOOTH",
"564 -30 OFFCURVE",
"557 -45 OFFCURVE",
"548 -52 CURVE SMOOTH",
"481 -108 OFFCURVE",
"456 -128 OFFCURVE",
"456 -151 CURVE SMOOTH",
"456 -175 OFFCURVE",
"511 -171 OFFCURVE",
"537 -171 CURVE SMOOTH",
"560 -171 OFFCURVE",
"580 -191 OFFCURVE",
"580 -214 CURVE SMOOTH",
"580 -237 OFFCURVE",
"560 -257 OFFCURVE",
"537 -257 CURVE SMOOTH",
"399 -257 OFFCURVE",
"370 -199 OFFCURVE",
"370 -151 CURVE SMOOTH",
"370 -116 OFFCURVE",
"381 -78 OFFCURVE",
"494 14 CURVE",
"476 -19 LINE",
"476 17 LINE SMOOTH",
"476 40 OFFCURVE",
"498 60 OFFCURVE",
"521 60 CURVE SMOOTH",
"544 60 OFFCURVE",
"564 40 OFFCURVE"
);
}
);
width = 600;
}
);
leftKerningGroup = A;
rightKerningGroup = A;
unicode = 0104;
userData = {
com.typemytype.robofont.layerData = {
mask = {
anchors = (
);
components = (
);
contours = (
);
lib = {
};
name = Aogonek;
unicodes = (
);
width = 590;
};
wire = {
anchors = (
);
components = (
);
contours = (
);
lib = {
};
name = Aogonek;
unicodes = (
);
width = 590;
};
};
};
},
{
glyphname = Aring;
lastChange = "2016-03-19 06:18:48 +0000";
layers = (
{
layerId = "F2EBC5D5-DDE2-4851-B52F-F2293ECE9CC7";
name = Light;
paths = (
{
closed = 1;
nodes = (
"268 538 OFFCURVE",
"263 526 OFFCURVE",
"268 516 CURVE SMOOTH",
"344 356 OFFCURVE",
"446 128 OFFCURVE",
"496 0 CURVE SMOOTH",
"500 -10 OFFCURVE",
"512 -16 OFFCURVE",
"522 -12 CURVE SMOOTH",
"532 -8 OFFCURVE",
"538 4 OFFCURVE",
"534 14 CURVE SMOOTH",
"484 144 OFFCURVE",
"380 372 OFFCURVE",
"304 534 CURVE SMOOTH",
"299 543 OFFCURVE",
"287 548 OFFCURVE",
"277 543 CURVE SMOOTH"
);
},
{
closed = 1;
nodes = (
"278 548 OFFCURVE",
"266 543 OFFCURVE",
"262 533 CURVE SMOOTH",
"191 373 OFFCURVE",
"90 146 OFFCURVE",
"43 14 CURVE SMOOTH",
"40 4 OFFCURVE",
"45 -8 OFFCURVE",
"55 -12 CURVE SMOOTH",
"65 -15 OFFCURVE",
"77 -10 OFFCURVE",
"81 0 CURVE SMOOTH",
"128 132 OFFCURVE",
"227 357 OFFCURVE",
"298 517 CURVE SMOOTH",
"303 527 OFFCURVE",
"298 539 OFFCURVE",
"288 543 CURVE SMOOTH"
);
},
{
closed = 1;
nodes = (
"134 179 LINE SMOOTH",
"123 179 OFFCURVE",
"114 170 OFFCURVE",
"114 159 CURVE SMOOTH",
"114 148 OFFCURVE",
"123 139 OFFCURVE",
"134 139 CURVE SMOOTH",
"440 139 LINE SMOOTH",
"451 139 OFFCURVE",
"460 148 OFFCURVE",
"460 159 CURVE SMOOTH",
"460 170 OFFCURVE",
"451 179 OFFCURVE",
"440 179 CURVE SMOOTH"
);
},
{
closed = 1;
nodes = (
"211 710 OFFCURVE",
"171 657 OFFCURVE",
"171 608 CURVE SMOOTH",
"171 559 OFFCURVE",
"211 506 OFFCURVE",
"279 506 CURVE SMOOTH",
"350 506 OFFCURVE",
"390 556 OFFCURVE",
"390 608 CURVE SMOOTH",
"390 660 OFFCURVE",
"350 710 OFFCURVE",
"279 710 CURVE SMOOTH"
);
},
{
closed = 1;
nodes = (
"322 670 OFFCURVE",
"350 642 OFFCURVE",
"350 608 CURVE SMOOTH",
"350 574 OFFCURVE",
"322 546 OFFCURVE",
"279 546 CURVE SMOOTH",
"237 546 OFFCURVE",
"211 577 OFFCURVE",
"211 608 CURVE SMOOTH",
"211 639 OFFCURVE",
"237 670 OFFCURVE",
"279 670 CURVE SMOOTH"
);
}
);
width = 579;
},
{
layerId = "A309AC34-D742-49E2-8DE7-30304959F2B2";
name = Bold;
paths = (
{
closed = 1;
nodes = (
"251 555 OFFCURVE",
"238 526 OFFCURVE",
"248 505 CURVE SMOOTH",
"324 345 OFFCURVE",
"426 118 OFFCURVE",
"476 -10 CURVE SMOOTH",
"484 -32 OFFCURVE",
"514 -43 OFFCURVE",
"536 -34 CURVE SMOOTH",
"558 -25 OFFCURVE",
"573 2 OFFCURVE",
"564 24 CURVE SMOOTH",
"514 154 OFFCURVE",
"410 383 OFFCURVE",
"334 545 CURVE SMOOTH",
"323 567 OFFCURVE",
"294 575 OFFCURVE",
"272 565 CURVE SMOOTH"
);
},
{
closed = 1;
nodes = (
"281 575 OFFCURVE",
"252 566 OFFCURVE",
"242 544 CURVE SMOOTH",
"170 383 OFFCURVE",
"69 156 OFFCURVE",
"22 23 CURVE SMOOTH",
"14 1 OFFCURVE",
"30 -26 OFFCURVE",
"52 -34 CURVE SMOOTH",
"75 -42 OFFCURVE",
"104 -31 OFFCURVE",
"112 -9 CURVE SMOOTH",
"159 122 OFFCURVE",
"258 347 OFFCURVE",
"328 506 CURVE SMOOTH",
"338 528 OFFCURVE",
"325 556 OFFCURVE",
"303 565 CURVE SMOOTH"
);
},
{
closed = 1;
nodes = (
"139 203 LINE SMOOTH",
"115 203 OFFCURVE",
"95 183 OFFCURVE",
"95 159 CURVE SMOOTH",
"95 135 OFFCURVE",
"115 115 OFFCURVE",
"139 115 CURVE SMOOTH",
"445 115 LINE SMOOTH",
"469 115 OFFCURVE",
"489 135 OFFCURVE",
"489 159 CURVE SMOOTH",
"489 183 OFFCURVE",
"469 203 OFFCURVE",
"445 203 CURVE SMOOTH"
);
},
{
closed = 1;
nodes = (
"201 734 OFFCURVE",
"147 670 OFFCURVE",
"147 608 CURVE SMOOTH",
"147 546 OFFCURVE",
"201 482 OFFCURVE",
"284 482 CURVE SMOOTH",
"372 482 OFFCURVE",
"425 542 OFFCURVE",
"425 608 CURVE SMOOTH",
"425 674 OFFCURVE",
"372 734 OFFCURVE",
"284 734 CURVE SMOOTH"
);
},
{
closed = 1;
nodes = (
"315 650 OFFCURVE",
"334 631 OFFCURVE",
"334 608 CURVE SMOOTH",
"334 585 OFFCURVE",
"315 569 OFFCURVE",
"284 569 CURVE SMOOTH",
"254 569 OFFCURVE",
"238 587 OFFCURVE",
"238 608 CURVE SMOOTH",
"238 629 OFFCURVE",
"254 650 OFFCURVE",
"284 650 CURVE SMOOTH"
);
}
);
width = 589;
}
);
leftKerningGroup = A;
rightKerningGroup = A;
unicode = 00C5;
userData = {
com.typemytype.robofont.layerData = {
mask = {
anchors = (
);
components = (
);
contours = (
);
lib = {
};
name = Aring;
unicodes = (
);
width = 579;
};
wire = {
anchors = (
);
components = (
);
contours = (
);
lib = {
};
name = Aring;
unicodes = (
);
width = 579;
};
};
};
},
{
glyphname = Atilde;
lastChange = "2016-03-19 06:03:29 +0000";
layers = (
{
layerId = "F2EBC5D5-DDE2-4851-B52F-F2293ECE9CC7";
name = Light;
paths = (
{
closed = 1;
nodes = (
"298 517 CURVE SMOOTH",
"227 356 OFFCURVE",
"128 132 OFFCURVE",
"81 -1 CURVE SMOOTH",
"77 -11 OFFCURVE",
"66 -16 OFFCURVE",
"55 -13 CURVE SMOOTH",
"45 -9 OFFCURVE",
"40 2 OFFCURVE",
"43 13 CURVE SMOOTH",
"90 146 OFFCURVE",
"191 372 OFFCURVE",
"262 533 CURVE SMOOTH",
"266 543 OFFCURVE",
"278 548 OFFCURVE",
"288 543 CURVE SMOOTH",
"298 539 OFFCURVE",
"303 527 OFFCURVE"
);
},
{
closed = 1;
nodes = (
"304 533 CURVE SMOOTH",
"380 371 OFFCURVE",
"484 143 OFFCURVE",
"534 13 CURVE SMOOTH",
"538 3 OFFCURVE",
"532 -9 OFFCURVE",
"522 -13 CURVE SMOOTH",
"512 -17 OFFCURVE",
"500 -11 OFFCURVE",
"496 -1 CURVE SMOOTH",
"446 127 OFFCURVE",
"344 355 OFFCURVE",
"268 517 CURVE SMOOTH",
"263 526 OFFCURVE",
"268 539 OFFCURVE",
"278 543 CURVE SMOOTH",
"287 548 OFFCURVE",
"300 543 OFFCURVE"
);
},
{
closed = 1;
nodes = (
"134 178 CURVE SMOOTH",
"440 178 LINE SMOOTH",
"451 178 OFFCURVE",
"460 169 OFFCURVE",
"460 158 CURVE SMOOTH",
"460 147 OFFCURVE",
"451 138 OFFCURVE",
"440 138 CURVE SMOOTH",
"134 138 LINE SMOOTH",
"123 138 OFFCURVE",
"114 147 OFFCURVE",
"114 158 CURVE SMOOTH",
"114 169 OFFCURVE",
"123 178 OFFCURVE"
);
},
{
closed = 1;
nodes = (
"141 674 CURVE SMOOTH",
"170 712 OFFCURVE",
"199 732 OFFCURVE",
"229 732 CURVE SMOOTH",
"255 732 OFFCURVE",
"278 718 OFFCURVE",
"303 699 CURVE SMOOTH",
"320 687 OFFCURVE",
"334 676 OFFCURVE",
"351 676 CURVE SMOOTH",
"376 676 OFFCURVE",
"392 694 OFFCURVE",
"414 723 CURVE SMOOTH",
"420 732 OFFCURVE",
"433 733 OFFCURVE",
"442 727 CURVE SMOOTH",
"451 721 OFFCURVE",
"452 708 OFFCURVE",
"446 699 CURVE SMOOTH",
"414 656 OFFCURVE",
"386 636 OFFCURVE",
"351 636 CURVE SMOOTH",
"326 636 OFFCURVE",
"304 649 OFFCURVE",
"279 667 CURVE SMOOTH",
"262 680 OFFCURVE",
"247 692 OFFCURVE",
"229 692 CURVE SMOOTH",
"209 692 OFFCURVE",
"192 674 OFFCURVE",
"173 650 CURVE SMOOTH",
"166 641 OFFCURVE",
"153 640 OFFCURVE",
"145 646 CURVE SMOOTH",
"136 653 OFFCURVE",
"135 666 OFFCURVE"
);
}
);
width = 579;
},
{
layerId = "A309AC34-D742-49E2-8DE7-30304959F2B2";
name = Bold;
paths = (
{
closed = 1;
nodes = (
"328 506 CURVE SMOOTH",
"258 346 OFFCURVE",
"159 122 OFFCURVE",
"112 -10 CURVE SMOOTH",
"104 -32 OFFCURVE",
"75 -43 OFFCURVE",
"52 -35 CURVE SMOOTH",
"30 -28 OFFCURVE",
"14 -1 OFFCURVE",
"22 22 CURVE SMOOTH",
"69 156 OFFCURVE",
"170 382 OFFCURVE",
"242 544 CURVE SMOOTH",
"251 566 OFFCURVE",
"281 575 OFFCURVE",
"303 565 CURVE SMOOTH",
"324 556 OFFCURVE",
"338 528 OFFCURVE"
);
},
{
closed = 1;
nodes = (
"334 545 CURVE SMOOTH",
"410 382 OFFCURVE",
"514 153 OFFCURVE",
"564 23 CURVE SMOOTH",
"573 1 OFFCURVE",
"558 -26 OFFCURVE",
"536 -35 CURVE SMOOTH",
"514 -44 OFFCURVE",
"484 -33 OFFCURVE",
"476 -11 CURVE SMOOTH",
"426 117 OFFCURVE",
"324 344 OFFCURVE",
"248 505 CURVE SMOOTH",
"238 527 OFFCURVE",
"251 555 OFFCURVE",
"272 565 CURVE SMOOTH",
"294 575 OFFCURVE",
"323 566 OFFCURVE"
);
},
{
closed = 1;
nodes = (
"139 202 CURVE SMOOTH",
"445 202 LINE SMOOTH",
"469 202 OFFCURVE",
"489 182 OFFCURVE",
"489 158 CURVE SMOOTH",
"489 134 OFFCURVE",
"469 114 OFFCURVE",
"445 114 CURVE SMOOTH",
"139 114 LINE SMOOTH",
"115 114 OFFCURVE",
"95 134 OFFCURVE",
"95 158 CURVE SMOOTH",
"95 182 OFFCURVE",
"115 202 OFFCURVE"
);
},
{
closed = 1;
nodes = (
"126 690 CURVE SMOOTH",
"162 736 OFFCURVE",
"199 756 OFFCURVE",
"234 756 CURVE SMOOTH",
"265 756 OFFCURVE",
"293 741 OFFCURVE",
"323 718 CURVE SMOOTH",
"334 711 OFFCURVE",
"343 700 OFFCURVE",
"356 700 CURVE SMOOTH",
"374 700 OFFCURVE",
"384 719 OFFCURVE",
"398 738 CURVE SMOOTH",
"413 757 OFFCURVE",
"442 760 OFFCURVE",
"461 746 CURVE SMOOTH",
"480 732 OFFCURVE",
"486 703 OFFCURVE",
"472 684 CURVE SMOOTH",
"432 631 OFFCURVE",
"398 612 OFFCURVE",
"356 612 CURVE SMOOTH",
"327 612 OFFCURVE",
"300 625 OFFCURVE",
"269 648 CURVE SMOOTH",
"257 657 OFFCURVE",
"247 668 OFFCURVE",
"234 668 CURVE SMOOTH",
"219 668 OFFCURVE",
"210 650 OFFCURVE",
"198 634 CURVE SMOOTH",
"183 615 OFFCURVE",
"154 613 OFFCURVE",
"135 627 CURVE SMOOTH",
"116 642 OFFCURVE",
"111 671 OFFCURVE"
);
}
);
width = 589;
}
);
leftKerningGroup = A;
rightKerningGroup = A;
unicode = 00C3;
userData = {
com.typemytype.robofont.layerData = {
mask = {
anchors = (
);
components = (
);
contours = (
);
lib = {
};
name = Atilde;
unicodes = (
);
width = 579;
};
wire = {
anchors = (
);
components = (
);
contours = (
);
lib = {
};
name = Atilde;
unicodes = (
);
width = 579;
};
};
};
},
{
glyphname = AE;
lastChange = "2016-03-19 06:03:29 +0000";
layers = (
{
layerId = "F2EBC5D5-DDE2-4851-B52F-F2293ECE9CC7";
name = Light;
paths = (
{
closed = 1;
nodes = (
"374 510 CURVE SMOOTH",
"266 332 OFFCURVE",
"133 132 OFFCURVE",
"47 0 CURVE SMOOTH",
"41 -9 OFFCURVE",
"28 -12 OFFCURVE",
"19 -6 CURVE SMOOTH",
"10 0 OFFCURVE",
"7 13 OFFCURVE",
"13 22 CURVE SMOOTH",
"99 154 OFFCURVE",
"232 354 OFFCURVE",
"340 530 CURVE SMOOTH",
"346 540 OFFCURVE",
"358 543 OFFCURVE",
"367 537 CURVE SMOOTH",
"377 531 OFFCURVE",
"380 519 OFFCURVE"
);
},
{
closed = 1;
nodes = (
"135 183 CURVE SMOOTH",
"397 183 LINE SMOOTH",
"408 183 OFFCURVE",
"417 174 OFFCURVE",
"417 163 CURVE SMOOTH",
"417 152 OFFCURVE",
"408 143 OFFCURVE",
"397 143 CURVE SMOOTH",
"135 143 LINE SMOOTH",
"124 143 OFFCURVE",
"115 152 OFFCURVE",
"115 163 CURVE SMOOTH",
"115 174 OFFCURVE",
"124 183 OFFCURVE"
);
},
{
closed = 1;
nodes = (
"416 500 CURVE SMOOTH",
"362 500 LINE SMOOTH",
"351 500 OFFCURVE",
"342 509 OFFCURVE",
"342 520 CURVE SMOOTH",
"342 531 OFFCURVE",
"351 540 OFFCURVE",
"362 540 CURVE SMOOTH",
"416 540 LINE SMOOTH",
"427 540 OFFCURVE",
"436 531 OFFCURVE",
"436 520 CURVE SMOOTH",
"436 509 OFFCURVE",
"427 500 OFFCURVE"
);
},
{
closed = 1;
nodes = (
"418 520 CURVE SMOOTH",
"418 11 LINE SMOOTH",
"418 0 OFFCURVE",
"409 -9 OFFCURVE",
"398 -9 CURVE SMOOTH",
"387 -9 OFFCURVE",
"378 0 OFFCURVE",
"378 11 CURVE SMOOTH",
"378 520 LINE SMOOTH",
"378 531 OFFCURVE",
"387 540 OFFCURVE",
"398 540 CURVE SMOOTH",
"409 540 OFFCURVE",
"418 531 OFFCURVE"
);
},
{
closed = 1;
nodes = (
"406 31 CURVE SMOOTH",
"691 31 LINE SMOOTH",
"702 31 OFFCURVE",
"711 22 OFFCURVE",
"711 11 CURVE SMOOTH",
"711 0 OFFCURVE",
"702 -9 OFFCURVE",
"691 -9 CURVE SMOOTH",
"406 -9 LINE SMOOTH",
"395 -9 OFFCURVE",
"386 0 OFFCURVE",
"386 11 CURVE SMOOTH",
"386 22 OFFCURVE",
"395 31 OFFCURVE"
);
},
{
closed = 1;
nodes = (
"406 540 CURVE SMOOTH",
"689 540 LINE SMOOTH",
"700 540 OFFCURVE",
"709 531 OFFCURVE",
"709 520 CURVE SMOOTH",
"709 509 OFFCURVE",
"700 500 OFFCURVE",
"689 500 CURVE SMOOTH",
"406 500 LINE SMOOTH",
"395 500 OFFCURVE",
"386 509 OFFCURVE",
"386 520 CURVE SMOOTH",
"386 531 OFFCURVE",
"395 540 OFFCURVE"
);
},
{
closed = 1;
nodes = (
"406 305 CURVE SMOOTH",
"643 305 LINE SMOOTH",
"654 305 OFFCURVE",
"663 296 OFFCURVE",
"663 285 CURVE SMOOTH",
"663 274 OFFCURVE",
"654 265 OFFCURVE",
"643 265 CURVE SMOOTH",
"406 265 LINE SMOOTH",
"395 265 OFFCURVE",
"386 274 OFFCURVE",
"386 285 CURVE SMOOTH",
"386 296 OFFCURVE",
"395 305 OFFCURVE"
);
}
);
width = 763;
},
{
layerId = "A309AC34-D742-49E2-8DE7-30304959F2B2";
name = Bold;
paths = (
{
closed = 1;
nodes = (
"401 496 CURVE SMOOTH",
"293 319 OFFCURVE",
"160 118 OFFCURVE",
"74 -14 CURVE SMOOTH",
"61 -34 OFFCURVE",
"31 -39 OFFCURVE",
"11 -26 CURVE SMOOTH",
"-9 -13 OFFCURVE",
"-17 16 OFFCURVE",
"-4 36 CURVE SMOOTH",
"82 168 OFFCURVE",
"215 367 OFFCURVE",
"323 544 CURVE SMOOTH",
"335 564 OFFCURVE",
"365 570 OFFCURVE",
"385 558 CURVE SMOOTH",
"405 545 OFFCURVE",
"414 516 OFFCURVE"
);
},
{
closed = 1;
nodes = (
"140 207 CURVE SMOOTH",
"402 207 LINE SMOOTH",
"426 207 OFFCURVE",
"446 187 OFFCURVE",
"446 163 CURVE SMOOTH",
"446 139 OFFCURVE",
"426 119 OFFCURVE",
"402 119 CURVE SMOOTH",
"140 119 LINE SMOOTH",
"116 119 OFFCURVE",
"96 139 OFFCURVE",
"96 163 CURVE SMOOTH",
"96 187 OFFCURVE",
"116 207 OFFCURVE"
);
},
{
closed = 1;
nodes = (
"421 476 CURVE SMOOTH",
"367 476 LINE SMOOTH",
"343 476 OFFCURVE",
"323 496 OFFCURVE",
"323 520 CURVE SMOOTH",
"323 544 OFFCURVE",
"343 564 OFFCURVE",
"367 564 CURVE SMOOTH",
"421 564 LINE SMOOTH",
"445 564 OFFCURVE",
"465 544 OFFCURVE",
"465 520 CURVE SMOOTH",
"465 496 OFFCURVE",
"445 476 OFFCURVE"
);
},
{
closed = 1;
nodes = (
"452 520 CURVE SMOOTH",
"452 11 LINE SMOOTH",
"452 -13 OFFCURVE",
"427 -33 OFFCURVE",
"403 -33 CURVE SMOOTH",
"379 -33 OFFCURVE",
"354 -13 OFFCURVE",
"354 11 CURVE SMOOTH",
"354 520 LINE SMOOTH",
"354 544 OFFCURVE",
"379 564 OFFCURVE",
"403 564 CURVE SMOOTH",
"427 564 OFFCURVE",
"452 544 OFFCURVE"
);
},
{
closed = 1;
nodes = (
"411 55 CURVE SMOOTH",
"696 55 LINE SMOOTH",
"720 55 OFFCURVE",
"740 35 OFFCURVE",
"740 11 CURVE SMOOTH",
"740 -13 OFFCURVE",
"720 -33 OFFCURVE",
"696 -33 CURVE SMOOTH",
"411 -33 LINE SMOOTH",
"387 -33 OFFCURVE",
"367 -13 OFFCURVE",
"367 11 CURVE SMOOTH",
"367 35 OFFCURVE",
"387 55 OFFCURVE"
);
},
{
closed = 1;
nodes = (
"411 564 CURVE SMOOTH",
"694 564 LINE SMOOTH",
"718 564 OFFCURVE",
"738 544 OFFCURVE",
"738 520 CURVE SMOOTH",
"738 496 OFFCURVE",
"718 476 OFFCURVE",
"694 476 CURVE SMOOTH",
"411 476 LINE SMOOTH",
"387 476 OFFCURVE",
"367 496 OFFCURVE",
"367 520 CURVE SMOOTH",
"367 544 OFFCURVE",
"387 564 OFFCURVE"
);
},
{
closed = 1;
nodes = (
"411 329 CURVE SMOOTH",
"648 329 LINE SMOOTH",
"672 329 OFFCURVE",
"692 309 OFFCURVE",
"692 285 CURVE SMOOTH",
"692 261 OFFCURVE",
"672 241 OFFCURVE",
"648 241 CURVE SMOOTH",
"411 241 LINE SMOOTH",
"387 241 OFFCURVE",
"367 261 OFFCURVE",
"367 285 CURVE SMOOTH",
"367 309 OFFCURVE",
"387 329 OFFCURVE"
);
}
);
width = 773;
}
);
leftKerningGroup = A;
rightKerningGroup = E;
unicode = 00C6;
userData = {
com.typemytype.robofont.layerData = {
mask = {
anchors = (
);
components = (
);
contours = (
);
lib = {
};
name = AE;
unicodes = (
);
width = 763;
};
wire = {
anchors = (
);
components = (
);
contours = (
);
lib = {
};
name = AE;
unicodes = (
);
width = 763;
};
};
};
},
{
glyphname = B;
lastChange = "2016-03-19 06:03:29 +0000";
layers = (
{
layerId = "F2EBC5D5-DDE2-4851-B52F-F2293ECE9CC7";
name = Light;
paths = (
{
closed = 1;
nodes = (
"124 304 CURVE SMOOTH",
"280 304 LINE SMOOTH",
"341 304 OFFCURVE",
"395 282 OFFCURVE",
"427 250 CURVE SMOOTH",
"458 219 OFFCURVE",
"472 184 OFFCURVE",
"472 144 CURVE SMOOTH",
"472 108 OFFCURVE",
"459 71 OFFCURVE",
"431 43 CURVE SMOOTH",
"400 13 OFFCURVE",
"354 -9 OFFCURVE",
"277 -9 CURVE SMOOTH",
"114 -9 LINE SMOOTH",
"103 -9 OFFCURVE",
"94 0 OFFCURVE",
"94 11 CURVE SMOOTH",
"94 520 LINE SMOOTH",
"94 531 OFFCURVE",
"103 540 OFFCURVE",
"114 540 CURVE SMOOTH",
"260 540 LINE SMOOTH",
"320 540 OFFCURVE",
"359 520 OFFCURVE",
"384 495 CURVE SMOOTH",
"407 473 OFFCURVE",
"422 436 OFFCURVE",
"422 404 CURVE SMOOTH",
"422 367 OFFCURVE",
"407 333 OFFCURVE",
"384 311 CURVE SMOOTH",
"363 289 OFFCURVE",
"322 267 OFFCURVE",
"273 264 CURVE SMOOTH",
"263 263 OFFCURVE",
"253 272 OFFCURVE",
"252 283 CURVE SMOOTH",
"251 293 OFFCURVE",
"260 303 OFFCURVE",
"271 304 CURVE SMOOTH",
"308 307 OFFCURVE",
"339 323 OFFCURVE",
"356 339 CURVE SMOOTH",
"371 355 OFFCURVE",
"382 379 OFFCURVE",
"382 404 CURVE SMOOTH",
"382 426 OFFCURVE",
"371 451 OFFCURVE",
"356 467 CURVE SMOOTH",
"337 486 OFFCURVE",
"306 500 OFFCURVE",
"260 500 CURVE SMOOTH",
"114 500 LINE",
"134 520 LINE",
"134 11 LINE",
"114 31 LINE",
"277 31 LINE SMOOTH",
"340 31 OFFCURVE",
"378 47 OFFCURVE",
"403 71 CURVE SMOOTH",
"423 91 OFFCURVE",
"432 118 OFFCURVE",
"432 144 CURVE SMOOTH",
"432 174 OFFCURVE",
"422 199 OFFCURVE",
"399 222 CURVE SMOOTH",
"373 248 OFFCURVE",
"329 264 OFFCURVE",
"280 264 CURVE SMOOTH",
"124 264 LINE SMOOTH",
"113 264 OFFCURVE",
"104 273 OFFCURVE",
"104 284 CURVE SMOOTH",
"104 295 OFFCURVE",
"113 304 OFFCURVE"
);
}
);
width = 524;
},
{
layerId = "A309AC34-D742-49E2-8DE7-30304959F2B2";
name = Bold;
paths = (
{
closed = 1;
nodes = (
"129 328 CURVE SMOOTH",
"285 328 LINE SMOOTH",
"353 328 OFFCURVE",
"414 304 OFFCURVE",
"450 268 CURVE SMOOTH",
"486 231 OFFCURVE",
"506 192 OFFCURVE",
"506 144 CURVE SMOOTH",
"506 101 OFFCURVE",
"486 58 OFFCURVE",
"454 25 CURVE SMOOTH",
"419 -8 OFFCURVE",
"368 -33 OFFCURVE",
"282 -33 CURVE SMOOTH",
"119 -33 LINE SMOOTH",
"92 -33 OFFCURVE",
"70 -13 OFFCURVE",
"70 11 CURVE SMOOTH",
"70 520 LINE SMOOTH",
"70 544 OFFCURVE",
"92 564 OFFCURVE",
"119 564 CURVE SMOOTH",
"265 564 LINE SMOOTH",
"334 564 OFFCURVE",
"378 541 OFFCURVE",
"407 513 CURVE SMOOTH",
"434 486 OFFCURVE",
"456 443 OFFCURVE",
"456 404 CURVE SMOOTH",
"456 359 OFFCURVE",
"433 320 OFFCURVE",
"407 293 CURVE SMOOTH",
"382 269 OFFCURVE",
"336 244 OFFCURVE",
"280 240 CURVE SMOOTH",
"256 238 OFFCURVE",
"235 257 OFFCURVE",
"233 281 CURVE SMOOTH",
"231 305 OFFCURVE",
"250 326 OFFCURVE",
"274 328 CURVE SMOOTH",
"304 330 OFFCURVE",
"330 343 OFFCURVE",
"343 357 CURVE SMOOTH",
"355 368 OFFCURVE",
"358 387 OFFCURVE",
"358 404 CURVE SMOOTH",
"358 419 OFFCURVE",
"354 438 OFFCURVE",
"343 449 CURVE SMOOTH",
"328 465 OFFCURVE",
"302 476 OFFCURVE",
"265 476 CURVE SMOOTH",
"119 476 LINE",
"168 520 LINE",
"168 11 LINE",
"119 55 LINE",
"282 55 LINE SMOOTH",
"336 55 OFFCURVE",
"369 68 OFFCURVE",
"390 89 CURVE SMOOTH",
"406 104 OFFCURVE",
"408 125 OFFCURVE",
"408 144 CURVE SMOOTH",
"408 166 OFFCURVE",
"404 187 OFFCURVE",
"386 204 CURVE SMOOTH",
"364 226 OFFCURVE",
"327 240 OFFCURVE",
"285 240 CURVE SMOOTH",
"129 240 LINE SMOOTH",
"105 240 OFFCURVE",
"85 260 OFFCURVE",
"85 284 CURVE SMOOTH",
"85 308 OFFCURVE",
"105 328 OFFCURVE"
);
}
);
width = 534;
}
);
unicode = 0042;
userData = {
com.typemytype.robofont.layerData = {
mask = {
anchors = (
);
components = (
);
contours = (
);
lib = {
};
name = B;
unicodes = (
);
width = 524;
};
wire = {
anchors = (
);
components = (
);
contours = (
);
lib = {
};
name = B;
unicodes = (
);
width = 524;
};
};
};
},
{
glyphname = C;
lastChange = "2016-03-19 06:03:29 +0000";
layers = (
{
layerId = "F2EBC5D5-DDE2-4851-B52F-F2293ECE9CC7";
name = Light;
paths = (
{
closed = 1;
nodes = (
"469 481 CURVE SMOOTH",
"437 499 OFFCURVE",
"387 510 OFFCURVE",
"336 510 CURVE SMOOTH",
"206 510 OFFCURVE",
"95 410 OFFCURVE",
"95 262 CURVE SMOOTH",
"95 126 OFFCURVE",
"186 21 OFFCURVE",
"342 21 CURVE SMOOTH",
"393 21 OFFCURVE",
"438 32 OFFCURVE",
"475 51 CURVE SMOOTH",
"484 56 OFFCURVE",
"497 52 OFFCURVE",
"502 42 CURVE SMOOTH",
"507 33 OFFCURVE",
"503 20 OFFCURVE",
"493 15 CURVE SMOOTH",
"452 -6 OFFCURVE",
"401 -19 OFFCURVE",
"342 -19 CURVE SMOOTH",
"160 -19 OFFCURVE",
"55 104 OFFCURVE",
"55 262 CURVE SMOOTH",
"55 434 OFFCURVE",
"186 550 OFFCURVE",
"336 550 CURVE SMOOTH",
"395 550 OFFCURVE",
"451 537 OFFCURVE",
"489 517 CURVE SMOOTH",
"498 511 OFFCURVE",
"502 499 OFFCURVE",
"497 489 CURVE SMOOTH",
"491 480 OFFCURVE",
"479 476 OFFCURVE"
);
}
);
width = 564;
},
{
layerId = "A309AC34-D742-49E2-8DE7-30304959F2B2";
name = Bold;
paths = (
{
closed = 1;
nodes = (
"463 460 CURVE SMOOTH",
"433 476 OFFCURVE",
"388 486 OFFCURVE",
"341 486 CURVE SMOOTH",
"224 486 OFFCURVE",
"129 392 OFFCURVE",
"129 262 CURVE SMOOTH",
"129 142 OFFCURVE",
"206 45 OFFCURVE",
"347 45 CURVE SMOOTH",
"394 45 OFFCURVE",
"435 55 OFFCURVE",
"469 72 CURVE SMOOTH",
"490 83 OFFCURVE",
"517 74 OFFCURVE",
"528 53 CURVE SMOOTH",
"539 32 OFFCURVE",
"530 5 OFFCURVE",
"509 -6 CURVE SMOOTH",
"465 -29 OFFCURVE",
"410 -43 OFFCURVE",
"347 -43 CURVE SMOOTH",
"150 -43 OFFCURVE",
"31 88 OFFCURVE",
"31 262 CURVE",
"31 452 OFFCURVE",
"178 574 OFFCURVE",
"341 574 CURVE SMOOTH",
"404 574 OFFCURVE",
"465 560 OFFCURVE",
"505 538 CURVE SMOOTH",
"526 526 OFFCURVE",
"534 499 OFFCURVE",
"523 478 CURVE SMOOTH",
"511 457 OFFCURVE",
"484 449 OFFCURVE"
);
}
);
width = 574;
}
);
leftKerningGroup = O;
rightKerningGroup = C;
unicode = 0043;
userData = {
com.typemytype.robofont.layerData = {
mask = {
anchors = (
);
components = (
);
contours = (
);
lib = {
};
name = C;
unicodes = (
);
width = 564;
};
wire = {
anchors = (
);
components = (
);
contours = (
);
lib = {
};
name = C;
unicodes = (
);
width = 564;
};
};
};
},
{
glyphname = Cacute;
lastChange = "2016-03-19 06:03:29 +0000";
layers = (
{
layerId = "F2EBC5D5-DDE2-4851-B52F-F2293ECE9CC7";
name = Light;
paths = (
{
closed = 1;
nodes = (
"469 476 CURVE SMOOTH",
"437 494 OFFCURVE",
"387 504 OFFCURVE",
"336 504 CURVE SMOOTH",
"206 504 OFFCURVE",
"95 405 OFFCURVE",
"95 257 CURVE SMOOTH",
"95 121 OFFCURVE",
"186 16 OFFCURVE",
"342 16 CURVE SMOOTH",
"393 16 OFFCURVE",
"438 27 OFFCURVE",
"475 46 CURVE SMOOTH",
"484 51 OFFCURVE",
"497 47 OFFCURVE",
"502 37 CURVE SMOOTH",
"507 28 OFFCURVE",
"503 15 OFFCURVE",
"493 10 CURVE SMOOTH",
"452 -11 OFFCURVE",
"401 -24 OFFCURVE",
"342 -24 CURVE SMOOTH",
"160 -24 OFFCURVE",
"55 99 OFFCURVE",
"55 257 CURVE SMOOTH",
"55 429 OFFCURVE",
"186 544 OFFCURVE",
"336 544 CURVE SMOOTH",
"395 544 OFFCURVE",
"451 532 OFFCURVE",
"489 512 CURVE SMOOTH",
"498 506 OFFCURVE",
"502 494 OFFCURVE",
"497 484 CURVE SMOOTH",
"491 475 OFFCURVE",
"479 471 OFFCURVE"
);
},
{
closed = 1;
nodes = (
"455 726 CURVE SMOOTH",
"408 697 OFFCURVE",
"357 666 OFFCURVE",
"328 644 CURVE SMOOTH",
"319 637 OFFCURVE",
"306 639 OFFCURVE",
"300 648 CURVE SMOOTH",
"293 657 OFFCURVE",
"295 670 OFFCURVE",
"304 676 CURVE SMOOTH",
"335 698 OFFCURVE",
"386 731 OFFCURVE",
"435 760 CURVE SMOOTH",
"444 766 OFFCURVE",
"457 763 OFFCURVE",
"462 753 CURVE SMOOTH",
"468 744 OFFCURVE",
"465 731 OFFCURVE"
);
}
);
width = 564;
},
{
layerId = "A309AC34-D742-49E2-8DE7-30304959F2B2";
name = Bold;
paths = (
{
closed = 1;
nodes = (
"463 455 CURVE SMOOTH",
"433 471 OFFCURVE",
"388 480 OFFCURVE",
"341 480 CURVE SMOOTH",
"224 480 OFFCURVE",
"129 387 OFFCURVE",
"129 257 CURVE SMOOTH",
"129 137 OFFCURVE",
"206 40 OFFCURVE",
"347 40 CURVE SMOOTH",
"394 40 OFFCURVE",
"435 50 OFFCURVE",
"469 67 CURVE SMOOTH",
"490 78 OFFCURVE",
"517 69 OFFCURVE",
"528 48 CURVE SMOOTH",
"539 27 OFFCURVE",
"530 0 OFFCURVE",
"509 -11 CURVE SMOOTH",
"465 -34 OFFCURVE",
"410 -48 OFFCURVE",
"347 -48 CURVE SMOOTH",
"150 -48 OFFCURVE",
"31 83 OFFCURVE",
"31 257 CURVE",
"31 447 OFFCURVE",
"178 568 OFFCURVE",
"341 568 CURVE SMOOTH",
"404 568 OFFCURVE",
"465 555 OFFCURVE",
"505 533 CURVE SMOOTH",
"526 521 OFFCURVE",
"534 494 OFFCURVE",
"523 473 CURVE SMOOTH",
"511 452 OFFCURVE",
"484 444 OFFCURVE"
);
},
{
closed = 1;
nodes = (
"473 705 CURVE SMOOTH",
"426 677 OFFCURVE",
"376 646 OFFCURVE",
"347 624 CURVE SMOOTH",
"328 610 OFFCURVE",
"300 615 OFFCURVE",
"286 634 CURVE SMOOTH",
"271 653 OFFCURVE",
"276 682 OFFCURVE",
"295 696 CURVE SMOOTH",
"326 718 OFFCURVE",
"378 751 OFFCURVE",
"427 781 CURVE SMOOTH",
"447 793 OFFCURVE",
"475 786 OFFCURVE",
"488 766 CURVE SMOOTH",
"500 745 OFFCURVE",
"493 717 OFFCURVE"
);
}
);
width = 574;
}
);
leftKerningGroup = O;
rightKerningGroup = C;
unicode = 0106;
userData = {
com.typemytype.robofont.layerData = {
mask = {
anchors = (
);
components = (
);
contours = (
);
lib = {
};
name = Cacute;
unicodes = (
);
width = 564;
};
wire = {
anchors = (
);
components = (
);
contours = (
);
lib = {
};
name = Cacute;
unicodes = (
);
width = 564;
};
};
};
},
{
glyphname = Ccaron;
lastChange = "2016-03-19 06:03:29 +0000";
layers = (
{
layerId = "F2EBC5D5-DDE2-4851-B52F-F2293ECE9CC7";
name = Light;
paths = (
{
closed = 1;
nodes = (
"469 476 CURVE SMOOTH",
"437 494 OFFCURVE",
"387 504 OFFCURVE",
"336 504 CURVE SMOOTH",
"206 504 OFFCURVE",
"95 405 OFFCURVE",
"95 257 CURVE SMOOTH",
"95 121 OFFCURVE",
"186 16 OFFCURVE",
"342 16 CURVE SMOOTH",
"393 16 OFFCURVE",
"438 27 OFFCURVE",
"475 46 CURVE SMOOTH",
"484 51 OFFCURVE",
"497 47 OFFCURVE",
"502 37 CURVE SMOOTH",
"507 28 OFFCURVE",
"503 15 OFFCURVE",
"493 10 CURVE SMOOTH",
"452 -11 OFFCURVE",
"401 -24 OFFCURVE",
"342 -24 CURVE SMOOTH",
"160 -24 OFFCURVE",
"55 99 OFFCURVE",
"55 257 CURVE SMOOTH",
"55 429 OFFCURVE",
"186 544 OFFCURVE",
"336 544 CURVE SMOOTH",
"395 544 OFFCURVE",
"451 532 OFFCURVE",
"489 512 CURVE SMOOTH",
"498 506 OFFCURVE",
"502 494 OFFCURVE",
"497 484 CURVE SMOOTH",
"491 475 OFFCURVE",
"479 471 OFFCURVE"
);
},
{
closed = 1;
nodes = (
"317 684 CURVE SMOOTH",
"352 709 OFFCURVE",
"389 735 OFFCURVE",
"418 757 CURVE SMOOTH",
"427 763 OFFCURVE",
"439 762 OFFCURVE",
"446 753 CURVE SMOOTH",
"452 744 OFFCURVE",
"451 732 OFFCURVE",
"442 725 CURVE SMOOTH",
"413 703 OFFCURVE",
"376 677 OFFCURVE",
"341 652 CURVE SMOOTH",
"332 645 OFFCURVE",
"319 648 OFFCURVE",
"313 656 CURVE SMOOTH",
"306 665 OFFCURVE",
"309 678 OFFCURVE"
);
},
{
closed = 1;
nodes = (
"233 757 CURVE SMOOTH",
"263 735 OFFCURVE",
"298 709 OFFCURVE",
"333 684 CURVE SMOOTH",
"342 678 OFFCURVE",
"345 665 OFFCURVE",
"338 657 CURVE SMOOTH",
"332 648 OFFCURVE",
"319 645 OFFCURVE",
"311 652 CURVE SMOOTH",
"274 677 OFFCURVE",
"239 703 OFFCURVE",
"209 725 CURVE SMOOTH",
"200 731 OFFCURVE",
"198 744 OFFCURVE",
"205 753 CURVE SMOOTH",
"211 762 OFFCURVE",
"224 764 OFFCURVE"
);
}
);
width = 564;
},
{
layerId = "A309AC34-D742-49E2-8DE7-30304959F2B2";
name = Bold;
paths = (
{
closed = 1;
nodes = (
"463 455 CURVE SMOOTH",
"433 471 OFFCURVE",
"388 480 OFFCURVE",
"341 480 CURVE SMOOTH",
"224 480 OFFCURVE",
"129 387 OFFCURVE",
"129 257 CURVE SMOOTH",
"129 137 OFFCURVE",
"206 40 OFFCURVE",
"347 40 CURVE SMOOTH",
"394 40 OFFCURVE",
"435 50 OFFCURVE",
"469 67 CURVE SMOOTH",
"490 78 OFFCURVE",
"517 69 OFFCURVE",
"528 48 CURVE SMOOTH",
"539 27 OFFCURVE",
"530 0 OFFCURVE",
"509 -11 CURVE SMOOTH",
"465 -34 OFFCURVE",
"410 -48 OFFCURVE",
"347 -48 CURVE SMOOTH",
"150 -48 OFFCURVE",
"31 83 OFFCURVE",
"31 257 CURVE",
"31 447 OFFCURVE",
"178 568 OFFCURVE",
"341 568 CURVE SMOOTH",
"404 568 OFFCURVE",
"465 555 OFFCURVE",
"505 533 CURVE SMOOTH",
"526 521 OFFCURVE",
"534 494 OFFCURVE",
"523 473 CURVE SMOOTH",
"511 452 OFFCURVE",
"484 444 OFFCURVE"
);
},
{
closed = 1;
nodes = (
"308 704 CURVE SMOOTH",
"343 729 OFFCURVE",
"379 755 OFFCURVE",
"408 776 CURVE SMOOTH",
"427 791 OFFCURVE",
"456 787 OFFCURVE",
"470 768 CURVE SMOOTH",
"484 749 OFFCURVE",
"481 720 OFFCURVE",
"462 706 CURVE SMOOTH",
"433 683 OFFCURVE",
"395 657 OFFCURVE",
"360 632 CURVE SMOOTH",
"340 618 OFFCURVE",
"312 623 OFFCURVE",
"298 642 CURVE SMOOTH",
"284 662 OFFCURVE",
"289 690 OFFCURVE"
);
},
{
closed = 1;
nodes = (
"252 777 CURVE SMOOTH",
"282 755 OFFCURVE",
"317 729 OFFCURVE",
"352 704 CURVE SMOOTH",
"372 691 OFFCURVE",
"377 662 OFFCURVE",
"363 643 CURVE SMOOTH",
"350 623 OFFCURVE",
"321 618 OFFCURVE",
"302 632 CURVE SMOOTH",
"265 657 OFFCURVE",
"230 683 OFFCURVE",
"200 705 CURVE SMOOTH",
"181 719 OFFCURVE",
"176 748 OFFCURVE",
"191 767 CURVE SMOOTH",
"205 786 OFFCURVE",
"233 791 OFFCURVE"
);
}
);
width = 574;
}
);
leftKerningGroup = O;
rightKerningGroup = C;
unicode = 010C;
userData = {
com.typemytype.robofont.layerData = {
mask = {
anchors = (
);
components = (
);
contours = (
);
lib = {
};
name = Ccaron;
unicodes = (
);
width = 564;
};
wire = {
anchors = (
);
components = (
);
contours = (
);
lib = {
};
name = Ccaron;
unicodes = (
);
width = 564;
};
};
};
},
{
glyphname = Ccedilla;
lastChange = "2016-03-19 06:03:29 +0000";
layers = (
{
layerId = "F2EBC5D5-DDE2-4851-B52F-F2293ECE9CC7";
name = Light;
paths = (
{
closed = 1;
nodes = (
"469 487 CURVE SMOOTH",
"437 505 OFFCURVE",
"387 516 OFFCURVE",
"336 516 CURVE SMOOTH",
"206 516 OFFCURVE",
"95 416 OFFCURVE",
"95 268 CURVE SMOOTH",
"95 132 OFFCURVE",
"186 27 OFFCURVE",
"342 27 CURVE SMOOTH",
"393 27 OFFCURVE",
"438 38 OFFCURVE",
"475 57 CURVE SMOOTH",
"484 62 OFFCURVE",
"497 58 OFFCURVE",
"502 48 CURVE SMOOTH",
"507 39 OFFCURVE",
"503 26 OFFCURVE",
"493 21 CURVE SMOOTH",
"452 0 OFFCURVE",
"401 -13 OFFCURVE",
"342 -13 CURVE SMOOTH",
"160 -13 OFFCURVE",
"55 110 OFFCURVE",
"55 268 CURVE SMOOTH",
"55 440 OFFCURVE",
"186 556 OFFCURVE",
"336 556 CURVE SMOOTH",
"395 556 OFFCURVE",
"451 543 OFFCURVE",
"489 523 CURVE SMOOTH",
"498 517 OFFCURVE",
"502 505 OFFCURVE",
"497 495 CURVE SMOOTH",
"491 486 OFFCURVE",
"479 482 OFFCURVE"
);
},
{
closed = 1;
nodes = (
"349 -152 CURVE SMOOTH",
"320 -178 OFFCURVE",
"267 -231 OFFCURVE",
"243 -256 CURVE SMOOTH",
"236 -264 OFFCURVE",
"223 -264 OFFCURVE",
"215 -256 CURVE SMOOTH",
"207 -249 OFFCURVE",
"207 -236 OFFCURVE",
"215 -228 CURVE SMOOTH",
"239 -203 OFFCURVE",
"292 -150 OFFCURVE",
"321 -122 CURVE SMOOTH",
"329 -115 OFFCURVE",
"342 -115 OFFCURVE",
"350 -123 CURVE SMOOTH",
"357 -131 OFFCURVE",
"357 -144 OFFCURVE"
);
}
);
width = 564;
},
{
layerId = "A309AC34-D742-49E2-8DE7-30304959F2B2";
name = Bold;
paths = (
{
closed = 1;
nodes = (
"463 466 CURVE SMOOTH",
"433 482 OFFCURVE",
"388 492 OFFCURVE",
"341 492 CURVE SMOOTH",
"224 492 OFFCURVE",
"129 398 OFFCURVE",
"129 268 CURVE SMOOTH",
"129 148 OFFCURVE",
"206 51 OFFCURVE",
"347 51 CURVE SMOOTH",
"394 51 OFFCURVE",
"435 61 OFFCURVE",
"469 78 CURVE SMOOTH",
"490 89 OFFCURVE",
"517 80 OFFCURVE",
"528 59 CURVE SMOOTH",
"539 38 OFFCURVE",
"530 11 OFFCURVE",
"509 0 CURVE SMOOTH",
"465 -23 OFFCURVE",
"410 -37 OFFCURVE",
"347 -37 CURVE SMOOTH",
"150 -37 OFFCURVE",
"31 94 OFFCURVE",
"31 268 CURVE",
"31 458 OFFCURVE",
"178 580 OFFCURVE",
"341 580 CURVE SMOOTH",
"404 580 OFFCURVE",
"465 566 OFFCURVE",
"505 544 CURVE SMOOTH",
"526 532 OFFCURVE",
"534 505 OFFCURVE",
"523 484 CURVE SMOOTH",
"511 463 OFFCURVE",
"484 455 OFFCURVE"
);
},
{
closed = 1;
nodes = (
"370 -170 CURVE SMOOTH",
"342 -196 OFFCURVE",
"290 -249 OFFCURVE",
"266 -273 CURVE SMOOTH",
"250 -290 OFFCURVE",
"221 -290 OFFCURVE",
"204 -274 CURVE SMOOTH",
"186 -257 OFFCURVE",
"185 -228 OFFCURVE",
"202 -211 CURVE SMOOTH",
"226 -185 OFFCURVE",
"280 -132 OFFCURVE",
"310 -104 CURVE SMOOTH",
"327 -88 OFFCURVE",
"356 -90 OFFCURVE",
"372 -107 CURVE SMOOTH",
"388 -124 OFFCURVE",
"388 -154 OFFCURVE"
);
}
);
width = 574;
}
);
leftKerningGroup = O;
rightKerningGroup = C;
unicode = 00C7;
userData = {
com.typemytype.robofont.layerData = {
mask = {
anchors = (
);
components = (
);
contours = (
);
lib = {
};
name = Ccedilla;
unicodes = (
);
width = 564;
};
wire = {
anchors = (
);
components = (
);
contours = (
);
lib = {
};
name = Ccedilla;
unicodes = (
);
width = 564;
};
};
};
},
{
glyphname = D;
lastChange = "2016-03-19 06:03:29 +0000";
layers = (
{
layerId = "F2EBC5D5-DDE2-4851-B52F-F2293ECE9CC7";
name = Light;
paths = (
{
closed = 1;
nodes = (
"299 -9 CURVE SMOOTH",
"114 -9 LINE SMOOTH",
"103 -9 OFFCURVE",
"94 0 OFFCURVE",
"94 11 CURVE SMOOTH",
"94 520 LINE SMOOTH",
"94 531 OFFCURVE",
"103 540 OFFCURVE",
"114 540 CURVE SMOOTH",
"299 540 LINE SMOOTH",
"435 540 OFFCURVE",
"557 428 OFFCURVE",
"557 266 CURVE SMOOTH",
"557 112 OFFCURVE",
"455 -9 OFFCURVE"
);
},
{
closed = 1;
nodes = (
"299 31 LINE SMOOTH",
"433 31 OFFCURVE",
"517 136 OFFCURVE",
"517 266 CURVE SMOOTH",
"517 402 OFFCURVE",
"415 500 OFFCURVE",
"299 500 CURVE SMOOTH",
"114 500 LINE",
"134 520 LINE",
"134 11 LINE",
"114 31 LINE"
);
}
);
width = 613;
},
{
layerId = "A309AC34-D742-49E2-8DE7-30304959F2B2";
name = Bold;
paths = (
{
closed = 1;
nodes = (
"304 -33 CURVE SMOOTH",
"119 -33 LINE SMOOTH",
"92 -33 OFFCURVE",
"70 -13 OFFCURVE",
"70 11 CURVE",
"70 520 LINE",
"70 544 OFFCURVE",
"92 564 OFFCURVE",
"119 564 CURVE SMOOTH",
"304 564 LINE SMOOTH",
"452 564 OFFCURVE",
"591 446 OFFCURVE",
"591 266 CURVE SMOOTH",
"591 95 OFFCURVE",
"474 -33 OFFCURVE"
);
},
{
closed = 1;
nodes = (
"304 55 LINE SMOOTH",
"424 55 OFFCURVE",
"493 153 OFFCURVE",
"493 266 CURVE SMOOTH",
"493 384 OFFCURVE",
"408 476 OFFCURVE",
"304 476 CURVE SMOOTH",
"119 476 LINE",
"168 520 LINE",
"168 11 LINE",
"119 55 LINE"
);
}
);
width = 623;
}
);
rightKerningGroup = O;
unicode = 0044;
userData = {
com.typemytype.robofont.layerData = {
mask = {
anchors = (
);
components = (
);
contours = (
);
lib = {
};
name = D;
unicodes = (
);
width = 613;
};
wire = {
anchors = (
);
components = (
);
contours = (
);
lib = {
};
name = D;
unicodes = (
);
width = 613;
};
};
};
},
{
glyphname = Eth;
lastChange = "2016-03-19 06:03:29 +0000";
layers = (
{
layerId = "F2EBC5D5-DDE2-4851-B52F-F2293ECE9CC7";
name = Light;
paths = (
{
closed = 1;
nodes = (
"315 -9 CURVE SMOOTH",
"130 -9 LINE SMOOTH",
"119 -9 OFFCURVE",
"110 0 OFFCURVE",
"110 11 CURVE SMOOTH",
"110 520 LINE SMOOTH",
"110 531 OFFCURVE",
"119 540 OFFCURVE",
"130 540 CURVE SMOOTH",
"315 540 LINE SMOOTH",
"451 540 OFFCURVE",
"573 428 OFFCURVE",
"573 266 CURVE SMOOTH",
"573 112 OFFCURVE",
"471 -9 OFFCURVE"
);
},
{
closed = 1;
nodes = (
"52 290 CURVE SMOOTH",
"311 290 LINE SMOOTH",
"322 290 OFFCURVE",
"331 281 OFFCURVE",
"331 270 CURVE SMOOTH",
"331 259 OFFCURVE",
"322 250 OFFCURVE",
"311 250 CURVE SMOOTH",
"52 250 LINE SMOOTH",
"41 250 OFFCURVE",
"32 259 OFFCURVE",
"32 270 CURVE SMOOTH",
"32 281 OFFCURVE",
"41 290 OFFCURVE"
);
},
{
closed = 1;
nodes = (
"315 31 LINE SMOOTH",
"449 31 OFFCURVE",
"533 136 OFFCURVE",
"533 266 CURVE SMOOTH",
"533 402 OFFCURVE",
"431 500 OFFCURVE",
"315 500 CURVE SMOOTH",
"130 500 LINE",
"150 520 LINE",
"150 11 LINE",
"130 31 LINE"
);
}
);
width = 628;
},
{
layerId = "A309AC34-D742-49E2-8DE7-30304959F2B2";
name = Bold;
paths = (
{
closed = 1;
nodes = (
"320 -33 CURVE SMOOTH",
"135 -33 LINE SMOOTH",
"108 -33 OFFCURVE",
"86 -13 OFFCURVE",
"86 11 CURVE",
"86 520 LINE",
"86 544 OFFCURVE",
"108 564 OFFCURVE",
"135 564 CURVE SMOOTH",
"320 564 LINE SMOOTH",
"468 564 OFFCURVE",
"607 446 OFFCURVE",
"607 266 CURVE SMOOTH",
"607 95 OFFCURVE",
"490 -33 OFFCURVE"
);
},
{
closed = 1;
nodes = (
"57 314 CURVE SMOOTH",
"316 314 LINE SMOOTH",
"340 314 OFFCURVE",
"360 294 OFFCURVE",
"360 270 CURVE SMOOTH",
"360 246 OFFCURVE",
"340 226 OFFCURVE",
"316 226 CURVE SMOOTH",
"57 226 LINE SMOOTH",
"33 226 OFFCURVE",
"13 246 OFFCURVE",
"13 270 CURVE SMOOTH",
"13 294 OFFCURVE",
"33 314 OFFCURVE"
);
},
{
closed = 1;
nodes = (
"320 55 LINE SMOOTH",
"440 55 OFFCURVE",
"509 153 OFFCURVE",
"509 266 CURVE SMOOTH",
"509 384 OFFCURVE",
"424 476 OFFCURVE",
"320 476 CURVE SMOOTH",
"135 476 LINE",
"184 520 LINE",
"184 11 LINE",
"135 55 LINE"
);
}
);
width = 638;
}
);
rightKerningGroup = O;
unicode = 00D0;
userData = {
com.typemytype.robofont.layerData = {
mask = {
anchors = (
);
components = (
);
contours = (
);
lib = {
};
name = Eth;
unicodes = (
);
width = 628;
};
wire = {
anchors = (
);
components = (
);
contours = (
);
lib = {
};
name = Eth;
unicodes = (
);
width = 628;
};
};
};
},
{
glyphname = Dcaron;
lastChange = "2016-03-19 06:03:29 +0000";
layers = (
{
layerId = "F2EBC5D5-DDE2-4851-B52F-F2293ECE9CC7";
name = Light;
paths = (
{
closed = 1;
nodes = (
"299 -15 CURVE SMOOTH",
"114 -15 LINE SMOOTH",
"103 -15 OFFCURVE",
"94 -6 OFFCURVE",
"94 5 CURVE SMOOTH",
"94 515 LINE SMOOTH",
"94 526 OFFCURVE",
"103 535 OFFCURVE",
"114 535 CURVE SMOOTH",
"299 535 LINE SMOOTH",
"435 535 OFFCURVE",
"557 423 OFFCURVE",
"557 261 CURVE SMOOTH",
"557 107 OFFCURVE",
"455 -15 OFFCURVE"
);
},
{
closed = 1;
nodes = (
"299 25 LINE SMOOTH",
"433 25 OFFCURVE",
"517 131 OFFCURVE",
"517 261 CURVE SMOOTH",
"517 397 OFFCURVE",
"415 495 OFFCURVE",
"299 495 CURVE SMOOTH",
"114 495 LINE",
"134 515 LINE",
"134 5 LINE",
"114 25 LINE"
);
},
{
closed = 1;
nodes = (
"262 684 CURVE SMOOTH",
"296 709 OFFCURVE",
"333 734 OFFCURVE",
"363 757 CURVE SMOOTH",
"371 763 OFFCURVE",
"384 762 OFFCURVE",
"391 753 CURVE SMOOTH",
"397 745 OFFCURVE",
"396 732 OFFCURVE",
"387 725 CURVE SMOOTH",
"357 702 OFFCURVE",
"320 677 OFFCURVE",
"286 652 CURVE SMOOTH",
"277 645 OFFCURVE",
"264 647 OFFCURVE",
"258 656 CURVE SMOOTH",
"251 665 OFFCURVE",
"253 678 OFFCURVE"
);
},
{
closed = 1;
nodes = (
"178 757 CURVE SMOOTH",
"207 734 OFFCURVE",
"243 709 OFFCURVE",
"278 684 CURVE SMOOTH",
"286 678 OFFCURVE",
"289 665 OFFCURVE",
"282 656 CURVE SMOOTH",
"276 648 OFFCURVE",
"263 645 OFFCURVE",
"254 652 CURVE SMOOTH",
"219 677 OFFCURVE",
"183 702 OFFCURVE",
"154 725 CURVE SMOOTH",
"145 732 OFFCURVE",
"144 745 OFFCURVE",
"150 753 CURVE SMOOTH",
"157 762 OFFCURVE",
"170 763 OFFCURVE"
);
}
);
width = 613;
},
{
layerId = "A309AC34-D742-49E2-8DE7-30304959F2B2";
name = Bold;
paths = (
{
closed = 1;
nodes = (
"304 -39 CURVE SMOOTH",
"119 -39 LINE SMOOTH",
"92 -39 OFFCURVE",
"70 -19 OFFCURVE",
"70 5 CURVE",
"70 515 LINE",
"70 539 OFFCURVE",
"92 559 OFFCURVE",
"119 559 CURVE SMOOTH",
"304 559 LINE SMOOTH",
"452 559 OFFCURVE",
"591 441 OFFCURVE",
"591 261 CURVE SMOOTH",
"591 90 OFFCURVE",
"474 -39 OFFCURVE"
);
},
{
closed = 1;
nodes = (
"304 49 LINE SMOOTH",
"424 49 OFFCURVE",
"493 148 OFFCURVE",
"493 261 CURVE SMOOTH",
"493 379 OFFCURVE",
"408 471 OFFCURVE",
"304 471 CURVE SMOOTH",
"119 471 LINE",
"168 515 LINE",
"168 5 LINE",
"119 49 LINE"
);
},
{
closed = 1;
nodes = (
"253 704 CURVE SMOOTH",
"286 729 OFFCURVE",
"323 753 OFFCURVE",
"353 776 CURVE SMOOTH",
"372 791 OFFCURVE",
"400 787 OFFCURVE",
"415 768 CURVE SMOOTH",
"429 749 OFFCURVE",
"426 720 OFFCURVE",
"407 706 CURVE SMOOTH",
"377 683 OFFCURVE",
"340 657 OFFCURVE",
"305 632 CURVE SMOOTH",
"286 618 OFFCURVE",
"258 623 OFFCURVE",
"244 642 CURVE SMOOTH",
"229 661 OFFCURVE",
"234 690 OFFCURVE"
);
},
{
closed = 1;
nodes = (
"199 776 CURVE SMOOTH",
"227 753 OFFCURVE",
"262 729 OFFCURVE",
"297 704 CURVE SMOOTH",
"316 690 OFFCURVE",
"321 662 OFFCURVE",
"307 642 CURVE SMOOTH",
"293 623 OFFCURVE",
"265 618 OFFCURVE",
"245 632 CURVE SMOOTH",
"210 657 OFFCURVE",
"173 683 OFFCURVE",
"143 706 CURVE SMOOTH",
"125 721 OFFCURVE",
"122 750 OFFCURVE",
"137 768 CURVE SMOOTH",
"151 787 OFFCURVE",
"180 791 OFFCURVE"
);
}
);
width = 623;
}
);
rightKerningGroup = O;
unicode = 010E;
userData = {
com.typemytype.robofont.layerData = {
mask = {
anchors = (
);
components = (
);
contours = (
);
lib = {
};
name = Dcaron;
unicodes = (
);
width = 613;
};
wire = {
anchors = (
);
components = (
);
contours = (
);
lib = {
};
name = Dcaron;
unicodes = (
);
width = 613;
};
};
};
},
{
glyphname = Dcroat;
lastChange = "2016-03-19 06:03:29 +0000";
layers = (
{
layerId = "F2EBC5D5-DDE2-4851-B52F-F2293ECE9CC7";
name = Light;
paths = (
{
closed = 1;
nodes = (
"315 -9 CURVE SMOOTH",
"130 -9 LINE SMOOTH",
"119 -9 OFFCURVE",
"110 0 OFFCURVE",
"110 11 CURVE SMOOTH",
"110 520 LINE SMOOTH",
"110 531 OFFCURVE",
"119 540 OFFCURVE",
"130 540 CURVE SMOOTH",
"315 540 LINE SMOOTH",
"451 540 OFFCURVE",
"573 428 OFFCURVE",
"573 266 CURVE SMOOTH",
"573 112 OFFCURVE",
"471 -9 OFFCURVE"
);
},
{
closed = 1;
nodes = (
"52 290 CURVE SMOOTH",
"311 290 LINE SMOOTH",
"322 290 OFFCURVE",
"331 281 OFFCURVE",
"331 270 CURVE SMOOTH",
"331 259 OFFCURVE",
"322 250 OFFCURVE",
"311 250 CURVE SMOOTH",
"52 250 LINE SMOOTH",
"41 250 OFFCURVE",
"32 259 OFFCURVE",
"32 270 CURVE SMOOTH",
"32 281 OFFCURVE",
"41 290 OFFCURVE"
);
},
{
closed = 1;
nodes = (
"315 31 LINE SMOOTH",
"449 31 OFFCURVE",
"533 136 OFFCURVE",
"533 266 CURVE SMOOTH",
"533 402 OFFCURVE",
"431 500 OFFCURVE",
"315 500 CURVE SMOOTH",
"130 500 LINE",
"150 520 LINE",
"150 11 LINE",
"130 31 LINE"
);
}
);
width = 628;
},
{
layerId = "A309AC34-D742-49E2-8DE7-30304959F2B2";
name = Bold;
paths = (
{
closed = 1;
nodes = (
"320 -33 CURVE SMOOTH",
"135 -33 LINE SMOOTH",
"108 -33 OFFCURVE",
"86 -13 OFFCURVE",
"86 11 CURVE",
"86 520 LINE",
"86 544 OFFCURVE",
"108 564 OFFCURVE",
"135 564 CURVE SMOOTH",
"320 564 LINE SMOOTH",
"468 564 OFFCURVE",
"607 446 OFFCURVE",
"607 266 CURVE SMOOTH",
"607 95 OFFCURVE",
"490 -33 OFFCURVE"
);
},
{
closed = 1;
nodes = (
"57 314 CURVE SMOOTH",
"316 314 LINE SMOOTH",
"340 314 OFFCURVE",
"360 294 OFFCURVE",
"360 270 CURVE SMOOTH",
"360 246 OFFCURVE",
"340 226 OFFCURVE",
"316 226 CURVE SMOOTH",
"57 226 LINE SMOOTH",
"33 226 OFFCURVE",
"13 246 OFFCURVE",
"13 270 CURVE SMOOTH",
"13 294 OFFCURVE",
"33 314 OFFCURVE"
);
},
{
closed = 1;
nodes = (
"320 55 LINE SMOOTH",
"440 55 OFFCURVE",
"509 153 OFFCURVE",
"509 266 CURVE SMOOTH",
"509 384 OFFCURVE",
"424 476 OFFCURVE",
"320 476 CURVE SMOOTH",
"135 476 LINE",
"184 520 LINE",
"184 11 LINE",
"135 55 LINE"
);
}
);
width = 638;
}
);
rightKerningGroup = O;
unicode = 0110;
userData = {
com.typemytype.robofont.layerData = {
mask = {
anchors = (
);
components = (
);
contours = (
);
lib = {
};
name = Dcroat;
unicodes = (
);
width = 628;
};
wire = {
anchors = (
);
components = (
);
contours = (
);
lib = {
};
name = Dcroat;
unicodes = (
);
width = 628;
};
};
};
},
{
glyphname = E;
lastChange = "2016-03-19 06:03:29 +0000";
layers = (
{
layerId = "F2EBC5D5-DDE2-4851-B52F-F2293ECE9CC7";
name = Light;
paths = (
{
closed = 1;
nodes = (
"134 520 CURVE SMOOTH",
"134 11 LINE SMOOTH",
"134 0 OFFCURVE",
"125 -9 OFFCURVE",
"114 -9 CURVE SMOOTH",
"103 -9 OFFCURVE",
"94 0 OFFCURVE",
"94 11 CURVE SMOOTH",
"94 520 LINE SMOOTH",
"94 531 OFFCURVE",
"103 540 OFFCURVE",
"114 540 CURVE SMOOTH",
"125 540 OFFCURVE",
"134 531 OFFCURVE"
);
},
{
closed = 1;
nodes = (
"123 31 CURVE SMOOTH",
"407 31 LINE SMOOTH",
"418 31 OFFCURVE",
"427 22 OFFCURVE",
"427 11 CURVE SMOOTH",
"427 0 OFFCURVE",
"418 -9 OFFCURVE",
"407 -9 CURVE SMOOTH",
"123 -9 LINE SMOOTH",
"112 -9 OFFCURVE",
"103 0 OFFCURVE",
"103 11 CURVE SMOOTH",
"103 22 OFFCURVE",
"112 31 OFFCURVE"
);
},
{
closed = 1;
nodes = (
"123 540 CURVE SMOOTH",
"405 540 LINE SMOOTH",
"416 540 OFFCURVE",
"425 531 OFFCURVE",
"425 520 CURVE SMOOTH",
"425 509 OFFCURVE",
"416 500 OFFCURVE",
"405 500 CURVE SMOOTH",
"123 500 LINE SMOOTH",
"112 500 OFFCURVE",
"103 509 OFFCURVE",
"103 520 CURVE SMOOTH",
"103 531 OFFCURVE",
"112 540 OFFCURVE"
);
},
{
closed = 1;
nodes = (
"123 305 CURVE SMOOTH",
"360 305 LINE SMOOTH",
"371 305 OFFCURVE",
"380 296 OFFCURVE",
"380 285 CURVE SMOOTH",
"380 274 OFFCURVE",
"371 265 OFFCURVE",
"360 265 CURVE SMOOTH",
"123 265 LINE SMOOTH",
"112 265 OFFCURVE",
"103 274 OFFCURVE",
"103 285 CURVE SMOOTH",
"103 296 OFFCURVE",
"112 305 OFFCURVE"
);
}
);
width = 481;
},
{
layerId = "A309AC34-D742-49E2-8DE7-30304959F2B2";
name = Bold;
paths = (
{
closed = 1;
nodes = (
"168 520 CURVE SMOOTH",
"168 11 LINE SMOOTH",
"168 -13 OFFCURVE",
"143 -33 OFFCURVE",
"119 -33 CURVE SMOOTH",
"95 -33 OFFCURVE",
"70 -13 OFFCURVE",
"70 11 CURVE SMOOTH",
"70 520 LINE SMOOTH",
"70 544 OFFCURVE",
"95 564 OFFCURVE",
"119 564 CURVE SMOOTH",
"143 564 OFFCURVE",
"168 544 OFFCURVE"
);
},
{
closed = 1;
nodes = (
"128 55 CURVE SMOOTH",
"412 55 LINE SMOOTH",
"436 55 OFFCURVE",
"456 35 OFFCURVE",
"456 11 CURVE SMOOTH",
"456 -13 OFFCURVE",
"436 -33 OFFCURVE",
"412 -33 CURVE SMOOTH",
"128 -33 LINE SMOOTH",
"104 -33 OFFCURVE",
"84 -13 OFFCURVE",
"84 11 CURVE SMOOTH",
"84 35 OFFCURVE",
"104 55 OFFCURVE"
);
},
{
closed = 1;
nodes = (
"128 564 CURVE SMOOTH",
"410 564 LINE SMOOTH",
"434 564 OFFCURVE",
"454 544 OFFCURVE",
"454 520 CURVE SMOOTH",
"454 496 OFFCURVE",
"434 476 OFFCURVE",
"410 476 CURVE SMOOTH",
"128 476 LINE SMOOTH",
"104 476 OFFCURVE",
"84 496 OFFCURVE",
"84 520 CURVE SMOOTH",
"84 544 OFFCURVE",
"104 564 OFFCURVE"
);
},
{
closed = 1;
nodes = (
"128 329 CURVE SMOOTH",
"365 329 LINE SMOOTH",
"389 329 OFFCURVE",
"409 309 OFFCURVE",
"409 285 CURVE SMOOTH",
"409 261 OFFCURVE",
"389 241 OFFCURVE",
"365 241 CURVE SMOOTH",
"128 241 LINE SMOOTH",
"104 241 OFFCURVE",
"84 261 OFFCURVE",
"84 285 CURVE SMOOTH",
"84 309 OFFCURVE",
"104 329 OFFCURVE"
);
}
);
width = 491;
}
);
rightKerningGroup = E;
unicode = 0045;
userData = {
com.typemytype.robofont.guides = (
{
angle = 0;
isGlobal = 0;
magnetic = 5;
x = 277;
y = 570;
}
);
com.typemytype.robofont.layerData = {
mask = {
anchors = (
);
components = (
);
contours = (
);
lib = {
};
name = E;
unicodes = (
);
width = 481;
};
wire = {
anchors = (
);
components = (
);
contours = (
);
lib = {
};
name = E;
unicodes = (
);
width = 481;
};
};
};
},
{
glyphname = Eacute;
lastChange = "2016-03-19 06:03:29 +0000";
layers = (
{
layerId = "F2EBC5D5-DDE2-4851-B52F-F2293ECE9CC7";
name = Light;
paths = (
{
closed = 1;
nodes = (
"134 515 CURVE SMOOTH",
"134 5 LINE SMOOTH",
"134 -6 OFFCURVE",
"125 -15 OFFCURVE",
"114 -15 CURVE SMOOTH",
"103 -15 OFFCURVE",
"94 -6 OFFCURVE",
"94 5 CURVE SMOOTH",
"94 515 LINE SMOOTH",
"94 526 OFFCURVE",
"103 535 OFFCURVE",
"114 535 CURVE SMOOTH",
"125 535 OFFCURVE",
"134 526 OFFCURVE"
);
},
{
closed = 1;
nodes = (
"123 25 CURVE SMOOTH",
"407 25 LINE SMOOTH",
"418 25 OFFCURVE",
"427 16 OFFCURVE",
"427 5 CURVE SMOOTH",
"427 -6 OFFCURVE",
"418 -15 OFFCURVE",
"407 -15 CURVE SMOOTH",
"123 -15 LINE SMOOTH",
"112 -15 OFFCURVE",
"103 -6 OFFCURVE",
"103 5 CURVE SMOOTH",
"103 16 OFFCURVE",
"112 25 OFFCURVE"
);
},
{
closed = 1;
nodes = (
"123 535 CURVE SMOOTH",
"405 535 LINE SMOOTH",
"416 535 OFFCURVE",
"425 526 OFFCURVE",
"425 515 CURVE SMOOTH",
"425 504 OFFCURVE",
"416 495 OFFCURVE",
"405 495 CURVE SMOOTH",
"123 495 LINE SMOOTH",
"112 495 OFFCURVE",
"103 504 OFFCURVE",
"103 515 CURVE SMOOTH",
"103 526 OFFCURVE",
"112 535 OFFCURVE"
);
},
{
closed = 1;
nodes = (
"123 300 CURVE SMOOTH",
"360 300 LINE SMOOTH",
"371 300 OFFCURVE",
"380 291 OFFCURVE",
"380 280 CURVE SMOOTH",
"380 269 OFFCURVE",
"371 260 OFFCURVE",
"360 260 CURVE SMOOTH",
"123 260 LINE SMOOTH",
"112 260 OFFCURVE",
"103 269 OFFCURVE",
"103 280 CURVE SMOOTH",
"103 291 OFFCURVE",
"112 300 OFFCURVE"
);
},
{
closed = 1;
nodes = (
"390 726 CURVE SMOOTH",
"343 697 OFFCURVE",
"292 666 OFFCURVE",
"263 644 CURVE SMOOTH",
"254 637 OFFCURVE",
"241 639 OFFCURVE",
"235 648 CURVE SMOOTH",
"228 657 OFFCURVE",
"230 670 OFFCURVE",
"239 676 CURVE SMOOTH",
"270 698 OFFCURVE",
"321 731 OFFCURVE",
"370 760 CURVE SMOOTH",
"379 766 OFFCURVE",
"392 763 OFFCURVE",
"397 753 CURVE SMOOTH",
"403 744 OFFCURVE",
"400 731 OFFCURVE"
);
}
);
width = 481;
},
{
layerId = "A309AC34-D742-49E2-8DE7-30304959F2B2";
name = Bold;
paths = (
{
closed = 1;
nodes = (
"168 515 CURVE SMOOTH",
"168 5 LINE SMOOTH",
"168 -19 OFFCURVE",
"143 -39 OFFCURVE",
"119 -39 CURVE SMOOTH",
"95 -39 OFFCURVE",
"70 -19 OFFCURVE",
"70 5 CURVE SMOOTH",
"70 515 LINE SMOOTH",
"70 539 OFFCURVE",
"95 559 OFFCURVE",
"119 559 CURVE SMOOTH",
"143 559 OFFCURVE",
"168 539 OFFCURVE"
);
},
{
closed = 1;
nodes = (
"128 49 CURVE SMOOTH",
"412 49 LINE SMOOTH",
"436 49 OFFCURVE",
"456 29 OFFCURVE",
"456 5 CURVE SMOOTH",
"456 -19 OFFCURVE",
"436 -39 OFFCURVE",
"412 -39 CURVE SMOOTH",
"128 -39 LINE SMOOTH",
"104 -39 OFFCURVE",
"84 -19 OFFCURVE",
"84 5 CURVE SMOOTH",
"84 29 OFFCURVE",
"104 49 OFFCURVE"
);
},
{
closed = 1;
nodes = (
"128 559 CURVE SMOOTH",
"410 559 LINE SMOOTH",
"434 559 OFFCURVE",
"454 539 OFFCURVE",
"454 515 CURVE SMOOTH",
"454 491 OFFCURVE",
"434 471 OFFCURVE",
"410 471 CURVE SMOOTH",
"128 471 LINE SMOOTH",
"104 471 OFFCURVE",
"84 491 OFFCURVE",
"84 515 CURVE SMOOTH",
"84 539 OFFCURVE",
"104 559 OFFCURVE"
);
},
{
closed = 1;
nodes = (
"128 324 CURVE SMOOTH",
"365 324 LINE SMOOTH",
"389 324 OFFCURVE",
"409 304 OFFCURVE",
"409 280 CURVE SMOOTH",
"409 256 OFFCURVE",
"389 236 OFFCURVE",
"365 236 CURVE SMOOTH",
"128 236 LINE SMOOTH",
"104 236 OFFCURVE",
"84 256 OFFCURVE",
"84 280 CURVE SMOOTH",
"84 304 OFFCURVE",
"104 324 OFFCURVE"
);
},
{
closed = 1;
nodes = (
"408 705 CURVE SMOOTH",
"361 677 OFFCURVE",
"311 646 OFFCURVE",
"282 624 CURVE SMOOTH",
"263 610 OFFCURVE",
"235 615 OFFCURVE",
"221 634 CURVE SMOOTH",
"206 653 OFFCURVE",
"211 682 OFFCURVE",
"230 696 CURVE SMOOTH",
"261 718 OFFCURVE",
"313 751 OFFCURVE",
"362 781 CURVE SMOOTH",
"382 793 OFFCURVE",
"410 786 OFFCURVE",
"423 766 CURVE SMOOTH",
"435 745 OFFCURVE",
"428 717 OFFCURVE"
);
}
);
width = 491;
}
);
rightKerningGroup = E;
unicode = 00C9;
userData = {
com.typemytype.robofont.layerData = {
mask = {
anchors = (
);
components = (
);
contours = (
);
lib = {
};
name = Eacute;
unicodes = (
);
width = 481;
};
wire = {
anchors = (
);
components = (
);
contours = (
);
lib = {
};
name = Eacute;
unicodes = (
);
width = 481;
};
};
};
},
{
glyphname = Ecaron;
lastChange = "2016-03-19 06:03:29 +0000";
layers = (
{
layerId = "F2EBC5D5-DDE2-4851-B52F-F2293ECE9CC7";
name = Light;
paths = (
{
closed = 1;
nodes = (
"134 515 CURVE SMOOTH",
"134 5 LINE SMOOTH",
"134 -6 OFFCURVE",
"125 -15 OFFCURVE",
"114 -15 CURVE SMOOTH",
"103 -15 OFFCURVE",
"94 -6 OFFCURVE",
"94 5 CURVE SMOOTH",
"94 515 LINE SMOOTH",
"94 526 OFFCURVE",
"103 535 OFFCURVE",
"114 535 CURVE SMOOTH",
"125 535 OFFCURVE",
"134 526 OFFCURVE"
);
},
{
closed = 1;
nodes = (
"123 25 CURVE SMOOTH",
"407 25 LINE SMOOTH",
"418 25 OFFCURVE",
"427 16 OFFCURVE",
"427 5 CURVE SMOOTH",
"427 -6 OFFCURVE",
"418 -15 OFFCURVE",
"407 -15 CURVE SMOOTH",
"123 -15 LINE SMOOTH",
"112 -15 OFFCURVE",
"103 -6 OFFCURVE",
"103 5 CURVE SMOOTH",
"103 16 OFFCURVE",
"112 25 OFFCURVE"
);
},
{
closed = 1;
nodes = (
"123 535 CURVE SMOOTH",
"405 535 LINE SMOOTH",
"416 535 OFFCURVE",
"425 526 OFFCURVE",
"425 515 CURVE SMOOTH",
"425 504 OFFCURVE",
"416 495 OFFCURVE",
"405 495 CURVE SMOOTH",
"123 495 LINE SMOOTH",
"112 495 OFFCURVE",
"103 504 OFFCURVE",
"103 515 CURVE SMOOTH",
"103 526 OFFCURVE",
"112 535 OFFCURVE"
);
},
{
closed = 1;
nodes = (
"123 300 CURVE SMOOTH",
"360 300 LINE SMOOTH",
"371 300 OFFCURVE",
"380 291 OFFCURVE",
"380 280 CURVE SMOOTH",
"380 269 OFFCURVE",
"371 260 OFFCURVE",
"360 260 CURVE SMOOTH",
"123 260 LINE SMOOTH",
"112 260 OFFCURVE",
"103 269 OFFCURVE",
"103 280 CURVE SMOOTH",
"103 291 OFFCURVE",
"112 300 OFFCURVE"
);
},
{
closed = 1;
nodes = (
"242 684 CURVE SMOOTH",
"276 709 OFFCURVE",
"313 734 OFFCURVE",
"343 757 CURVE SMOOTH",
"351 763 OFFCURVE",
"364 762 OFFCURVE",
"371 753 CURVE SMOOTH",
"377 745 OFFCURVE",
"376 732 OFFCURVE",
"367 725 CURVE SMOOTH",
"337 702 OFFCURVE",
"300 677 OFFCURVE",
"266 652 CURVE SMOOTH",
"257 645 OFFCURVE",
"244 647 OFFCURVE",
"238 656 CURVE SMOOTH",
"231 665 OFFCURVE",
"233 678 OFFCURVE"
);
},
{
closed = 1;
nodes = (
"158 757 CURVE SMOOTH",
"187 734 OFFCURVE",
"223 709 OFFCURVE",
"258 684 CURVE SMOOTH",
"266 678 OFFCURVE",
"269 665 OFFCURVE",
"262 656 CURVE SMOOTH",
"256 648 OFFCURVE",
"243 645 OFFCURVE",
"234 652 CURVE SMOOTH",
"199 677 OFFCURVE",
"163 702 OFFCURVE",
"134 725 CURVE SMOOTH",
"125 732 OFFCURVE",
"124 745 OFFCURVE",
"130 753 CURVE SMOOTH",
"137 762 OFFCURVE",
"150 763 OFFCURVE"
);
}
);
width = 481;
},
{
layerId = "A309AC34-D742-49E2-8DE7-30304959F2B2";
name = Bold;
paths = (
{
closed = 1;
nodes = (
"168 515 CURVE SMOOTH",
"168 5 LINE SMOOTH",
"168 -19 OFFCURVE",
"143 -39 OFFCURVE",
"119 -39 CURVE SMOOTH",
"95 -39 OFFCURVE",
"70 -19 OFFCURVE",
"70 5 CURVE SMOOTH",
"70 515 LINE SMOOTH",
"70 539 OFFCURVE",
"95 559 OFFCURVE",
"119 559 CURVE SMOOTH",
"143 559 OFFCURVE",
"168 539 OFFCURVE"
);
},
{
closed = 1;
nodes = (
"128 49 CURVE SMOOTH",
"412 49 LINE SMOOTH",
"436 49 OFFCURVE",
"456 29 OFFCURVE",
"456 5 CURVE SMOOTH",
"456 -19 OFFCURVE",
"436 -39 OFFCURVE",
"412 -39 CURVE SMOOTH",
"128 -39 LINE SMOOTH",
"104 -39 OFFCURVE",
"84 -19 OFFCURVE",
"84 5 CURVE SMOOTH",
"84 29 OFFCURVE",
"104 49 OFFCURVE"
);
},
{
closed = 1;
nodes = (
"128 559 CURVE SMOOTH",
"410 559 LINE SMOOTH",
"434 559 OFFCURVE",
"454 539 OFFCURVE",
"454 515 CURVE SMOOTH",
"454 491 OFFCURVE",
"434 471 OFFCURVE",
"410 471 CURVE SMOOTH",
"128 471 LINE SMOOTH",
"104 471 OFFCURVE",
"84 491 OFFCURVE",
"84 515 CURVE SMOOTH",
"84 539 OFFCURVE",
"104 559 OFFCURVE"
);
},
{
closed = 1;
nodes = (
"128 324 CURVE SMOOTH",
"365 324 LINE SMOOTH",
"389 324 OFFCURVE",
"409 304 OFFCURVE",
"409 280 CURVE SMOOTH",
"409 256 OFFCURVE",
"389 236 OFFCURVE",
"365 236 CURVE SMOOTH",
"128 236 LINE SMOOTH",
"104 236 OFFCURVE",
"84 256 OFFCURVE",
"84 280 CURVE SMOOTH",
"84 304 OFFCURVE",
"104 324 OFFCURVE"
);
},
{
closed = 1;
nodes = (
"233 704 CURVE SMOOTH",
"266 729 OFFCURVE",
"303 753 OFFCURVE",
"333 776 CURVE SMOOTH",
"352 791 OFFCURVE",
"380 787 OFFCURVE",
"395 768 CURVE SMOOTH",
"409 749 OFFCURVE",
"406 720 OFFCURVE",
"387 706 CURVE SMOOTH",
"357 683 OFFCURVE",
"320 657 OFFCURVE",
"285 632 CURVE SMOOTH",
"266 618 OFFCURVE",
"238 623 OFFCURVE",
"224 642 CURVE SMOOTH",
"209 661 OFFCURVE",
"214 690 OFFCURVE"
);
},
{
closed = 1;
nodes = (
"179 776 CURVE SMOOTH",
"207 753 OFFCURVE",
"242 729 OFFCURVE",
"277 704 CURVE SMOOTH",
"296 690 OFFCURVE",
"301 662 OFFCURVE",
"287 642 CURVE SMOOTH",
"273 623 OFFCURVE",
"245 618 OFFCURVE",
"225 632 CURVE SMOOTH",
"190 657 OFFCURVE",
"153 683 OFFCURVE",
"123 706 CURVE SMOOTH",
"105 721 OFFCURVE",
"102 750 OFFCURVE",
"117 768 CURVE SMOOTH",
"131 787 OFFCURVE",
"160 791 OFFCURVE"
);
}
);
width = 491;
}
);
rightKerningGroup = E;
unicode = 011A;
userData = {
com.typemytype.robofont.layerData = {
mask = {
anchors = (
);
components = (
);
contours = (
);
lib = {
};
name = Ecaron;
unicodes = (
);
width = 481;
};
wire = {
anchors = (
);
components = (
);
contours = (
);
lib = {
};
name = Ecaron;
unicodes = (
);
width = 481;
};
};
};
},
{
glyphname = Ecircumflex;
lastChange = "2016-03-19 06:03:29 +0000";
layers = (
{
layerId = "F2EBC5D5-DDE2-4851-B52F-F2293ECE9CC7";
name = Light;
paths = (
{
closed = 1;
nodes = (
"134 515 CURVE SMOOTH",
"134 5 LINE SMOOTH",
"134 -6 OFFCURVE",
"125 -15 OFFCURVE",
"114 -15 CURVE SMOOTH",
"103 -15 OFFCURVE",
"94 -6 OFFCURVE",
"94 5 CURVE SMOOTH",
"94 515 LINE SMOOTH",
"94 526 OFFCURVE",
"103 535 OFFCURVE",
"114 535 CURVE SMOOTH",
"125 535 OFFCURVE",
"134 526 OFFCURVE"
);
},
{
closed = 1;
nodes = (
"123 25 CURVE SMOOTH",
"407 25 LINE SMOOTH",
"418 25 OFFCURVE",
"427 16 OFFCURVE",
"427 5 CURVE SMOOTH",
"427 -6 OFFCURVE",
"418 -15 OFFCURVE",
"407 -15 CURVE SMOOTH",
"123 -15 LINE SMOOTH",
"112 -15 OFFCURVE",
"103 -6 OFFCURVE",
"103 5 CURVE SMOOTH",
"103 16 OFFCURVE",
"112 25 OFFCURVE"
);
},
{
closed = 1;
nodes = (
"123 535 CURVE SMOOTH",
"405 535 LINE SMOOTH",
"416 535 OFFCURVE",
"425 526 OFFCURVE",
"425 515 CURVE SMOOTH",
"425 504 OFFCURVE",
"416 495 OFFCURVE",
"405 495 CURVE SMOOTH",
"123 495 LINE SMOOTH",
"112 495 OFFCURVE",
"103 504 OFFCURVE",
"103 515 CURVE SMOOTH",
"103 526 OFFCURVE",
"112 535 OFFCURVE"
);
},
{
closed = 1;
nodes = (
"123 300 CURVE SMOOTH",
"360 300 LINE SMOOTH",
"371 300 OFFCURVE",
"380 291 OFFCURVE",
"380 280 CURVE SMOOTH",
"380 269 OFFCURVE",
"371 260 OFFCURVE",
"360 260 CURVE SMOOTH",
"123 260 LINE SMOOTH",
"112 260 OFFCURVE",
"103 269 OFFCURVE",
"103 280 CURVE SMOOTH",
"103 291 OFFCURVE",
"112 300 OFFCURVE"
);
},
{
closed = 1;
nodes = (
"258 725 CURVE SMOOTH",
"224 699 OFFCURVE",
"187 674 OFFCURVE",
"158 652 CURVE SMOOTH",
"149 646 OFFCURVE",
"137 647 OFFCURVE",
"130 656 CURVE SMOOTH",
"124 665 OFFCURVE",
"125 677 OFFCURVE",
"134 684 CURVE SMOOTH",
"163 706 OFFCURVE",
"200 731 OFFCURVE",
"234 757 CURVE SMOOTH",
"242 763 OFFCURVE",
"255 762 OFFCURVE",
"262 753 CURVE SMOOTH",
"268 745 OFFCURVE",
"267 732 OFFCURVE"
);
},
{
closed = 1;
nodes = (
"343 652 CURVE SMOOTH",
"313 674 OFFCURVE",
"278 699 OFFCURVE",
"242 725 CURVE SMOOTH",
"234 731 OFFCURVE",
"231 744 OFFCURVE",
"238 753 CURVE SMOOTH",
"244 761 OFFCURVE",
"257 764 OFFCURVE",
"266 757 CURVE SMOOTH",
"302 731 OFFCURVE",
"337 706 OFFCURVE",
"367 684 CURVE SMOOTH",
"376 678 OFFCURVE",
"378 665 OFFCURVE",
"371 656 CURVE SMOOTH",
"365 647 OFFCURVE",
"352 645 OFFCURVE"
);
}
);
width = 481;
},
{
layerId = "A309AC34-D742-49E2-8DE7-30304959F2B2";
name = Bold;
paths = (
{
closed = 1;
nodes = (
"168 515 CURVE SMOOTH",
"168 5 LINE SMOOTH",
"168 -19 OFFCURVE",
"143 -39 OFFCURVE",
"119 -39 CURVE SMOOTH",
"95 -39 OFFCURVE",
"70 -19 OFFCURVE",
"70 5 CURVE SMOOTH",
"70 515 LINE SMOOTH",
"70 539 OFFCURVE",
"95 559 OFFCURVE",
"119 559 CURVE SMOOTH",
"143 559 OFFCURVE",
"168 539 OFFCURVE"
);
},
{
closed = 1;
nodes = (
"128 49 CURVE SMOOTH",
"412 49 LINE SMOOTH",
"436 49 OFFCURVE",
"456 29 OFFCURVE",
"456 5 CURVE SMOOTH",
"456 -19 OFFCURVE",
"436 -39 OFFCURVE",
"412 -39 CURVE SMOOTH",
"128 -39 LINE SMOOTH",
"104 -39 OFFCURVE",
"84 -19 OFFCURVE",
"84 5 CURVE SMOOTH",
"84 29 OFFCURVE",
"104 49 OFFCURVE"
);
},
{
closed = 1;
nodes = (
"128 559 CURVE SMOOTH",
"410 559 LINE SMOOTH",
"434 559 OFFCURVE",
"454 539 OFFCURVE",
"454 515 CURVE SMOOTH",
"454 491 OFFCURVE",
"434 471 OFFCURVE",
"410 471 CURVE SMOOTH",
"128 471 LINE SMOOTH",
"104 471 OFFCURVE",
"84 491 OFFCURVE",
"84 515 CURVE SMOOTH",
"84 539 OFFCURVE",
"104 559 OFFCURVE"
);
},
{
closed = 1;
nodes = (
"128 324 CURVE SMOOTH",
"365 324 LINE SMOOTH",
"389 324 OFFCURVE",
"409 304 OFFCURVE",
"409 280 CURVE SMOOTH",
"409 256 OFFCURVE",
"389 236 OFFCURVE",
"365 236 CURVE SMOOTH",
"128 236 LINE SMOOTH",
"104 236 OFFCURVE",
"84 256 OFFCURVE",
"84 280 CURVE SMOOTH",
"84 304 OFFCURVE",
"104 324 OFFCURVE"
);
},
{
closed = 1;
nodes = (
"278 706 CURVE SMOOTH",
"244 680 OFFCURVE",
"207 655 OFFCURVE",
"178 633 CURVE SMOOTH",
"159 618 OFFCURVE",
"130 622 OFFCURVE",
"116 641 CURVE SMOOTH",
"102 660 OFFCURVE",
"105 689 OFFCURVE",
"124 703 CURVE SMOOTH",
"153 725 OFFCURVE",
"190 750 OFFCURVE",
"224 776 CURVE SMOOTH",
"243 791 OFFCURVE",
"272 787 OFFCURVE",
"286 768 CURVE SMOOTH",
"300 749 OFFCURVE",
"297 720 OFFCURVE"
);
},
{
closed = 1;
nodes = (
"334 632 CURVE SMOOTH",
"304 654 OFFCURVE",
"269 679 OFFCURVE",
"233 705 CURVE SMOOTH",
"214 719 OFFCURVE",
"209 747 OFFCURVE",
"223 767 CURVE SMOOTH",
"237 786 OFFCURVE",
"266 791 OFFCURVE",
"285 777 CURVE SMOOTH",
"321 751 OFFCURVE",
"356 726 OFFCURVE",
"386 704 CURVE SMOOTH",
"405 690 OFFCURVE",
"410 661 OFFCURVE",
"395 642 CURVE SMOOTH",
"381 623 OFFCURVE",
"353 618 OFFCURVE"
);
}
);
width = 491;
}
);
rightKerningGroup = E;
unicode = 00CA;
userData = {
com.typemytype.robofont.layerData = {
mask = {
anchors = (
);
components = (
);
contours = (
);
lib = {
};
name = Ecircumflex;
unicodes = (
);
width = 481;
};
wire = {
anchors = (
);
components = (
);
contours = (
);
lib = {
};
name = Ecircumflex;
unicodes = (
);
width = 481;
};
};
};
},
{
glyphname = Edieresis;
lastChange = "2016-03-19 06:03:29 +0000";
layers = (
{
layerId = "F2EBC5D5-DDE2-4851-B52F-F2293ECE9CC7";
name = Light;
paths = (
{
closed = 1;
nodes = (
"152 743 CURVE SMOOTH",
"169 743 OFFCURVE",
"189 724 OFFCURVE",
"189 696 CURVE SMOOTH",
"189 663 OFFCURVE",
"169 648 OFFCURVE",
"152 648 CURVE SMOOTH",
"131 648 OFFCURVE",
"113 665 OFFCURVE",
"113 696 CURVE SMOOTH",
"113 723 OFFCURVE",
"131 743 OFFCURVE"
);
},
{
closed = 1;
nodes = (
"355 743 CURVE SMOOTH",
"372 743 OFFCURVE",
"391 725 OFFCURVE",
"391 696 CURVE SMOOTH",
"391 662 OFFCURVE",
"372 648 OFFCURVE",
"355 648 CURVE SMOOTH",
"334 648 OFFCURVE",
"317 664 OFFCURVE",
"317 696 CURVE SMOOTH",
"317 723 OFFCURVE",
"334 743 OFFCURVE"
);
},
{
closed = 1;
nodes = (
"134 515 CURVE SMOOTH",
"134 6 LINE SMOOTH",
"134 -5 OFFCURVE",
"125 -14 OFFCURVE",
"114 -14 CURVE SMOOTH",
"103 -14 OFFCURVE",
"94 -5 OFFCURVE",
"94 6 CURVE SMOOTH",
"94 515 LINE SMOOTH",
"94 526 OFFCURVE",
"103 535 OFFCURVE",
"114 535 CURVE SMOOTH",
"125 535 OFFCURVE",
"134 526 OFFCURVE"
);
},
{
closed = 1;
nodes = (
"123 26 CURVE SMOOTH",
"407 26 LINE SMOOTH",
"418 26 OFFCURVE",
"427 17 OFFCURVE",
"427 6 CURVE SMOOTH",
"427 -5 OFFCURVE",
"418 -14 OFFCURVE",
"407 -14 CURVE SMOOTH",
"123 -14 LINE SMOOTH",
"112 -14 OFFCURVE",
"103 -5 OFFCURVE",
"103 6 CURVE SMOOTH",
"103 17 OFFCURVE",
"112 26 OFFCURVE"
);
},
{
closed = 1;
nodes = (
"123 535 CURVE SMOOTH",
"405 535 LINE SMOOTH",
"416 535 OFFCURVE",
"425 526 OFFCURVE",
"425 515 CURVE SMOOTH",
"425 504 OFFCURVE",
"416 495 OFFCURVE",
"405 495 CURVE SMOOTH",
"123 495 LINE SMOOTH",
"112 495 OFFCURVE",
"103 504 OFFCURVE",
"103 515 CURVE SMOOTH",
"103 526 OFFCURVE",
"112 535 OFFCURVE"
);
},
{
closed = 1;
nodes = (
"123 300 CURVE SMOOTH",
"360 300 LINE SMOOTH",
"371 300 OFFCURVE",
"380 291 OFFCURVE",
"380 280 CURVE SMOOTH",
"380 269 OFFCURVE",
"371 260 OFFCURVE",
"360 260 CURVE SMOOTH",
"123 260 LINE SMOOTH",
"112 260 OFFCURVE",
"103 269 OFFCURVE",
"103 280 CURVE SMOOTH",
"103 291 OFFCURVE",
"112 300 OFFCURVE"
);
}
);
width = 481;
},
{
layerId = "A309AC34-D742-49E2-8DE7-30304959F2B2";
name = Bold;
paths = (
{
closed = 1;
nodes = (
"157 767 CURVE SMOOTH",
"183 767 OFFCURVE",
"223 746 OFFCURVE",
"223 696 CURVE SMOOTH",
"223 638 OFFCURVE",
"183 624 OFFCURVE",
"157 624 CURVE SMOOTH",
"126 624 OFFCURVE",
"89 642 OFFCURVE",
"89 696 CURVE",
"89 743 OFFCURVE",
"125 767 OFFCURVE"
);
},
{
closed = 1;
nodes = (
"360 767 CURVE SMOOTH",
"386 767 OFFCURVE",
"425 749 OFFCURVE",
"425 696 CURVE SMOOTH",
"425 635 OFFCURVE",
"386 624 OFFCURVE",
"360 624 CURVE SMOOTH",
"329 624 OFFCURVE",
"293 640 OFFCURVE",
"293 696 CURVE SMOOTH",
"293 744 OFFCURVE",
"328 767 OFFCURVE"
);
},
{
closed = 1;
nodes = (
"168 515 CURVE SMOOTH",
"168 6 LINE SMOOTH",
"168 -18 OFFCURVE",
"143 -38 OFFCURVE",
"119 -38 CURVE SMOOTH",
"95 -38 OFFCURVE",
"70 -18 OFFCURVE",
"70 6 CURVE SMOOTH",
"70 515 LINE SMOOTH",
"70 539 OFFCURVE",
"95 559 OFFCURVE",
"119 559 CURVE SMOOTH",
"143 559 OFFCURVE",
"168 539 OFFCURVE"
);
},
{
closed = 1;
nodes = (
"128 50 CURVE SMOOTH",
"412 50 LINE SMOOTH",
"436 50 OFFCURVE",
"456 30 OFFCURVE",
"456 6 CURVE SMOOTH",
"456 -18 OFFCURVE",
"436 -38 OFFCURVE",
"412 -38 CURVE SMOOTH",
"128 -38 LINE SMOOTH",
"104 -38 OFFCURVE",
"84 -18 OFFCURVE",
"84 6 CURVE SMOOTH",
"84 30 OFFCURVE",
"104 50 OFFCURVE"
);
},
{
closed = 1;
nodes = (
"128 559 CURVE SMOOTH",
"410 559 LINE SMOOTH",
"434 559 OFFCURVE",
"454 539 OFFCURVE",
"454 515 CURVE SMOOTH",
"454 491 OFFCURVE",
"434 471 OFFCURVE",
"410 471 CURVE SMOOTH",
"128 471 LINE SMOOTH",
"104 471 OFFCURVE",
"84 491 OFFCURVE",
"84 515 CURVE SMOOTH",
"84 539 OFFCURVE",
"104 559 OFFCURVE"
);
},
{
closed = 1;
nodes = (
"128 324 CURVE SMOOTH",
"365 324 LINE SMOOTH",
"389 324 OFFCURVE",
"409 304 OFFCURVE",
"409 280 CURVE SMOOTH",
"409 256 OFFCURVE",
"389 236 OFFCURVE",
"365 236 CURVE SMOOTH",
"128 236 LINE SMOOTH",
"104 236 OFFCURVE",
"84 256 OFFCURVE",
"84 280 CURVE SMOOTH",
"84 304 OFFCURVE",
"104 324 OFFCURVE"
);
}
);
width = 491;
}
);
rightKerningGroup = E;
unicode = 00CB;
userData = {
com.typemytype.robofont.layerData = {
mask = {
anchors = (
);
components = (
);
contours = (
);
lib = {
};
name = Edieresis;
unicodes = (
);
width = 481;
};
wire = {
anchors = (
);
components = (
);
contours = (
);
lib = {
};
name = Edieresis;
unicodes = (
);
width = 481;
};
};
};
},
{
glyphname = Edotaccent;
lastChange = "2016-03-19 06:03:29 +0000";
layers = (
{
layerId = "F2EBC5D5-DDE2-4851-B52F-F2293ECE9CC7";
name = Light;
paths = (
{
closed = 1;
nodes = (
"257 752 CURVE SMOOTH",
"277 752 OFFCURVE",
"296 734 OFFCURVE",
"296 703 CURVE SMOOTH",
"296 674 OFFCURVE",
"278 657 OFFCURVE",
"257 657 CURVE SMOOTH",
"232 657 OFFCURVE",
"215 676 OFFCURVE",
"215 703 CURVE SMOOTH",
"215 732 OFFCURVE",
"233 752 OFFCURVE"
);
},
{
closed = 1;
nodes = (
"134 515 CURVE SMOOTH",
"134 6 LINE SMOOTH",
"134 -5 OFFCURVE",
"125 -14 OFFCURVE",
"114 -14 CURVE SMOOTH",
"103 -14 OFFCURVE",
"94 -5 OFFCURVE",
"94 6 CURVE SMOOTH",
"94 515 LINE SMOOTH",
"94 526 OFFCURVE",
"103 535 OFFCURVE",
"114 535 CURVE SMOOTH",
"125 535 OFFCURVE",
"134 526 OFFCURVE"
);
},
{
closed = 1;
nodes = (
"123 26 CURVE SMOOTH",
"407 26 LINE SMOOTH",
"418 26 OFFCURVE",
"427 17 OFFCURVE",
"427 6 CURVE SMOOTH",
"427 -5 OFFCURVE",
"418 -14 OFFCURVE",
"407 -14 CURVE SMOOTH",
"123 -14 LINE SMOOTH",
"112 -14 OFFCURVE",
"103 -5 OFFCURVE",
"103 6 CURVE SMOOTH",
"103 17 OFFCURVE",
"112 26 OFFCURVE"
);
},
{
closed = 1;
nodes = (
"123 535 CURVE SMOOTH",
"405 535 LINE SMOOTH",
"416 535 OFFCURVE",
"425 526 OFFCURVE",
"425 515 CURVE SMOOTH",
"425 504 OFFCURVE",
"416 495 OFFCURVE",
"405 495 CURVE SMOOTH",
"123 495 LINE SMOOTH",
"112 495 OFFCURVE",
"103 504 OFFCURVE",
"103 515 CURVE SMOOTH",
"103 526 OFFCURVE",
"112 535 OFFCURVE"
);
},
{
closed = 1;
nodes = (
"123 300 CURVE SMOOTH",
"360 300 LINE SMOOTH",
"371 300 OFFCURVE",
"380 291 OFFCURVE",
"380 280 CURVE SMOOTH",
"380 269 OFFCURVE",
"371 260 OFFCURVE",
"360 260 CURVE SMOOTH",
"123 260 LINE SMOOTH",
"112 260 OFFCURVE",
"103 269 OFFCURVE",
"103 280 CURVE SMOOTH",
"103 291 OFFCURVE",
"112 300 OFFCURVE"
);
}
);
width = 481;
},
{
layerId = "A309AC34-D742-49E2-8DE7-30304959F2B2";
name = Bold;
paths = (
{
closed = 1;
nodes = (
"262 776 CURVE SMOOTH",
"292 776 OFFCURVE",
"330 757 OFFCURVE",
"330 703 CURVE SMOOTH",
"330 653 OFFCURVE",
"294 633 OFFCURVE",
"262 633 CURVE SMOOTH",
"224 633 OFFCURVE",
"191 658 OFFCURVE",
"191 703 CURVE SMOOTH",
"191 751 OFFCURVE",
"227 776 OFFCURVE"
);
},
{
closed = 1;
nodes = (
"168 515 CURVE SMOOTH",
"168 6 LINE SMOOTH",
"168 -18 OFFCURVE",
"143 -38 OFFCURVE",
"119 -38 CURVE SMOOTH",
"95 -38 OFFCURVE",
"70 -18 OFFCURVE",
"70 6 CURVE SMOOTH",
"70 515 LINE SMOOTH",
"70 539 OFFCURVE",
"95 559 OFFCURVE",
"119 559 CURVE SMOOTH",
"143 559 OFFCURVE",
"168 539 OFFCURVE"
);
},
{
closed = 1;
nodes = (
"128 50 CURVE SMOOTH",
"412 50 LINE SMOOTH",
"436 50 OFFCURVE",
"456 30 OFFCURVE",
"456 6 CURVE SMOOTH",
"456 -18 OFFCURVE",
"436 -38 OFFCURVE",
"412 -38 CURVE SMOOTH",
"128 -38 LINE SMOOTH",
"104 -38 OFFCURVE",
"84 -18 OFFCURVE",
"84 6 CURVE SMOOTH",
"84 30 OFFCURVE",
"104 50 OFFCURVE"
);
},
{
closed = 1;
nodes = (
"128 559 CURVE SMOOTH",
"410 559 LINE SMOOTH",
"434 559 OFFCURVE",
"454 539 OFFCURVE",
"454 515 CURVE SMOOTH",
"454 491 OFFCURVE",
"434 471 OFFCURVE",
"410 471 CURVE SMOOTH",
"128 471 LINE SMOOTH",
"104 471 OFFCURVE",
"84 491 OFFCURVE",
"84 515 CURVE SMOOTH",
"84 539 OFFCURVE",
"104 559 OFFCURVE"
);
},
{
closed = 1;
nodes = (
"128 324 CURVE SMOOTH",
"365 324 LINE SMOOTH",
"389 324 OFFCURVE",
"409 304 OFFCURVE",
"409 280 CURVE SMOOTH",
"409 256 OFFCURVE",
"389 236 OFFCURVE",
"365 236 CURVE SMOOTH",
"128 236 LINE SMOOTH",
"104 236 OFFCURVE",
"84 256 OFFCURVE",
"84 280 CURVE SMOOTH",
"84 304 OFFCURVE",
"104 324 OFFCURVE"
);
}
);
width = 491;
}
);
rightKerningGroup = E;
unicode = 0116;
userData = {
com.typemytype.robofont.layerData = {
mask = {
anchors = (
);
components = (
);
contours = (
);
lib = {
};
name = Edotaccent;
unicodes = (
);
width = 481;
};
wire = {
anchors = (
);
components = (
);
contours = (
);
lib = {
};
name = Edotaccent;
unicodes = (
);
width = 481;
};
};
};
},
{
glyphname = Egrave;
lastChange = "2016-03-19 06:03:29 +0000";
layers = (
{
layerId = "F2EBC5D5-DDE2-4851-B52F-F2293ECE9CC7";
name = Light;
paths = (
{
closed = 1;
nodes = (
"134 515 CURVE SMOOTH",
"134 5 LINE SMOOTH",
"134 -6 OFFCURVE",
"125 -15 OFFCURVE",
"114 -15 CURVE SMOOTH",
"103 -15 OFFCURVE",
"94 -6 OFFCURVE",
"94 5 CURVE SMOOTH",
"94 515 LINE SMOOTH",
"94 526 OFFCURVE",
"103 535 OFFCURVE",
"114 535 CURVE SMOOTH",
"125 535 OFFCURVE",
"134 526 OFFCURVE"
);
},
{
closed = 1;
nodes = (
"123 25 CURVE SMOOTH",
"407 25 LINE SMOOTH",
"418 25 OFFCURVE",
"427 16 OFFCURVE",
"427 5 CURVE SMOOTH",
"427 -6 OFFCURVE",
"418 -15 OFFCURVE",
"407 -15 CURVE SMOOTH",
"123 -15 LINE SMOOTH",
"112 -15 OFFCURVE",
"103 -6 OFFCURVE",
"103 5 CURVE SMOOTH",
"103 16 OFFCURVE",
"112 25 OFFCURVE"
);
},
{
closed = 1;
nodes = (
"123 535 CURVE SMOOTH",
"405 535 LINE SMOOTH",
"416 535 OFFCURVE",
"425 526 OFFCURVE",
"425 515 CURVE SMOOTH",
"425 504 OFFCURVE",
"416 495 OFFCURVE",
"405 495 CURVE SMOOTH",
"123 495 LINE SMOOTH",
"112 495 OFFCURVE",
"103 504 OFFCURVE",
"103 515 CURVE SMOOTH",
"103 526 OFFCURVE",
"112 535 OFFCURVE"
);
},
{
closed = 1;
nodes = (
"123 299 CURVE SMOOTH",
"360 299 LINE SMOOTH",
"371 299 OFFCURVE",
"380 290 OFFCURVE",
"380 279 CURVE SMOOTH",
"380 268 OFFCURVE",
"371 259 OFFCURVE",
"360 259 CURVE SMOOTH",
"123 259 LINE SMOOTH",
"112 259 OFFCURVE",
"103 268 OFFCURVE",
"103 279 CURVE SMOOTH",
"103 290 OFFCURVE",
"112 299 OFFCURVE"
);
},
{
closed = 1;
nodes = (
"159 762 CURVE SMOOTH",
"197 740 OFFCURVE",
"254 697 OFFCURVE",
"283 675 CURVE SMOOTH",
"292 668 OFFCURVE",
"293 656 OFFCURVE",
"287 647 CURVE SMOOTH",
"280 638 OFFCURVE",
"268 637 OFFCURVE",
"259 643 CURVE SMOOTH",
"230 665 OFFCURVE",
"177 706 OFFCURVE",
"139 726 CURVE SMOOTH",
"130 732 OFFCURVE",
"126 744 OFFCURVE",
"131 754 CURVE SMOOTH",
"137 763 OFFCURVE",
"149 767 OFFCURVE"
);
}
);
width = 481;
},
{
layerId = "A309AC34-D742-49E2-8DE7-30304959F2B2";
name = Bold;
paths = (
{
closed = 1;
nodes = (
"168 515 CURVE SMOOTH",
"168 5 LINE SMOOTH",
"168 -19 OFFCURVE",
"143 -39 OFFCURVE",
"119 -39 CURVE SMOOTH",
"95 -39 OFFCURVE",
"70 -19 OFFCURVE",
"70 5 CURVE SMOOTH",
"70 515 LINE SMOOTH",
"70 539 OFFCURVE",
"95 559 OFFCURVE",
"119 559 CURVE SMOOTH",
"143 559 OFFCURVE",
"168 539 OFFCURVE"
);
},
{
closed = 1;
nodes = (
"128 49 CURVE SMOOTH",
"412 49 LINE SMOOTH",
"436 49 OFFCURVE",
"456 29 OFFCURVE",
"456 5 CURVE SMOOTH",
"456 -19 OFFCURVE",
"436 -39 OFFCURVE",
"412 -39 CURVE SMOOTH",
"128 -39 LINE SMOOTH",
"104 -39 OFFCURVE",
"84 -19 OFFCURVE",
"84 5 CURVE SMOOTH",
"84 29 OFFCURVE",
"104 49 OFFCURVE"
);
},
{
closed = 1;
nodes = (
"128 559 CURVE SMOOTH",
"410 559 LINE SMOOTH",
"434 559 OFFCURVE",
"454 539 OFFCURVE",
"454 515 CURVE SMOOTH",
"454 491 OFFCURVE",
"434 471 OFFCURVE",
"410 471 CURVE SMOOTH",
"128 471 LINE SMOOTH",
"104 471 OFFCURVE",
"84 491 OFFCURVE",
"84 515 CURVE SMOOTH",
"84 539 OFFCURVE",
"104 559 OFFCURVE"
);
},
{
closed = 1;
nodes = (
"128 323 CURVE SMOOTH",
"365 323 LINE SMOOTH",
"389 323 OFFCURVE",
"409 303 OFFCURVE",
"409 279 CURVE SMOOTH",
"409 255 OFFCURVE",
"389 235 OFFCURVE",
"365 235 CURVE SMOOTH",
"128 235 LINE SMOOTH",
"104 235 OFFCURVE",
"84 255 OFFCURVE",
"84 279 CURVE SMOOTH",
"84 303 OFFCURVE",
"104 323 OFFCURVE"
);
},
{
closed = 1;
nodes = (
"175 783 CURVE SMOOTH",
"215 761 OFFCURVE",
"273 717 OFFCURVE",
"303 694 CURVE SMOOTH",
"322 680 OFFCURVE",
"325 651 OFFCURVE",
"311 632 CURVE SMOOTH",
"297 613 OFFCURVE",
"268 609 OFFCURVE",
"249 624 CURVE SMOOTH",
"221 645 OFFCURVE",
"169 685 OFFCURVE",
"133 705 CURVE SMOOTH",
"112 717 OFFCURVE",
"104 744 OFFCURVE",
"115 765 CURVE SMOOTH",
"127 786 OFFCURVE",
"155 794 OFFCURVE"
);
}
);
width = 491;
}
);
rightKerningGroup = E;
unicode = 00C8;
userData = {
com.typemytype.robofont.layerData = {
mask = {
anchors = (
);
components = (
);
contours = (
);
lib = {
};
name = Egrave;
unicodes = (
);
width = 481;
};
wire = {
anchors = (
);
components = (
);
contours = (
);
lib = {
};
name = Egrave;
unicodes = (
);
width = 481;
};
};
};
},
{
glyphname = Emacron;
lastChange = "2016-03-19 06:03:29 +0000";
layers = (
{
layerId = "F2EBC5D5-DDE2-4851-B52F-F2293ECE9CC7";
name = Light;
paths = (
{
closed = 1;
nodes = (
"134 516 CURVE SMOOTH",
"134 6 LINE SMOOTH",
"134 -5 OFFCURVE",
"125 -14 OFFCURVE",
"114 -14 CURVE SMOOTH",
"103 -14 OFFCURVE",
"94 -5 OFFCURVE",
"94 6 CURVE SMOOTH",
"94 516 LINE SMOOTH",
"94 527 OFFCURVE",
"103 536 OFFCURVE",
"114 536 CURVE SMOOTH",
"125 536 OFFCURVE",
"134 527 OFFCURVE"
);
},
{
closed = 1;
nodes = (
"123 26 CURVE SMOOTH",
"407 26 LINE SMOOTH",
"418 26 OFFCURVE",
"427 17 OFFCURVE",
"427 6 CURVE SMOOTH",
"427 -5 OFFCURVE",
"418 -14 OFFCURVE",
"407 -14 CURVE SMOOTH",
"123 -14 LINE SMOOTH",
"112 -14 OFFCURVE",
"103 -5 OFFCURVE",
"103 6 CURVE SMOOTH",
"103 17 OFFCURVE",
"112 26 OFFCURVE"
);
},
{
closed = 1;
nodes = (
"123 536 CURVE SMOOTH",
"405 536 LINE SMOOTH",
"416 536 OFFCURVE",
"425 527 OFFCURVE",
"425 516 CURVE SMOOTH",
"425 505 OFFCURVE",
"416 496 OFFCURVE",
"405 496 CURVE SMOOTH",
"123 496 LINE SMOOTH",
"112 496 OFFCURVE",
"103 505 OFFCURVE",
"103 516 CURVE SMOOTH",
"103 527 OFFCURVE",
"112 536 OFFCURVE"
);
},
{
closed = 1;
nodes = (
"123 301 CURVE SMOOTH",
"360 301 LINE SMOOTH",
"371 301 OFFCURVE",
"380 292 OFFCURVE",
"380 281 CURVE SMOOTH",
"380 270 OFFCURVE",
"371 261 OFFCURVE",
"360 261 CURVE SMOOTH",
"123 261 LINE SMOOTH",
"112 261 OFFCURVE",
"103 270 OFFCURVE",
"103 281 CURVE SMOOTH",
"103 292 OFFCURVE",
"112 301 OFFCURVE"
);
},
{
closed = 1;
nodes = (
"364 681 CURVE SMOOTH",
"124 681 LINE SMOOTH",
"113 681 OFFCURVE",
"104 690 OFFCURVE",
"104 701 CURVE SMOOTH",
"104 712 OFFCURVE",
"113 721 OFFCURVE",
"124 721 CURVE SMOOTH",
"364 721 LINE SMOOTH",
"375 721 OFFCURVE",
"384 712 OFFCURVE",
"384 701 CURVE SMOOTH",
"384 690 OFFCURVE",
"375 681 OFFCURVE"
);
}
);
width = 481;
},
{
layerId = "A309AC34-D742-49E2-8DE7-30304959F2B2";
name = Bold;
paths = (
{
closed = 1;
nodes = (
"168 516 CURVE SMOOTH",
"168 6 LINE SMOOTH",
"168 -18 OFFCURVE",
"143 -38 OFFCURVE",
"119 -38 CURVE SMOOTH",
"95 -38 OFFCURVE",
"70 -18 OFFCURVE",
"70 6 CURVE SMOOTH",
"70 516 LINE SMOOTH",
"70 540 OFFCURVE",
"95 560 OFFCURVE",
"119 560 CURVE SMOOTH",
"143 560 OFFCURVE",
"168 540 OFFCURVE"
);
},
{
closed = 1;
nodes = (
"128 50 CURVE SMOOTH",
"412 50 LINE SMOOTH",
"436 50 OFFCURVE",
"456 30 OFFCURVE",
"456 6 CURVE SMOOTH",
"456 -18 OFFCURVE",
"436 -38 OFFCURVE",
"412 -38 CURVE SMOOTH",
"128 -38 LINE SMOOTH",
"104 -38 OFFCURVE",
"84 -18 OFFCURVE",
"84 6 CURVE SMOOTH",
"84 30 OFFCURVE",
"104 50 OFFCURVE"
);
},
{
closed = 1;
nodes = (
"128 560 CURVE SMOOTH",
"410 560 LINE SMOOTH",
"434 560 OFFCURVE",
"454 540 OFFCURVE",
"454 516 CURVE SMOOTH",
"454 492 OFFCURVE",
"434 472 OFFCURVE",
"410 472 CURVE SMOOTH",
"128 472 LINE SMOOTH",
"104 472 OFFCURVE",
"84 492 OFFCURVE",
"84 516 CURVE SMOOTH",
"84 540 OFFCURVE",
"104 560 OFFCURVE"
);
},
{
closed = 1;
nodes = (
"128 325 CURVE SMOOTH",
"365 325 LINE SMOOTH",
"389 325 OFFCURVE",
"409 305 OFFCURVE",
"409 281 CURVE SMOOTH",
"409 257 OFFCURVE",
"389 237 OFFCURVE",
"365 237 CURVE SMOOTH",
"128 237 LINE SMOOTH",
"104 237 OFFCURVE",
"84 257 OFFCURVE",
"84 281 CURVE SMOOTH",
"84 305 OFFCURVE",
"104 325 OFFCURVE"
);
},
{
closed = 1;
nodes = (
"369 657 CURVE SMOOTH",
"129 657 LINE SMOOTH",
"105 657 OFFCURVE",
"85 677 OFFCURVE",
"85 701 CURVE SMOOTH",
"85 725 OFFCURVE",
"105 745 OFFCURVE",
"129 745 CURVE SMOOTH",
"369 745 LINE SMOOTH",
"393 745 OFFCURVE",
"413 725 OFFCURVE",
"413 701 CURVE SMOOTH",
"413 677 OFFCURVE",
"393 657 OFFCURVE"
);
}
);
width = 491;
}
);
rightKerningGroup = E;
unicode = 0112;
userData = {
com.typemytype.robofont.layerData = {
mask = {
anchors = (
);
components = (
);
contours = (
);
lib = {
};
name = Emacron;
unicodes = (
);
width = 481;
};
wire = {
anchors = (
);
components = (
);
contours = (
);
lib = {
};
name = Emacron;
unicodes = (
);
width = 481;
};
};
};
},
{
glyphname = Eogonek;
lastChange = "2016-03-19 06:03:29 +0000";
layers = (
{
layerId = "F2EBC5D5-DDE2-4851-B52F-F2293ECE9CC7";
name = Light;
paths = (
{
closed = 1;
nodes = (
"134 526 CURVE SMOOTH",
"134 16 LINE SMOOTH",
"134 5 OFFCURVE",
"125 -4 OFFCURVE",
"114 -4 CURVE SMOOTH",
"103 -4 OFFCURVE",
"94 5 OFFCURVE",
"94 16 CURVE SMOOTH",
"94 526 LINE SMOOTH",
"94 537 OFFCURVE",
"103 546 OFFCURVE",
"114 546 CURVE SMOOTH",
"125 546 OFFCURVE",
"134 537 OFFCURVE"
);
},
{
closed = 1;
nodes = (
"123 36 CURVE SMOOTH",
"407 36 LINE SMOOTH",
"418 36 OFFCURVE",
"427 27 OFFCURVE",
"427 16 CURVE SMOOTH",
"427 5 OFFCURVE",
"418 -4 OFFCURVE",
"407 -4 CURVE SMOOTH",
"123 -4 LINE SMOOTH",
"112 -4 OFFCURVE",
"103 5 OFFCURVE",
"103 16 CURVE SMOOTH",
"103 27 OFFCURVE",
"112 36 OFFCURVE"
);
},
{
closed = 1;
nodes = (
"123 546 CURVE SMOOTH",
"405 546 LINE SMOOTH",
"416 546 OFFCURVE",
"425 537 OFFCURVE",
"425 526 CURVE SMOOTH",
"425 515 OFFCURVE",
"416 506 OFFCURVE",
"405 506 CURVE SMOOTH",
"123 506 LINE SMOOTH",
"112 506 OFFCURVE",
"103 515 OFFCURVE",
"103 526 CURVE SMOOTH",
"103 537 OFFCURVE",
"112 546 OFFCURVE"
);
},
{
closed = 1;
nodes = (
"123 310 CURVE SMOOTH",
"360 310 LINE SMOOTH",
"371 310 OFFCURVE",
"380 301 OFFCURVE",
"380 290 CURVE SMOOTH",
"380 279 OFFCURVE",
"371 270 OFFCURVE",
"360 270 CURVE SMOOTH",
"123 270 LINE SMOOTH",
"112 270 OFFCURVE",
"103 279 OFFCURVE",
"103 290 CURVE SMOOTH",
"103 301 OFFCURVE",
"112 310 OFFCURVE"
);
},
{
closed = 1;
nodes = (
"431 17 CURVE SMOOTH",
"431 -19 LINE SMOOTH",
"431 -24 OFFCURVE",
"428 -31 OFFCURVE",
"424 -34 CURVE SMOOTH",
"344 -100 OFFCURVE",
"323 -125 OFFCURVE",
"323 -151 CURVE SMOOTH",
"323 -181 OFFCURVE",
"371 -194 OFFCURVE",
"427 -194 CURVE SMOOTH",
"438 -194 OFFCURVE",
"447 -203 OFFCURVE",
"447 -214 CURVE SMOOTH",
"447 -225 OFFCURVE",
"438 -234 OFFCURVE",
"427 -234 CURVE SMOOTH",
"319 -234 OFFCURVE",
"283 -193 OFFCURVE",
"283 -151 CURVE SMOOTH",
"283 -119 OFFCURVE",
"298 -86 OFFCURVE",
"398 -4 CURVE",
"391 -19 LINE",
"391 17 LINE SMOOTH",
"391 28 OFFCURVE",
"400 37 OFFCURVE",
"411 37 CURVE SMOOTH",
"422 37 OFFCURVE",
"431 28 OFFCURVE"
);
}
);
width = 481;
},
{
layerId = "A309AC34-D742-49E2-8DE7-30304959F2B2";
name = Bold;
paths = (
{
closed = 1;
nodes = (
"168 526 CURVE SMOOTH",
"168 16 LINE SMOOTH",
"168 -8 OFFCURVE",
"143 -28 OFFCURVE",
"119 -28 CURVE SMOOTH",
"95 -28 OFFCURVE",
"70 -8 OFFCURVE",
"70 16 CURVE SMOOTH",
"70 526 LINE SMOOTH",
"70 550 OFFCURVE",
"95 570 OFFCURVE",
"119 570 CURVE SMOOTH",
"143 570 OFFCURVE",
"168 550 OFFCURVE"
);
},
{
closed = 1;
nodes = (
"128 60 CURVE SMOOTH",
"412 60 LINE SMOOTH",
"436 60 OFFCURVE",
"456 40 OFFCURVE",
"456 16 CURVE SMOOTH",
"456 -8 OFFCURVE",
"436 -28 OFFCURVE",
"412 -28 CURVE SMOOTH",
"128 -28 LINE SMOOTH",
"104 -28 OFFCURVE",
"84 -8 OFFCURVE",
"84 16 CURVE SMOOTH",
"84 40 OFFCURVE",
"104 60 OFFCURVE"
);
},
{
closed = 1;
nodes = (
"128 570 CURVE SMOOTH",
"410 570 LINE SMOOTH",
"434 570 OFFCURVE",
"454 550 OFFCURVE",
"454 526 CURVE SMOOTH",
"454 502 OFFCURVE",
"434 482 OFFCURVE",
"410 482 CURVE SMOOTH",
"128 482 LINE SMOOTH",
"104 482 OFFCURVE",
"84 502 OFFCURVE",
"84 526 CURVE SMOOTH",
"84 550 OFFCURVE",
"104 570 OFFCURVE"
);
},
{
closed = 1;
nodes = (
"128 334 CURVE SMOOTH",
"365 334 LINE SMOOTH",
"389 334 OFFCURVE",
"409 314 OFFCURVE",
"409 290 CURVE SMOOTH",
"409 266 OFFCURVE",
"389 246 OFFCURVE",
"365 246 CURVE SMOOTH",
"128 246 LINE SMOOTH",
"104 246 OFFCURVE",
"84 266 OFFCURVE",
"84 290 CURVE SMOOTH",
"84 314 OFFCURVE",
"104 334 OFFCURVE"
);
},
{
closed = 1;
nodes = (
"459 17 CURVE SMOOTH",
"459 -19 LINE SMOOTH",
"459 -30 OFFCURVE",
"452 -45 OFFCURVE",
"443 -52 CURVE SMOOTH",
"376 -108 OFFCURVE",
"351 -128 OFFCURVE",
"351 -151 CURVE SMOOTH",
"351 -175 OFFCURVE",
"406 -171 OFFCURVE",
"432 -171 CURVE SMOOTH",
"455 -171 OFFCURVE",
"475 -191 OFFCURVE",
"475 -214 CURVE SMOOTH",
"475 -237 OFFCURVE",
"455 -257 OFFCURVE",
"432 -257 CURVE SMOOTH",
"294 -257 OFFCURVE",
"265 -199 OFFCURVE",
"265 -151 CURVE SMOOTH",
"265 -116 OFFCURVE",
"276 -78 OFFCURVE",
"389 14 CURVE",
"373 -19 LINE",
"373 17 LINE SMOOTH",
"373 40 OFFCURVE",
"393 60 OFFCURVE",
"416 60 CURVE SMOOTH",
"439 60 OFFCURVE",
"459 40 OFFCURVE"
);
}
);
width = 491;
}
);
rightKerningGroup = E;
unicode = 0118;
userData = {
com.typemytype.robofont.layerData = {
mask = {
anchors = (
);
components = (
);
contours = (
);
lib = {
};
name = Eogonek;
unicodes = (
);
width = 481;
};
wire = {
anchors = (
);
components = (
);
contours = (
);
lib = {
};
name = Eogonek;
unicodes = (
);
width = 481;
};
};
};
},
{
glyphname = F;
lastChange = "2016-03-19 06:03:29 +0000";
layers = (
{
layerId = "F2EBC5D5-DDE2-4851-B52F-F2293ECE9CC7";
name = Light;
paths = (
{
closed = 1;
nodes = (
"134 520 CURVE SMOOTH",
"134 11 LINE SMOOTH",
"134 0 OFFCURVE",
"125 -9 OFFCURVE",
"114 -9 CURVE SMOOTH",
"103 -9 OFFCURVE",
"94 0 OFFCURVE",
"94 11 CURVE SMOOTH",
"94 520 LINE SMOOTH",
"94 531 OFFCURVE",
"103 540 OFFCURVE",
"114 540 CURVE SMOOTH",
"125 540 OFFCURVE",
"134 531 OFFCURVE"
);
},
{
closed = 1;
nodes = (
"123 540 CURVE SMOOTH",
"413 540 LINE SMOOTH",
"424 540 OFFCURVE",
"433 531 OFFCURVE",
"433 520 CURVE SMOOTH",
"433 509 OFFCURVE",
"424 500 OFFCURVE",
"413 500 CURVE SMOOTH",
"123 500 LINE SMOOTH",
"112 500 OFFCURVE",
"103 509 OFFCURVE",
"103 520 CURVE SMOOTH",
"103 531 OFFCURVE",
"112 540 OFFCURVE"
);
},
{
closed = 1;
nodes = (
"123 285 CURVE SMOOTH",
"360 285 LINE SMOOTH",
"371 285 OFFCURVE",
"380 276 OFFCURVE",
"380 265 CURVE SMOOTH",
"380 254 OFFCURVE",
"371 245 OFFCURVE",
"360 245 CURVE SMOOTH",
"123 245 LINE SMOOTH",
"112 245 OFFCURVE",
"103 254 OFFCURVE",
"103 265 CURVE SMOOTH",
"103 276 OFFCURVE",
"112 285 OFFCURVE"
);
}
);
width = 469;
},
{
layerId = "A309AC34-D742-49E2-8DE7-30304959F2B2";
name = Bold;
paths = (
{
closed = 1;
nodes = (
"168 520 CURVE SMOOTH",
"168 11 LINE SMOOTH",
"168 -13 OFFCURVE",
"143 -33 OFFCURVE",
"119 -33 CURVE SMOOTH",
"95 -33 OFFCURVE",
"70 -13 OFFCURVE",
"70 11 CURVE SMOOTH",
"70 520 LINE SMOOTH",
"70 544 OFFCURVE",
"95 564 OFFCURVE",
"119 564 CURVE SMOOTH",
"143 564 OFFCURVE",
"168 544 OFFCURVE"
);
},
{
closed = 1;
nodes = (
"128 564 CURVE SMOOTH",
"418 564 LINE SMOOTH",
"442 564 OFFCURVE",
"462 544 OFFCURVE",
"462 520 CURVE SMOOTH",
"462 496 OFFCURVE",
"442 476 OFFCURVE",
"418 476 CURVE SMOOTH",
"128 476 LINE SMOOTH",
"104 476 OFFCURVE",
"84 496 OFFCURVE",
"84 520 CURVE SMOOTH",
"84 544 OFFCURVE",
"104 564 OFFCURVE"
);
},
{
closed = 1;
nodes = (
"128 309 CURVE SMOOTH",
"365 309 LINE SMOOTH",
"389 309 OFFCURVE",
"409 289 OFFCURVE",
"409 265 CURVE SMOOTH",
"409 241 OFFCURVE",
"389 221 OFFCURVE",
"365 221 CURVE SMOOTH",
"128 221 LINE SMOOTH",
"104 221 OFFCURVE",
"84 241 OFFCURVE",
"84 265 CURVE SMOOTH",
"84 289 OFFCURVE",
"104 309 OFFCURVE"
);
}
);
width = 479;
}
);
unicode = 0046;
userData = {
com.typemytype.robofont.guides = (
{
angle = 0;
isGlobal = 0;
magnetic = 5;
x = 277;
y = 570;
}
);
com.typemytype.robofont.layerData = {
mask = {
anchors = (
);
components = (
);
contours = (
);
lib = {
};
name = F;
unicodes = (
);
width = 469;
};
wire = {
anchors = (
);
components = (
);
contours = (
);
lib = {
};
name = F;
unicodes = (
);
width = 469;
};
};
};
},
{
glyphname = G;
lastChange = "2016-03-19 06:03:29 +0000";
layers = (
{
layerId = "F2EBC5D5-DDE2-4851-B52F-F2293ECE9CC7";
name = Light;
paths = (
{
closed = 1;
nodes = (
"483 482 CURVE SMOOTH",
"441 499 OFFCURVE",
"393 510 OFFCURVE",
"337 510 CURVE SMOOTH",
"197 510 OFFCURVE",
"95 410 OFFCURVE",
"95 262 CURVE SMOOTH",
"95 128 OFFCURVE",
"183 21 OFFCURVE",
"334 21 CURVE SMOOTH",
"409 21 OFFCURVE",
"465 41 OFFCURVE",
"511 70 CURVE SMOOTH",
"520 76 OFFCURVE",
"533 73 OFFCURVE",
"539 64 CURVE SMOOTH",
"545 55 OFFCURVE",
"542 42 OFFCURVE",
"533 36 CURVE SMOOTH",
"481 3 OFFCURVE",
"419 -19 OFFCURVE",
"334 -19 CURVE SMOOTH",
"157 -19 OFFCURVE",
"55 106 OFFCURVE",
"55 262 CURVE SMOOTH",
"55 434 OFFCURVE",
"175 550 OFFCURVE",
"337 550 CURVE SMOOTH",
"399 550 OFFCURVE",
"451 537 OFFCURVE",
"497 520 CURVE SMOOTH",
"507 516 OFFCURVE",
"513 504 OFFCURVE",
"509 494 CURVE SMOOTH",
"505 484 OFFCURVE",
"493 478 OFFCURVE"
);
},
{
closed = 1;
nodes = (
"503 63 CURVE SMOOTH",
"503 246 LINE SMOOTH",
"503 257 OFFCURVE",
"512 266 OFFCURVE",
"523 266 CURVE SMOOTH",
"534 266 OFFCURVE",
"543 257 OFFCURVE",
"543 246 CURVE SMOOTH",
"543 63 LINE SMOOTH",
"543 52 OFFCURVE",
"534 43 OFFCURVE",
"523 43 CURVE SMOOTH",
"512 43 OFFCURVE",
"503 52 OFFCURVE"
);
},
{
closed = 1;
nodes = (
"511 226 CURVE SMOOTH",
"350 226 LINE SMOOTH",
"339 226 OFFCURVE",
"330 235 OFFCURVE",
"330 246 CURVE SMOOTH",
"330 257 OFFCURVE",
"339 266 OFFCURVE",
"350 266 CURVE SMOOTH",
"511 266 LINE SMOOTH",
"522 266 OFFCURVE",
"531 257 OFFCURVE",
"531 246 CURVE SMOOTH",
"531 235 OFFCURVE",
"522 226 OFFCURVE"
);
}
);
width = 619;
},
{
layerId = "A309AC34-D742-49E2-8DE7-30304959F2B2";
name = Bold;
paths = (
{
closed = 1;
nodes = (
"479 460 CURVE SMOOTH",
"440 475 OFFCURVE",
"395 486 OFFCURVE",
"342 486 CURVE SMOOTH",
"216 486 OFFCURVE",
"129 392 OFFCURVE",
"129 262 CURVE SMOOTH",
"129 144 OFFCURVE",
"203 45 OFFCURVE",
"339 45 CURVE SMOOTH",
"409 45 OFFCURVE",
"461 63 OFFCURVE",
"503 90 CURVE SMOOTH",
"523 103 OFFCURVE",
"551 97 OFFCURVE",
"564 77 CURVE SMOOTH",
"577 56 OFFCURVE",
"571 28 OFFCURVE",
"551 16 CURVE SMOOTH",
"495 -19 OFFCURVE",
"429 -43 OFFCURVE",
"339 -43 CURVE SMOOTH",
"147 -43 OFFCURVE",
"31 90 OFFCURVE",
"31 262 CURVE",
"31 452 OFFCURVE",
"166 574 OFFCURVE",
"342 574 CURVE SMOOTH",
"407 574 OFFCURVE",
"462 561 OFFCURVE",
"511 542 CURVE SMOOTH",
"533 534 OFFCURVE",
"545 507 OFFCURVE",
"536 485 CURVE SMOOTH",
"527 463 OFFCURVE",
"501 451 OFFCURVE"
);
},
{
closed = 1;
nodes = (
"479 63 CURVE SMOOTH",
"479 246 LINE SMOOTH",
"479 270 OFFCURVE",
"504 290 OFFCURVE",
"528 290 CURVE SMOOTH",
"552 290 OFFCURVE",
"577 270 OFFCURVE",
"577 246 CURVE SMOOTH",
"577 63 LINE SMOOTH",
"577 39 OFFCURVE",
"552 19 OFFCURVE",
"528 19 CURVE SMOOTH",
"504 19 OFFCURVE",
"479 39 OFFCURVE"
);
},
{
closed = 1;
nodes = (
"516 202 CURVE SMOOTH",
"355 202 LINE SMOOTH",
"331 202 OFFCURVE",
"311 222 OFFCURVE",
"311 246 CURVE SMOOTH",
"311 270 OFFCURVE",
"331 290 OFFCURVE",
"355 290 CURVE SMOOTH",
"516 290 LINE SMOOTH",
"540 290 OFFCURVE",
"560 270 OFFCURVE",
"560 246 CURVE SMOOTH",
"560 222 OFFCURVE",
"540 202 OFFCURVE"
);
}
);
width = 629;
}
);
leftKerningGroup = O;
unicode = 0047;
userData = {
com.typemytype.robofont.layerData = {
mask = {
anchors = (
);
components = (
);
contours = (
);
lib = {
};
name = G;
unicodes = (
);
width = 619;
};
wire = {
anchors = (
);
components = (
);
contours = (
);
lib = {
};
name = G;
unicodes = (
);
width = 619;
};
};
};
},
{
glyphname = Gbreve;
lastChange = "2016-03-19 06:03:29 +0000";
layers = (
{
layerId = "F2EBC5D5-DDE2-4851-B52F-F2293ECE9CC7";
name = Light;
paths = (
{
closed = 1;
nodes = (
"483 477 CURVE SMOOTH",
"441 494 OFFCURVE",
"393 504 OFFCURVE",
"337 504 CURVE SMOOTH",
"197 504 OFFCURVE",
"95 405 OFFCURVE",
"95 257 CURVE SMOOTH",
"95 123 OFFCURVE",
"183 16 OFFCURVE",
"334 16 CURVE SMOOTH",
"409 16 OFFCURVE",
"465 36 OFFCURVE",
"511 65 CURVE SMOOTH",
"520 71 OFFCURVE",
"533 68 OFFCURVE",
"539 59 CURVE SMOOTH",
"545 50 OFFCURVE",
"542 37 OFFCURVE",
"533 31 CURVE SMOOTH",
"481 -2 OFFCURVE",
"419 -24 OFFCURVE",
"334 -24 CURVE SMOOTH",
"157 -24 OFFCURVE",
"55 101 OFFCURVE",
"55 257 CURVE SMOOTH",
"55 429 OFFCURVE",
"175 544 OFFCURVE",
"337 544 CURVE SMOOTH",
"399 544 OFFCURVE",
"451 532 OFFCURVE",
"497 515 CURVE SMOOTH",
"507 511 OFFCURVE",
"513 499 OFFCURVE",
"509 489 CURVE SMOOTH",
"505 479 OFFCURVE",
"493 473 OFFCURVE"
);
},
{
closed = 1;
nodes = (
"503 58 CURVE SMOOTH",
"503 241 LINE SMOOTH",
"503 252 OFFCURVE",
"512 261 OFFCURVE",
"523 261 CURVE SMOOTH",
"534 261 OFFCURVE",
"543 252 OFFCURVE",
"543 241 CURVE SMOOTH",
"543 58 LINE SMOOTH",
"543 47 OFFCURVE",
"534 38 OFFCURVE",
"523 38 CURVE SMOOTH",
"512 38 OFFCURVE",
"503 47 OFFCURVE"
);
},
{
closed = 1;
nodes = (
"511 221 CURVE SMOOTH",
"350 221 LINE SMOOTH",
"339 221 OFFCURVE",
"330 230 OFFCURVE",
"330 241 CURVE SMOOTH",
"330 252 OFFCURVE",
"339 261 OFFCURVE",
"350 261 CURVE SMOOTH",
"511 261 LINE SMOOTH",
"522 261 OFFCURVE",
"531 252 OFFCURVE",
"531 241 CURVE SMOOTH",
"531 230 OFFCURVE",
"522 221 OFFCURVE"
);
},
{
closed = 1;
nodes = (
"213 758 CURVE SMOOTH",
"240 724 OFFCURVE",
"279 700 OFFCURVE",
"322 700 CURVE SMOOTH",
"370 700 OFFCURVE",
"404 723 OFFCURVE",
"427 757 CURVE SMOOTH",
"433 766 OFFCURVE",
"446 769 OFFCURVE",
"455 763 CURVE SMOOTH",
"464 757 OFFCURVE",
"467 744 OFFCURVE",
"461 735 CURVE SMOOTH",
"430 689 OFFCURVE",
"386 660 OFFCURVE",
"322 660 CURVE SMOOTH",
"267 660 OFFCURVE",
"216 690 OFFCURVE",
"181 734 CURVE SMOOTH",
"175 742 OFFCURVE",
"176 755 OFFCURVE",
"185 762 CURVE SMOOTH",
"193 768 OFFCURVE",
"206 767 OFFCURVE"
);
}
);
width = 619;
},
{
layerId = "A309AC34-D742-49E2-8DE7-30304959F2B2";
name = Bold;
paths = (
{
closed = 1;
nodes = (
"479 455 CURVE SMOOTH",
"440 470 OFFCURVE",
"395 480 OFFCURVE",
"342 480 CURVE SMOOTH",
"216 480 OFFCURVE",
"129 387 OFFCURVE",
"129 257 CURVE SMOOTH",
"129 139 OFFCURVE",
"203 40 OFFCURVE",
"339 40 CURVE SMOOTH",
"409 40 OFFCURVE",
"461 58 OFFCURVE",
"503 85 CURVE SMOOTH",
"523 98 OFFCURVE",
"551 92 OFFCURVE",
"564 72 CURVE SMOOTH",
"577 51 OFFCURVE",
"571 23 OFFCURVE",
"551 11 CURVE SMOOTH",
"495 -24 OFFCURVE",
"429 -48 OFFCURVE",
"339 -48 CURVE SMOOTH",
"147 -48 OFFCURVE",
"31 85 OFFCURVE",
"31 257 CURVE",
"31 447 OFFCURVE",
"166 568 OFFCURVE",
"342 568 CURVE SMOOTH",
"407 568 OFFCURVE",
"462 556 OFFCURVE",
"511 537 CURVE SMOOTH",
"533 529 OFFCURVE",
"545 502 OFFCURVE",
"536 480 CURVE SMOOTH",
"527 458 OFFCURVE",
"501 446 OFFCURVE"
);
},
{
closed = 1;
nodes = (
"479 58 CURVE SMOOTH",
"479 241 LINE SMOOTH",
"479 265 OFFCURVE",
"504 285 OFFCURVE",
"528 285 CURVE SMOOTH",
"552 285 OFFCURVE",
"577 265 OFFCURVE",
"577 241 CURVE SMOOTH",
"577 58 LINE SMOOTH",
"577 34 OFFCURVE",
"552 14 OFFCURVE",
"528 14 CURVE SMOOTH",
"504 14 OFFCURVE",
"479 34 OFFCURVE"
);
},
{
closed = 1;
nodes = (
"516 197 CURVE SMOOTH",
"355 197 LINE SMOOTH",
"331 197 OFFCURVE",
"311 217 OFFCURVE",
"311 241 CURVE SMOOTH",
"311 265 OFFCURVE",
"331 285 OFFCURVE",
"355 285 CURVE SMOOTH",
"516 285 LINE SMOOTH",
"540 285 OFFCURVE",
"560 265 OFFCURVE",
"560 241 CURVE SMOOTH",
"560 217 OFFCURVE",
"540 197 OFFCURVE"
);
},
{
closed = 1;
nodes = (
"238 774 CURVE SMOOTH",
"260 746 OFFCURVE",
"291 724 OFFCURVE",
"327 724 CURVE SMOOTH",
"366 724 OFFCURVE",
"392 744 OFFCURVE",
"411 772 CURVE SMOOTH",
"424 791 OFFCURVE",
"454 796 OFFCURVE",
"474 782 CURVE SMOOTH",
"493 769 OFFCURVE",
"500 740 OFFCURVE",
"487 720 CURVE SMOOTH",
"452 668 OFFCURVE",
"400 636 OFFCURVE",
"327 636 CURVE SMOOTH",
"265 636 OFFCURVE",
"206 668 OFFCURVE",
"166 718 CURVE SMOOTH",
"152 736 OFFCURVE",
"156 766 OFFCURVE",
"175 780 CURVE SMOOTH",
"193 795 OFFCURVE",
"223 793 OFFCURVE"
);
}
);
width = 629;
}
);
leftKerningGroup = O;
unicode = 011E;
userData = {
com.typemytype.robofont.layerData = {
mask = {
anchors = (
);
components = (
);
contours = (
);
lib = {
};
name = Gbreve;
unicodes = (
);
width = 619;
};
wire = {
anchors = (
);
components = (
);
contours = (
);
lib = {
};
name = Gbreve;
unicodes = (
);
width = 619;
};
};
};
},
{
glyphname = H;
lastChange = "2016-03-19 06:03:29 +0000";
layers = (
{
layerId = "F2EBC5D5-DDE2-4851-B52F-F2293ECE9CC7";
name = Light;
paths = (
{
closed = 1;
nodes = (
"134 520 CURVE SMOOTH",
"134 11 LINE SMOOTH",
"134 0 OFFCURVE",
"125 -9 OFFCURVE",
"114 -9 CURVE SMOOTH",
"103 -9 OFFCURVE",
"94 0 OFFCURVE",
"94 11 CURVE SMOOTH",
"94 520 LINE SMOOTH",
"94 531 OFFCURVE",
"103 540 OFFCURVE",
"114 540 CURVE SMOOTH",
"125 540 OFFCURVE",
"134 531 OFFCURVE"
);
},
{
closed = 1;
nodes = (
"538 520 CURVE SMOOTH",
"538 11 LINE SMOOTH",
"538 0 OFFCURVE",
"529 -9 OFFCURVE",
"518 -9 CURVE SMOOTH",
"507 -9 OFFCURVE",
"498 0 OFFCURVE",
"498 11 CURVE SMOOTH",
"498 520 LINE SMOOTH",
"498 531 OFFCURVE",
"507 540 OFFCURVE",
"518 540 CURVE SMOOTH",
"529 540 OFFCURVE",
"538 531 OFFCURVE"
);
},
{
closed = 1;
nodes = (
"118 304 CURVE SMOOTH",
"517 304 LINE SMOOTH",
"528 304 OFFCURVE",
"537 295 OFFCURVE",
"537 284 CURVE SMOOTH",
"537 273 OFFCURVE",
"528 264 OFFCURVE",
"517 264 CURVE SMOOTH",
"118 264 LINE SMOOTH",
"107 264 OFFCURVE",
"98 273 OFFCURVE",
"98 284 CURVE SMOOTH",
"98 295 OFFCURVE",
"107 304 OFFCURVE"
);
}
);
width = 633;
},
{
layerId = "A309AC34-D742-49E2-8DE7-30304959F2B2";
name = Bold;
paths = (
{
closed = 1;
nodes = (
"168 520 CURVE SMOOTH",
"168 11 LINE SMOOTH",
"168 -13 OFFCURVE",
"143 -33 OFFCURVE",
"119 -33 CURVE SMOOTH",
"95 -33 OFFCURVE",
"70 -13 OFFCURVE",
"70 11 CURVE SMOOTH",
"70 520 LINE SMOOTH",
"70 544 OFFCURVE",
"95 564 OFFCURVE",
"119 564 CURVE SMOOTH",
"143 564 OFFCURVE",
"168 544 OFFCURVE"
);
},
{
closed = 1;
nodes = (
"572 520 CURVE SMOOTH",
"572 11 LINE SMOOTH",
"572 -13 OFFCURVE",
"547 -33 OFFCURVE",
"523 -33 CURVE SMOOTH",
"499 -33 OFFCURVE",
"474 -13 OFFCURVE",
"474 11 CURVE SMOOTH",
"474 520 LINE SMOOTH",
"474 544 OFFCURVE",
"499 564 OFFCURVE",
"523 564 CURVE SMOOTH",
"547 564 OFFCURVE",
"572 544 OFFCURVE"
);
},
{
closed = 1;
nodes = (
"123 328 CURVE SMOOTH",
"522 328 LINE SMOOTH",
"546 328 OFFCURVE",
"566 308 OFFCURVE",
"566 284 CURVE SMOOTH",
"566 260 OFFCURVE",
"546 240 OFFCURVE",
"522 240 CURVE SMOOTH",
"123 240 LINE SMOOTH",
"99 240 OFFCURVE",
"79 260 OFFCURVE",
"79 284 CURVE SMOOTH",
"79 308 OFFCURVE",
"99 328 OFFCURVE"
);
}
);
width = 643;
}
);
unicode = 0048;
userData = {
com.typemytype.robofont.guides = (
{
angle = 0;
isGlobal = 0;
magnetic = 5;
x = 277;
y = 570;
}
);
com.typemytype.robofont.layerData = {
mask = {
anchors = (
);
components = (
);
contours = (
);
lib = {
};
name = H;
unicodes = (
);
width = 633;
};
wire = {
anchors = (
);
components = (
);
contours = (
);
lib = {
};
name = H;
unicodes = (
);
width = 633;
};
};
};
},
{
glyphname = I;
lastChange = "2016-03-19 06:03:29 +0000";
layers = (
{
layerId = "F2EBC5D5-DDE2-4851-B52F-F2293ECE9CC7";
name = Light;
paths = (
{
closed = 1;
nodes = (
"139 520 CURVE SMOOTH",
"139 11 LINE SMOOTH",
"139 0 OFFCURVE",
"130 -9 OFFCURVE",
"119 -9 CURVE SMOOTH",
"108 -9 OFFCURVE",
"99 0 OFFCURVE",
"99 11 CURVE SMOOTH",
"99 520 LINE SMOOTH",
"99 531 OFFCURVE",
"108 540 OFFCURVE",
"119 540 CURVE SMOOTH",
"130 540 OFFCURVE",
"139 531 OFFCURVE"
);
}
);
width = 239;
},
{
layerId = "A309AC34-D742-49E2-8DE7-30304959F2B2";
name = Bold;
paths = (
{
closed = 1;
nodes = (
"173 520 CURVE SMOOTH",
"173 11 LINE SMOOTH",
"173 -13 OFFCURVE",
"148 -33 OFFCURVE",
"124 -33 CURVE SMOOTH",
"100 -33 OFFCURVE",
"75 -13 OFFCURVE",
"75 11 CURVE SMOOTH",
"75 520 LINE SMOOTH",
"75 544 OFFCURVE",
"100 564 OFFCURVE",
"124 564 CURVE SMOOTH",
"148 564 OFFCURVE",
"173 544 OFFCURVE"
);
}
);
width = 249;
}
);
unicode = 0049;
userData = {
com.typemytype.robofont.guides = (
{
angle = 0;
isGlobal = 0;
magnetic = 5;
x = 277;
y = 570;
}
);
com.typemytype.robofont.layerData = {
mask = {
anchors = (
);
components = (
);
contours = (
);
lib = {
};
name = I;
unicodes = (
);
width = 239;
};
wire = {
anchors = (
);
components = (
);
contours = (
);
lib = {
};
name = I;
unicodes = (
);
width = 239;
};
};
};
},
{
glyphname = Iacute;
lastChange = "2016-03-19 06:03:29 +0000";
layers = (
{
layerId = "F2EBC5D5-DDE2-4851-B52F-F2293ECE9CC7";
name = Light;
paths = (
{
closed = 1;
nodes = (
"139 515 CURVE SMOOTH",
"139 5 LINE SMOOTH",
"139 -6 OFFCURVE",
"130 -15 OFFCURVE",
"119 -15 CURVE SMOOTH",
"108 -15 OFFCURVE",
"99 -6 OFFCURVE",
"99 5 CURVE SMOOTH",
"99 515 LINE SMOOTH",
"99 526 OFFCURVE",
"108 535 OFFCURVE",
"119 535 CURVE SMOOTH",
"130 535 OFFCURVE",
"139 526 OFFCURVE"
);
},
{
closed = 1;
nodes = (
"250 726 CURVE SMOOTH",
"203 697 OFFCURVE",
"152 666 OFFCURVE",
"123 644 CURVE SMOOTH",
"114 637 OFFCURVE",
"101 639 OFFCURVE",
"95 648 CURVE SMOOTH",
"88 657 OFFCURVE",
"90 670 OFFCURVE",
"99 676 CURVE SMOOTH",
"130 698 OFFCURVE",
"181 731 OFFCURVE",
"230 760 CURVE SMOOTH",
"239 766 OFFCURVE",
"252 763 OFFCURVE",
"257 753 CURVE SMOOTH",
"263 744 OFFCURVE",
"260 731 OFFCURVE"
);
}
);
width = 239;
},
{
layerId = "A309AC34-D742-49E2-8DE7-30304959F2B2";
name = Bold;
paths = (
{
closed = 1;
nodes = (
"173 515 CURVE SMOOTH",
"173 5 LINE SMOOTH",
"173 -19 OFFCURVE",
"148 -39 OFFCURVE",
"124 -39 CURVE SMOOTH",
"100 -39 OFFCURVE",
"75 -19 OFFCURVE",
"75 5 CURVE SMOOTH",
"75 515 LINE SMOOTH",
"75 539 OFFCURVE",
"100 559 OFFCURVE",
"124 559 CURVE SMOOTH",
"148 559 OFFCURVE",
"173 539 OFFCURVE"
);
},
{
closed = 1;
nodes = (
"268 705 CURVE SMOOTH",
"221 677 OFFCURVE",
"171 646 OFFCURVE",
"142 624 CURVE SMOOTH",
"123 610 OFFCURVE",
"95 615 OFFCURVE",
"81 634 CURVE SMOOTH",
"66 653 OFFCURVE",
"71 682 OFFCURVE",
"90 696 CURVE SMOOTH",
"121 718 OFFCURVE",
"173 751 OFFCURVE",
"222 781 CURVE SMOOTH",
"242 793 OFFCURVE",
"270 786 OFFCURVE",
"283 766 CURVE SMOOTH",
"295 745 OFFCURVE",
"288 717 OFFCURVE"
);
}
);
width = 249;
}
);
unicode = 00CD;
userData = {
com.typemytype.robofont.layerData = {
mask = {
anchors = (
);
components = (
);
contours = (
);
lib = {
};
name = Iacute;
unicodes = (
);
width = 239;
};
wire = {
anchors = (
);
components = (
);
contours = (
);
lib = {
};
name = Iacute;
unicodes = (
);
width = 239;
};
};
};
},
{
glyphname = Icircumflex;
lastChange = "2016-03-19 06:03:29 +0000";
layers = (
{
layerId = "F2EBC5D5-DDE2-4851-B52F-F2293ECE9CC7";
name = Light;
paths = (
{
closed = 1;
nodes = (
"139 515 CURVE SMOOTH",
"139 5 LINE SMOOTH",
"139 -6 OFFCURVE",
"130 -15 OFFCURVE",
"119 -15 CURVE SMOOTH",
"108 -15 OFFCURVE",
"99 -6 OFFCURVE",
"99 5 CURVE SMOOTH",
"99 515 LINE SMOOTH",
"99 526 OFFCURVE",
"108 535 OFFCURVE",
"119 535 CURVE SMOOTH",
"130 535 OFFCURVE",
"139 526 OFFCURVE"
);
},
{
closed = 1;
nodes = (
"125 725 CURVE SMOOTH",
"90 699 OFFCURVE",
"54 674 OFFCURVE",
"24 652 CURVE SMOOTH",
"15 645 OFFCURVE",
"2 647 OFFCURVE",
"-4 656 CURVE SMOOTH",
"-11 665 OFFCURVE",
"-9 678 OFFCURVE",
"0 684 CURVE SMOOTH",
"30 706 OFFCURVE",
"66 731 OFFCURVE",
"101 757 CURVE SMOOTH",
"110 763 OFFCURVE",
"123 762 OFFCURVE",
"129 753 CURVE SMOOTH",
"135 744 OFFCURVE",
"134 731 OFFCURVE"
);
},
{
closed = 1;
nodes = (
"209 652 CURVE SMOOTH",
"180 674 OFFCURVE",
"144 699 OFFCURVE",
"108 725 CURVE SMOOTH",
"100 731 OFFCURVE",
"97 744 OFFCURVE",
"104 753 CURVE SMOOTH",
"110 761 OFFCURVE",
"123 764 OFFCURVE",
"132 757 CURVE SMOOTH",
"168 731 OFFCURVE",
"204 706 OFFCURVE",
"233 684 CURVE SMOOTH",
"242 677 OFFCURVE",
"243 665 OFFCURVE",
"237 656 CURVE SMOOTH",
"230 647 OFFCURVE",
"218 646 OFFCURVE"
);
}
);
width = 239;
},
{
layerId = "A309AC34-D742-49E2-8DE7-30304959F2B2";
name = Bold;
paths = (
{
closed = 1;
nodes = (
"173 515 CURVE SMOOTH",
"173 5 LINE SMOOTH",
"173 -19 OFFCURVE",
"148 -39 OFFCURVE",
"124 -39 CURVE SMOOTH",
"100 -39 OFFCURVE",
"75 -19 OFFCURVE",
"75 5 CURVE SMOOTH",
"75 515 LINE SMOOTH",
"75 539 OFFCURVE",
"100 559 OFFCURVE",
"124 559 CURVE SMOOTH",
"148 559 OFFCURVE",
"173 539 OFFCURVE"
);
},
{
closed = 1;
nodes = (
"144 705 CURVE SMOOTH",
"109 679 OFFCURVE",
"73 654 OFFCURVE",
"43 632 CURVE SMOOTH",
"24 618 OFFCURVE",
"-4 623 OFFCURVE",
"-18 642 CURVE SMOOTH",
"-33 661 OFFCURVE",
"-28 690 OFFCURVE",
"-9 704 CURVE SMOOTH",
"21 726 OFFCURVE",
"57 751 OFFCURVE",
"92 777 CURVE SMOOTH",
"111 791 OFFCURVE",
"139 786 OFFCURVE",
"153 767 CURVE SMOOTH",
"167 748 OFFCURVE",
"164 720 OFFCURVE"
);
},
{
closed = 1;
nodes = (
"199 633 CURVE SMOOTH",
"170 654 OFFCURVE",
"135 679 OFFCURVE",
"99 705 CURVE SMOOTH",
"80 719 OFFCURVE",
"75 747 OFFCURVE",
"89 767 CURVE SMOOTH",
"103 786 OFFCURVE",
"132 791 OFFCURVE",
"151 777 CURVE SMOOTH",
"187 751 OFFCURVE",
"224 726 OFFCURVE",
"253 703 CURVE SMOOTH",
"272 689 OFFCURVE",
"275 660 OFFCURVE",
"261 641 CURVE SMOOTH",
"247 622 OFFCURVE",
"218 618 OFFCURVE"
);
}
);
width = 249;
}
);
unicode = 00CE;
userData = {
com.typemytype.robofont.layerData = {
mask = {
anchors = (
);
components = (
);
contours = (
);
lib = {
};
name = Icircumflex;
unicodes = (
);
width = 239;
};
wire = {
anchors = (
);
components = (
);
contours = (
);
lib = {
};
name = Icircumflex;
unicodes = (
);
width = 239;
};
};
};
},
{
glyphname = Idieresis;
lastChange = "2016-03-19 06:03:29 +0000";
layers = (
{
layerId = "F2EBC5D5-DDE2-4851-B52F-F2293ECE9CC7";
name = Light;
paths = (
{
closed = 1;
nodes = (
"22 743 CURVE SMOOTH",
"39 743 OFFCURVE",
"59 724 OFFCURVE",
"59 696 CURVE SMOOTH",
"59 663 OFFCURVE",
"39 648 OFFCURVE",
"22 648 CURVE SMOOTH",
"1 648 OFFCURVE",
"-17 665 OFFCURVE",
"-17 696 CURVE SMOOTH",
"-17 723 OFFCURVE",
"1 743 OFFCURVE"
);
},
{
closed = 1;
nodes = (
"224 743 CURVE SMOOTH",
"243 743 OFFCURVE",
"261 724 OFFCURVE",
"261 696 CURVE SMOOTH",
"261 663 OFFCURVE",
"243 648 OFFCURVE",
"224 648 CURVE SMOOTH",
"205 648 OFFCURVE",
"187 663 OFFCURVE",
"187 696 CURVE SMOOTH",
"187 724 OFFCURVE",
"205 743 OFFCURVE"
);
},
{
closed = 1;
nodes = (
"139 515 CURVE SMOOTH",
"139 6 LINE SMOOTH",
"139 -5 OFFCURVE",
"130 -14 OFFCURVE",
"119 -14 CURVE SMOOTH",
"108 -14 OFFCURVE",
"99 -5 OFFCURVE",
"99 6 CURVE SMOOTH",
"99 515 LINE SMOOTH",
"99 526 OFFCURVE",
"108 535 OFFCURVE",
"119 535 CURVE SMOOTH",
"130 535 OFFCURVE",
"139 526 OFFCURVE"
);
}
);
width = 239;
},
{
layerId = "A309AC34-D742-49E2-8DE7-30304959F2B2";
name = Bold;
paths = (
{
closed = 1;
nodes = (
"27 767 CURVE SMOOTH",
"53 767 OFFCURVE",
"93 746 OFFCURVE",
"93 696 CURVE SMOOTH",
"93 638 OFFCURVE",
"53 624 OFFCURVE",
"27 624 CURVE SMOOTH",
"-4 624 OFFCURVE",
"-41 642 OFFCURVE",
"-41 696 CURVE SMOOTH",
"-41 743 OFFCURVE",
"-5 767 OFFCURVE"
);
},
{
closed = 1;
nodes = (
"229 767 CURVE SMOOTH",
"258 767 OFFCURVE",
"295 746 OFFCURVE",
"295 696 CURVE SMOOTH",
"295 638 OFFCURVE",
"257 624 OFFCURVE",
"229 624 CURVE SMOOTH",
"201 624 OFFCURVE",
"163 638 OFFCURVE",
"163 696 CURVE SMOOTH",
"163 746 OFFCURVE",
"200 767 OFFCURVE"
);
},
{
closed = 1;
nodes = (
"173 515 CURVE SMOOTH",
"173 6 LINE SMOOTH",
"173 -18 OFFCURVE",
"148 -38 OFFCURVE",
"124 -38 CURVE SMOOTH",
"100 -38 OFFCURVE",
"75 -18 OFFCURVE",
"75 6 CURVE SMOOTH",
"75 515 LINE SMOOTH",
"75 539 OFFCURVE",
"100 559 OFFCURVE",
"124 559 CURVE SMOOTH",
"148 559 OFFCURVE",
"173 539 OFFCURVE"
);
}
);
width = 249;
}
);
unicode = 00CF;
userData = {
com.typemytype.robofont.layerData = {
mask = {
anchors = (
);
components = (
);
contours = (
);
lib = {
};
name = Idieresis;
unicodes = (
);
width = 239;
};
wire = {
anchors = (
);
components = (
);
contours = (
);
lib = {
};
name = Idieresis;
unicodes = (
);
width = 239;
};
};
};
},
{
glyphname = Idotaccent;
lastChange = "2016-03-19 06:19:05 +0000";
layers = (
{
layerId = "F2EBC5D5-DDE2-4851-B52F-F2293ECE9CC7";
name = Light;
paths = (
{
closed = 1;
nodes = (
"108 535 OFFCURVE",
"99 526 OFFCURVE",
"99 515 CURVE SMOOTH",
"99 6 LINE SMOOTH",
"99 -5 OFFCURVE",
"108 -14 OFFCURVE",
"119 -14 CURVE SMOOTH",
"130 -14 OFFCURVE",
"139 -5 OFFCURVE",
"139 6 CURVE SMOOTH",
"139 515 LINE SMOOTH",
"139 526 OFFCURVE",
"130 535 OFFCURVE",
"119 535 CURVE SMOOTH"
);
},
{
closed = 1;
nodes = (
"98 752 OFFCURVE",
"78 732 OFFCURVE",
"78 703 CURVE SMOOTH",
"78 676 OFFCURVE",
"97 657 OFFCURVE",
"120 657 CURVE SMOOTH",
"141 657 OFFCURVE",
"159 674 OFFCURVE",
"159 703 CURVE SMOOTH",
"159 734 OFFCURVE",
"140 752 OFFCURVE",
"120 752 CURVE SMOOTH"
);
}
);
width = 239;
},
{
layerId = "A309AC34-D742-49E2-8DE7-30304959F2B2";
name = Bold;
paths = (
{
closed = 1;
nodes = (
"100 559 OFFCURVE",
"75 539 OFFCURVE",
"75 515 CURVE SMOOTH",
"75 6 LINE SMOOTH",
"75 -18 OFFCURVE",
"100 -38 OFFCURVE",
"124 -38 CURVE SMOOTH",
"148 -38 OFFCURVE",
"173 -18 OFFCURVE",
"173 6 CURVE SMOOTH",
"173 515 LINE SMOOTH",
"173 539 OFFCURVE",
"148 559 OFFCURVE",
"124 559 CURVE SMOOTH"
);
},
{
closed = 1;
nodes = (
"92 776 OFFCURVE",
"54 751 OFFCURVE",
"54 703 CURVE",
"54 658 OFFCURVE",
"90 633 OFFCURVE",
"125 633 CURVE SMOOTH",
"157 633 OFFCURVE",
"193 653 OFFCURVE",
"193 703 CURVE SMOOTH",
"193 757 OFFCURVE",
"155 776 OFFCURVE",
"125 776 CURVE SMOOTH"
);
}
);
width = 249;
}
);
unicode = 0130;
userData = {
com.typemytype.robofont.layerData = {
mask = {
anchors = (
);
components = (
);
contours = (
);
lib = {
};
name = Idotaccent;
unicodes = (
);
width = 239;
};
wire = {
anchors = (
);
components = (
);
contours = (
);
lib = {
};
name = Idotaccent;
unicodes = (
);
width = 239;
};
};
};
},
{
glyphname = Igrave;
lastChange = "2016-03-19 06:03:29 +0000";
layers = (
{
layerId = "F2EBC5D5-DDE2-4851-B52F-F2293ECE9CC7";
name = Light;
paths = (
{
closed = 1;
nodes = (
"139 515 CURVE SMOOTH",
"139 5 LINE SMOOTH",
"139 -6 OFFCURVE",
"130 -15 OFFCURVE",
"119 -15 CURVE SMOOTH",
"108 -15 OFFCURVE",
"99 -6 OFFCURVE",
"99 5 CURVE SMOOTH",
"99 515 LINE SMOOTH",
"99 526 OFFCURVE",
"108 535 OFFCURVE",
"119 535 CURVE SMOOTH",
"130 535 OFFCURVE",
"139 526 OFFCURVE"
);
},
{
closed = 1;
nodes = (
"13 762 CURVE SMOOTH",
"51 740 OFFCURVE",
"108 697 OFFCURVE",
"137 675 CURVE SMOOTH",
"146 668 OFFCURVE",
"147 656 OFFCURVE",
"141 647 CURVE SMOOTH",
"134 638 OFFCURVE",
"122 637 OFFCURVE",
"113 643 CURVE SMOOTH",
"84 665 OFFCURVE",
"31 706 OFFCURVE",
"-7 726 CURVE SMOOTH",
"-16 732 OFFCURVE",
"-20 744 OFFCURVE",
"-15 754 CURVE SMOOTH",
"-9 763 OFFCURVE",
"3 767 OFFCURVE"
);
}
);
width = 239;
},
{
layerId = "A309AC34-D742-49E2-8DE7-30304959F2B2";
name = Bold;
paths = (
{
closed = 1;
nodes = (
"173 515 CURVE SMOOTH",
"173 5 LINE SMOOTH",
"173 -19 OFFCURVE",
"148 -39 OFFCURVE",
"124 -39 CURVE SMOOTH",
"100 -39 OFFCURVE",
"75 -19 OFFCURVE",
"75 5 CURVE SMOOTH",
"75 515 LINE SMOOTH",
"75 539 OFFCURVE",
"100 559 OFFCURVE",
"124 559 CURVE SMOOTH",
"148 559 OFFCURVE",
"173 539 OFFCURVE"
);
},
{
closed = 1;
nodes = (
"29 783 CURVE SMOOTH",
"69 761 OFFCURVE",
"127 717 OFFCURVE",
"157 694 CURVE SMOOTH",
"176 680 OFFCURVE",
"179 651 OFFCURVE",
"165 632 CURVE SMOOTH",
"151 613 OFFCURVE",
"122 609 OFFCURVE",
"103 624 CURVE SMOOTH",
"75 645 OFFCURVE",
"23 685 OFFCURVE",
"-13 705 CURVE SMOOTH",
"-34 717 OFFCURVE",
"-42 744 OFFCURVE",
"-31 765 CURVE SMOOTH",
"-19 786 OFFCURVE",
"9 794 OFFCURVE"
);
}
);
width = 249;
}
);
unicode = 00CC;
userData = {
com.typemytype.robofont.layerData = {
mask = {
anchors = (
);
components = (
);
contours = (
);
lib = {
};
name = Igrave;
unicodes = (
);
width = 239;
};
wire = {
anchors = (
);
components = (
);
contours = (
);
lib = {
};
name = Igrave;
unicodes = (
);
width = 239;
};
};
};
},
{
glyphname = Imacron;
lastChange = "2016-03-19 06:03:29 +0000";
layers = (
{
layerId = "F2EBC5D5-DDE2-4851-B52F-F2293ECE9CC7";
name = Light;
paths = (
{
closed = 1;
nodes = (
"139 516 CURVE SMOOTH",
"139 6 LINE SMOOTH",
"139 -5 OFFCURVE",
"130 -14 OFFCURVE",
"119 -14 CURVE SMOOTH",
"108 -14 OFFCURVE",
"99 -5 OFFCURVE",
"99 6 CURVE SMOOTH",
"99 516 LINE SMOOTH",
"99 527 OFFCURVE",
"108 536 OFFCURVE",
"119 536 CURVE SMOOTH",
"130 536 OFFCURVE",
"139 527 OFFCURVE"
);
},
{
closed = 1;
nodes = (
"217 681 CURVE SMOOTH",
"23 681 LINE SMOOTH",
"12 681 OFFCURVE",
"3 690 OFFCURVE",
"3 701 CURVE SMOOTH",
"3 712 OFFCURVE",
"12 721 OFFCURVE",
"23 721 CURVE SMOOTH",
"217 721 LINE SMOOTH",
"228 721 OFFCURVE",
"237 712 OFFCURVE",
"237 701 CURVE SMOOTH",
"237 690 OFFCURVE",
"228 681 OFFCURVE"
);
}
);
width = 239;
},
{
layerId = "A309AC34-D742-49E2-8DE7-30304959F2B2";
name = Bold;
paths = (
{
closed = 1;
nodes = (
"173 516 CURVE SMOOTH",
"173 6 LINE SMOOTH",
"173 -18 OFFCURVE",
"148 -38 OFFCURVE",
"124 -38 CURVE SMOOTH",
"100 -38 OFFCURVE",
"75 -18 OFFCURVE",
"75 6 CURVE SMOOTH",
"75 516 LINE SMOOTH",
"75 540 OFFCURVE",
"100 560 OFFCURVE",
"124 560 CURVE SMOOTH",
"148 560 OFFCURVE",
"173 540 OFFCURVE"
);
},
{
closed = 1;
nodes = (
"222 657 CURVE SMOOTH",
"28 657 LINE SMOOTH",
"4 657 OFFCURVE",
"-16 677 OFFCURVE",
"-16 701 CURVE SMOOTH",
"-16 725 OFFCURVE",
"4 745 OFFCURVE",
"28 745 CURVE SMOOTH",
"222 745 LINE SMOOTH",
"246 745 OFFCURVE",
"266 725 OFFCURVE",
"266 701 CURVE SMOOTH",
"266 677 OFFCURVE",
"246 657 OFFCURVE"
);
}
);
width = 249;
}
);
unicode = 012A;
userData = {
com.typemytype.robofont.layerData = {
mask = {
anchors = (
);
components = (
);
contours = (
);
lib = {
};
name = Imacron;
unicodes = (
);
width = 239;
};
wire = {
anchors = (
);
components = (
);
contours = (
);
lib = {
};
name = Imacron;
unicodes = (
);
width = 239;
};
};
};
},
{
glyphname = Iogonek;
lastChange = "2016-03-19 06:03:29 +0000";
layers = (
{
layerId = "F2EBC5D5-DDE2-4851-B52F-F2293ECE9CC7";
name = Light;
paths = (
{
closed = 1;
nodes = (
"139 526 CURVE SMOOTH",
"139 16 LINE SMOOTH",
"139 5 OFFCURVE",
"130 -4 OFFCURVE",
"119 -4 CURVE SMOOTH",
"108 -4 OFFCURVE",
"99 5 OFFCURVE",
"99 16 CURVE SMOOTH",
"99 526 LINE SMOOTH",
"99 537 OFFCURVE",
"108 546 OFFCURVE",
"119 546 CURVE SMOOTH",
"130 546 OFFCURVE",
"139 537 OFFCURVE"
);
},
{
closed = 1;
nodes = (
"139 16 CURVE SMOOTH",
"139 -20 LINE SMOOTH",
"139 -25 OFFCURVE",
"136 -32 OFFCURVE",
"132 -35 CURVE SMOOTH",
"52 -101 OFFCURVE",
"31 -126 OFFCURVE",
"31 -152 CURVE",
"31 -182 OFFCURVE",
"79 -195 OFFCURVE",
"135 -195 CURVE SMOOTH",
"146 -195 OFFCURVE",
"155 -204 OFFCURVE",
"155 -215 CURVE SMOOTH",
"155 -226 OFFCURVE",
"146 -235 OFFCURVE",
"135 -235 CURVE SMOOTH",
"27 -235 OFFCURVE",
"-9 -194 OFFCURVE",
"-9 -152 CURVE SMOOTH",
"-9 -120 OFFCURVE",
"6 -87 OFFCURVE",
"106 -5 CURVE",
"99 -20 LINE",
"99 16 LINE SMOOTH",
"99 27 OFFCURVE",
"108 36 OFFCURVE",
"119 36 CURVE SMOOTH",
"130 36 OFFCURVE",
"139 27 OFFCURVE"
);
}
);
width = 239;
},
{
layerId = "A309AC34-D742-49E2-8DE7-30304959F2B2";
name = Bold;
paths = (
{
closed = 1;
nodes = (
"173 526 CURVE SMOOTH",
"173 16 LINE SMOOTH",
"173 -8 OFFCURVE",
"148 -28 OFFCURVE",
"124 -28 CURVE SMOOTH",
"100 -28 OFFCURVE",
"75 -8 OFFCURVE",
"75 16 CURVE SMOOTH",
"75 526 LINE SMOOTH",
"75 550 OFFCURVE",
"100 570 OFFCURVE",
"124 570 CURVE SMOOTH",
"148 570 OFFCURVE",
"173 550 OFFCURVE"
);
},
{
closed = 1;
nodes = (
"173 17 CURVE SMOOTH",
"173 -19 LINE SMOOTH",
"173 -30 OFFCURVE",
"166 -45 OFFCURVE",
"157 -52 CURVE SMOOTH",
"90 -108 OFFCURVE",
"65 -128 OFFCURVE",
"65 -151 CURVE SMOOTH",
"65 -175 OFFCURVE",
"120 -171 OFFCURVE",
"146 -171 CURVE SMOOTH",
"169 -171 OFFCURVE",
"189 -191 OFFCURVE",
"189 -214 CURVE SMOOTH",
"189 -237 OFFCURVE",
"169 -257 OFFCURVE",
"146 -257 CURVE SMOOTH",
"8 -257 OFFCURVE",
"-21 -199 OFFCURVE",
"-21 -151 CURVE SMOOTH",
"-21 -116 OFFCURVE",
"-10 -78 OFFCURVE",
"103 14 CURVE",
"75 -19 LINE",
"75 17 LINE SMOOTH",
"75 40 OFFCURVE",
"107 60 OFFCURVE",
"130 60 CURVE SMOOTH",
"153 60 OFFCURVE",
"173 40 OFFCURVE"
);
}
);
width = 249;
}
);
unicode = 012E;
userData = {
com.typemytype.robofont.layerData = {
mask = {
anchors = (
);
components = (
);
contours = (
);
lib = {
};
name = Iogonek;
unicodes = (
);
width = 239;
};
wire = {
anchors = (
);
components = (
);
contours = (
);
lib = {
};
name = Iogonek;
unicodes = (
);
width = 239;
};
};
};
},
{
glyphname = J;
lastChange = "2016-03-19 06:03:29 +0000";
layers = (
{
layerId = "F2EBC5D5-DDE2-4851-B52F-F2293ECE9CC7";
name = Light;
paths = (
{
closed = 1;
nodes = (
"68 40 CURVE SMOOTH",
"96 27 OFFCURVE",
"125 22 OFFCURVE",
"153 22 CURVE SMOOTH",
"225 22 OFFCURVE",
"257 72 OFFCURVE",
"257 160 CURVE SMOOTH",
"257 520 LINE SMOOTH",
"257 531 OFFCURVE",
"266 540 OFFCURVE",
"277 540 CURVE SMOOTH",
"288 540 OFFCURVE",
"297 531 OFFCURVE",
"297 520 CURVE SMOOTH",
"297 160 LINE SMOOTH",
"297 38 OFFCURVE",
"245 -18 OFFCURVE",
"153 -18 CURVE SMOOTH",
"119 -18 OFFCURVE",
"84 -11 OFFCURVE",
"52 4 CURVE SMOOTH",
"42 8 OFFCURVE",
"37 21 OFFCURVE",
"42 30 CURVE SMOOTH",
"46 40 OFFCURVE",
"59 45 OFFCURVE"
);
}
);
width = 378;
},
{
layerId = "A309AC34-D742-49E2-8DE7-30304959F2B2";
name = Bold;
paths = (
{
closed = 1;
nodes = (
"84 62 CURVE SMOOTH",
"108 51 OFFCURVE",
"133 46 OFFCURVE",
"158 46 CURVE SMOOTH",
"217 46 OFFCURVE",
"233 96 OFFCURVE",
"233 160 CURVE SMOOTH",
"233 520 LINE SMOOTH",
"233 544 OFFCURVE",
"258 564 OFFCURVE",
"282 564 CURVE SMOOTH",
"306 564 OFFCURVE",
"331 544 OFFCURVE",
"331 520 CURVE SMOOTH",
"331 160 LINE SMOOTH",
"331 14 OFFCURVE",
"263 -42 OFFCURVE",
"158 -42 CURVE SMOOTH",
"121 -42 OFFCURVE",
"82 -35 OFFCURVE",
"46 -18 CURVE SMOOTH",
"25 -8 OFFCURVE",
"15 19 OFFCURVE",
"25 41 CURVE SMOOTH",
"35 62 OFFCURVE",
"62 72 OFFCURVE"
);
}
);
width = 388;
}
);
unicode = 004A;
userData = {
com.typemytype.robofont.layerData = {
mask = {
anchors = (
);
components = (
);
contours = (
);
lib = {
};
name = J;
unicodes = (
);
width = 378;
};
wire = {
anchors = (
);
components = (
);
contours = (
);
lib = {
};
name = J;
unicodes = (
);
width = 378;
};
};
};
},
{
glyphname = K;
lastChange = "2016-03-19 06:03:29 +0000";
layers = (
{
layerId = "F2EBC5D5-DDE2-4851-B52F-F2293ECE9CC7";
name = Light;
paths = (
{
closed = 1;
nodes = (
"134 520 CURVE SMOOTH",
"134 11 LINE SMOOTH",
"134 0 OFFCURVE",
"125 -9 OFFCURVE",
"114 -9 CURVE SMOOTH",
"103 -9 OFFCURVE",
"94 0 OFFCURVE",
"94 11 CURVE SMOOTH",
"94 520 LINE SMOOTH",
"94 531 OFFCURVE",
"103 540 OFFCURVE",
"114 540 CURVE SMOOTH",
"125 540 OFFCURVE",
"134 531 OFFCURVE"
);
},
{
closed = 1;
nodes = (
"259 316 CURVE SMOOTH",
"319 243 OFFCURVE",
"445 90 OFFCURVE",
"503 24 CURVE SMOOTH",
"510 16 OFFCURVE",
"509 3 OFFCURVE",
"501 -4 CURVE SMOOTH",
"493 -11 OFFCURVE",
"480 -10 OFFCURVE",
"473 -2 CURVE SMOOTH",
"415 64 OFFCURVE",
"289 217 OFFCURVE",
"229 290 CURVE SMOOTH",
"222 299 OFFCURVE",
"223 312 OFFCURVE",
"231 318 CURVE SMOOTH",
"240 325 OFFCURVE",
"253 324 OFFCURVE"
);
},
{
closed = 1;
nodes = (
"101 202 CURVE SMOOTH",
"151 248 OFFCURVE",
"348 424 OFFCURVE",
"453 534 CURVE SMOOTH",
"460 542 OFFCURVE",
"473 542 OFFCURVE",
"481 534 CURVE SMOOTH",
"489 527 OFFCURVE",
"489 514 OFFCURVE",
"481 506 CURVE SMOOTH",
"376 396 OFFCURVE",
"179 218 OFFCURVE",
"127 172 CURVE SMOOTH",
"119 165 OFFCURVE",
"106 166 OFFCURVE",
"99 174 CURVE SMOOTH",
"92 182 OFFCURVE",
"93 195 OFFCURVE"
);
}
);
width = 555;
},
{
layerId = "A309AC34-D742-49E2-8DE7-30304959F2B2";
name = Bold;
paths = (
{
closed = 1;
nodes = (
"168 520 CURVE SMOOTH",
"168 11 LINE SMOOTH",
"168 -13 OFFCURVE",
"143 -33 OFFCURVE",
"119 -33 CURVE SMOOTH",
"95 -33 OFFCURVE",
"70 -13 OFFCURVE",
"70 11 CURVE SMOOTH",
"70 520 LINE SMOOTH",
"70 544 OFFCURVE",
"95 564 OFFCURVE",
"119 564 CURVE SMOOTH",
"143 564 OFFCURVE",
"168 544 OFFCURVE"
);
},
{
closed = 1;
nodes = (
"284 332 CURVE SMOOTH",
"344 259 OFFCURVE",
"469 107 OFFCURVE",
"527 41 CURVE SMOOTH",
"543 23 OFFCURVE",
"540 -6 OFFCURVE",
"522 -22 CURVE SMOOTH",
"504 -38 OFFCURVE",
"475 -37 OFFCURVE",
"459 -19 CURVE SMOOTH",
"401 47 OFFCURVE",
"274 201 OFFCURVE",
"214 274 CURVE SMOOTH",
"199 293 OFFCURVE",
"203 322 OFFCURVE",
"221 337 CURVE SMOOTH",
"239 352 OFFCURVE",
"269 350 OFFCURVE"
);
},
{
closed = 1;
nodes = (
"89 220 CURVE SMOOTH",
"140 266 OFFCURVE",
"335 442 OFFCURVE",
"439 551 CURVE SMOOTH",
"456 568 OFFCURVE",
"485 568 OFFCURVE",
"502 552 CURVE SMOOTH",
"520 535 OFFCURVE",
"521 506 OFFCURVE",
"505 489 CURVE SMOOTH",
"399 378 OFFCURVE",
"200 200 OFFCURVE",
"149 154 CURVE SMOOTH",
"131 138 OFFCURVE",
"102 140 OFFCURVE",
"86 158 CURVE SMOOTH",
"70 175 OFFCURVE",
"71 204 OFFCURVE"
);
}
);
width = 565;
}
);
rightKerningGroup = K;
unicode = 004B;
userData = {
com.typemytype.robofont.guides = (
{
angle = 0;
isGlobal = 0;
magnetic = 5;
x = 277;
y = 570;
}
);
com.typemytype.robofont.layerData = {
mask = {
anchors = (
);
components = (
);
contours = (
);
lib = {
};
name = K;
unicodes = (
);
width = 555;
};
wire = {
anchors = (
);
components = (
);
contours = (
);
lib = {
};
name = K;
unicodes = (
);
width = 555;
};
};
};
},
{
glyphname = L;
lastChange = "2016-03-19 06:03:29 +0000";
layers = (
{
layerId = "F2EBC5D5-DDE2-4851-B52F-F2293ECE9CC7";
name = Light;
paths = (
{
closed = 1;
nodes = (
"134 520 CURVE SMOOTH",
"134 11 LINE SMOOTH",
"134 0 OFFCURVE",
"125 -9 OFFCURVE",
"114 -9 CURVE SMOOTH",
"103 -9 OFFCURVE",
"94 0 OFFCURVE",
"94 11 CURVE SMOOTH",
"94 520 LINE SMOOTH",
"94 531 OFFCURVE",
"103 540 OFFCURVE",
"114 540 CURVE SMOOTH",
"125 540 OFFCURVE",
"134 531 OFFCURVE"
);
},
{
closed = 1;
nodes = (
"123 31 CURVE SMOOTH",
"399 31 LINE SMOOTH",
"410 31 OFFCURVE",
"419 22 OFFCURVE",
"419 11 CURVE SMOOTH",
"419 0 OFFCURVE",
"410 -9 OFFCURVE",
"399 -9 CURVE SMOOTH",
"123 -9 LINE SMOOTH",
"112 -9 OFFCURVE",
"103 0 OFFCURVE",
"103 11 CURVE SMOOTH",
"103 22 OFFCURVE",
"112 31 OFFCURVE"
);
}
);
width = 452;
},
{
layerId = "A309AC34-D742-49E2-8DE7-30304959F2B2";
name = Bold;
paths = (
{
closed = 1;
nodes = (
"168 520 CURVE SMOOTH",
"168 11 LINE SMOOTH",
"168 -13 OFFCURVE",
"143 -33 OFFCURVE",
"119 -33 CURVE SMOOTH",
"95 -33 OFFCURVE",
"70 -13 OFFCURVE",
"70 11 CURVE SMOOTH",
"70 520 LINE SMOOTH",
"70 544 OFFCURVE",
"95 564 OFFCURVE",
"119 564 CURVE SMOOTH",
"143 564 OFFCURVE",
"168 544 OFFCURVE"
);
},
{
closed = 1;
nodes = (
"128 55 CURVE SMOOTH",
"404 55 LINE SMOOTH",
"428 55 OFFCURVE",
"448 35 OFFCURVE",
"448 11 CURVE SMOOTH",
"448 -13 OFFCURVE",
"428 -33 OFFCURVE",
"404 -33 CURVE SMOOTH",
"128 -33 LINE SMOOTH",
"104 -33 OFFCURVE",
"84 -13 OFFCURVE",
"84 11 CURVE SMOOTH",
"84 35 OFFCURVE",
"104 55 OFFCURVE"
);
}
);
width = 462;
}
);
rightKerningGroup = L;
unicode = 004C;
userData = {
com.typemytype.robofont.guides = (
{
angle = 0;
isGlobal = 0;
magnetic = 5;
x = 277;
y = 570;
}
);
com.typemytype.robofont.layerData = {
mask = {
anchors = (
);
components = (
);
contours = (
);
lib = {
};
name = L;
unicodes = (
);
width = 452;
};
wire = {
anchors = (
);
components = (
);
contours = (
);
lib = {
};
name = L;
unicodes = (
);
width = 452;
};
};
};
},
{
glyphname = Lacute;
lastChange = "2016-03-19 06:03:29 +0000";
layers = (
{
layerId = "F2EBC5D5-DDE2-4851-B52F-F2293ECE9CC7";
name = Light;
paths = (
{
closed = 1;
nodes = (
"134 515 CURVE SMOOTH",
"134 6 LINE SMOOTH",
"134 -5 OFFCURVE",
"125 -14 OFFCURVE",
"114 -14 CURVE SMOOTH",
"103 -14 OFFCURVE",
"94 -5 OFFCURVE",
"94 6 CURVE SMOOTH",
"94 515 LINE SMOOTH",
"94 526 OFFCURVE",
"103 535 OFFCURVE",
"114 535 CURVE SMOOTH",
"125 535 OFFCURVE",
"134 526 OFFCURVE"
);
},
{
closed = 1;
nodes = (
"123 26 CURVE SMOOTH",
"399 26 LINE SMOOTH",
"410 26 OFFCURVE",
"419 17 OFFCURVE",
"419 6 CURVE SMOOTH",
"419 -5 OFFCURVE",
"410 -14 OFFCURVE",
"399 -14 CURVE SMOOTH",
"123 -14 LINE SMOOTH",
"112 -14 OFFCURVE",
"103 -5 OFFCURVE",
"103 6 CURVE SMOOTH",
"103 17 OFFCURVE",
"112 26 OFFCURVE"
);
},
{
closed = 1;
nodes = (
"361 715 CURVE SMOOTH",
"314 687 OFFCURVE",
"264 654 OFFCURVE",
"234 633 CURVE SMOOTH",
"225 626 OFFCURVE",
"212 629 OFFCURVE",
"206 637 CURVE SMOOTH",
"199 646 OFFCURVE",
"202 659 OFFCURVE",
"210 665 CURVE SMOOTH",
"242 688 OFFCURVE",
"292 721 OFFCURVE",
"341 749 CURVE SMOOTH",
"350 755 OFFCURVE",
"363 751 OFFCURVE",
"368 742 CURVE SMOOTH",
"374 733 OFFCURVE",
"370 720 OFFCURVE"
);
}
);
width = 452;
},
{
layerId = "A309AC34-D742-49E2-8DE7-30304959F2B2";
name = Bold;
paths = (
{
closed = 1;
nodes = (
"168 515 CURVE SMOOTH",
"168 6 LINE SMOOTH",
"168 -18 OFFCURVE",
"143 -38 OFFCURVE",
"119 -38 CURVE SMOOTH",
"95 -38 OFFCURVE",
"70 -18 OFFCURVE",
"70 6 CURVE SMOOTH",
"70 515 LINE SMOOTH",
"70 539 OFFCURVE",
"95 559 OFFCURVE",
"119 559 CURVE SMOOTH",
"143 559 OFFCURVE",
"168 539 OFFCURVE"
);
},
{
closed = 1;
nodes = (
"128 50 CURVE SMOOTH",
"404 50 LINE SMOOTH",
"428 50 OFFCURVE",
"448 30 OFFCURVE",
"448 6 CURVE SMOOTH",
"448 -18 OFFCURVE",
"428 -38 OFFCURVE",
"404 -38 CURVE SMOOTH",
"128 -38 LINE SMOOTH",
"104 -38 OFFCURVE",
"84 -18 OFFCURVE",
"84 6 CURVE SMOOTH",
"84 30 OFFCURVE",
"104 50 OFFCURVE"
);
},
{
closed = 1;
nodes = (
"378 694 CURVE SMOOTH",
"331 667 OFFCURVE",
"283 634 OFFCURVE",
"253 613 CURVE SMOOTH",
"233 599 OFFCURVE",
"205 604 OFFCURVE",
"191 624 CURVE SMOOTH",
"177 643 OFFCURVE",
"182 671 OFFCURVE",
"201 685 CURVE SMOOTH",
"233 708 OFFCURVE",
"285 741 OFFCURVE",
"334 770 CURVE SMOOTH",
"354 782 OFFCURVE",
"382 775 OFFCURVE",
"394 754 CURVE SMOOTH",
"406 734 OFFCURVE",
"399 706 OFFCURVE"
);
}
);
width = 462;
}
);
rightKerningGroup = L;
unicode = 0139;
userData = {
com.typemytype.robofont.layerData = {
mask = {
anchors = (
);
components = (
);
contours = (
);
lib = {
};
name = Lacute;
unicodes = (
);
width = 452;
};
wire = {
anchors = (
);
components = (
);
contours = (
);
lib = {
};
name = Lacute;
unicodes = (
);
width = 452;
};
};
};
},
{
glyphname = Lcaron;
lastChange = "2016-03-19 06:03:29 +0000";
layers = (
{
layerId = "F2EBC5D5-DDE2-4851-B52F-F2293ECE9CC7";
name = Light;
paths = (
{
closed = 1;
nodes = (
"342 530 CURVE SMOOTH",
"321 385 LINE SMOOTH",
"319 374 OFFCURVE",
"309 367 OFFCURVE",
"298 368 CURVE SMOOTH",
"287 370 OFFCURVE",
"280 380 OFFCURVE",
"281 391 CURVE SMOOTH",
"302 536 LINE SMOOTH",
"304 547 OFFCURVE",
"314 554 OFFCURVE",
"325 553 CURVE SMOOTH",
"336 551 OFFCURVE",
"343 541 OFFCURVE"
);
},
{
closed = 1;
nodes = (
"134 520 CURVE SMOOTH",
"134 11 LINE SMOOTH",
"134 0 OFFCURVE",
"125 -9 OFFCURVE",
"114 -9 CURVE SMOOTH",
"103 -9 OFFCURVE",
"94 0 OFFCURVE",
"94 11 CURVE SMOOTH",
"94 520 LINE SMOOTH",
"94 531 OFFCURVE",
"103 540 OFFCURVE",
"114 540 CURVE SMOOTH",
"125 540 OFFCURVE",
"134 531 OFFCURVE"
);
},
{
closed = 1;
nodes = (
"123 31 CURVE SMOOTH",
"399 31 LINE SMOOTH",
"410 31 OFFCURVE",
"419 22 OFFCURVE",
"419 11 CURVE SMOOTH",
"419 0 OFFCURVE",
"410 -9 OFFCURVE",
"399 -9 CURVE SMOOTH",
"123 -9 LINE SMOOTH",
"112 -9 OFFCURVE",
"103 0 OFFCURVE",
"103 11 CURVE SMOOTH",
"103 22 OFFCURVE",
"112 31 OFFCURVE"
);
}
);
width = 452;
},
{
layerId = "A309AC34-D742-49E2-8DE7-30304959F2B2";
name = Bold;
paths = (
{
closed = 1;
nodes = (
"375 526 CURVE SMOOTH",
"354 381 LINE SMOOTH",
"351 357 OFFCURVE",
"323 341 OFFCURVE",
"300 344 CURVE SMOOTH",
"276 348 OFFCURVE",
"254 371 OFFCURVE",
"258 395 CURVE SMOOTH",
"279 540 LINE SMOOTH",
"282 564 OFFCURVE",
"310 580 OFFCURVE",
"333 577 CURVE SMOOTH",
"357 573 OFFCURVE",
"379 550 OFFCURVE"
);
},
{
closed = 1;
nodes = (
"168 520 CURVE SMOOTH",
"168 11 LINE SMOOTH",
"168 -13 OFFCURVE",
"143 -33 OFFCURVE",
"119 -33 CURVE SMOOTH",
"95 -33 OFFCURVE",
"70 -13 OFFCURVE",
"70 11 CURVE SMOOTH",
"70 520 LINE SMOOTH",
"70 544 OFFCURVE",
"95 564 OFFCURVE",
"119 564 CURVE SMOOTH",
"143 564 OFFCURVE",
"168 544 OFFCURVE"
);
},
{
closed = 1;
nodes = (
"128 55 CURVE SMOOTH",
"404 55 LINE SMOOTH",
"428 55 OFFCURVE",
"448 35 OFFCURVE",
"448 11 CURVE SMOOTH",
"448 -13 OFFCURVE",
"428 -33 OFFCURVE",
"404 -33 CURVE SMOOTH",
"128 -33 LINE SMOOTH",
"104 -33 OFFCURVE",
"84 -13 OFFCURVE",
"84 11 CURVE SMOOTH",
"84 35 OFFCURVE",
"104 55 OFFCURVE"
);
}
);
width = 462;
}
);
rightKerningGroup = L;
unicode = 013D;
userData = {
com.typemytype.robofont.layerData = {
mask = {
anchors = (
);
components = (
);
contours = (
);
lib = {
};
name = Lcaron;
unicodes = (
);
width = 452;
};
wire = {
anchors = (
);
components = (
);
contours = (
);
lib = {
};
name = Lcaron;
unicodes = (
);
width = 452;
};
};
};
},
{
glyphname = Lslash;
lastChange = "2016-03-19 06:03:29 +0000";
layers = (
{
layerId = "F2EBC5D5-DDE2-4851-B52F-F2293ECE9CC7";
name = Light;
paths = (
{
closed = 1;
nodes = (
"287 332 CURVE SMOOTH",
"61 183 LINE SMOOTH",
"52 177 OFFCURVE",
"39 180 OFFCURVE",
"33 189 CURVE SMOOTH",
"27 198 OFFCURVE",
"30 211 OFFCURVE",
"39 217 CURVE SMOOTH",
"265 366 LINE SMOOTH",
"274 372 OFFCURVE",
"287 369 OFFCURVE",
"293 360 CURVE SMOOTH",
"299 351 OFFCURVE",
"296 338 OFFCURVE"
);
},
{
closed = 1;
nodes = (
"150 520 CURVE SMOOTH",
"150 11 LINE SMOOTH",
"150 0 OFFCURVE",
"141 -9 OFFCURVE",
"130 -9 CURVE SMOOTH",
"119 -9 OFFCURVE",
"110 0 OFFCURVE",
"110 11 CURVE SMOOTH",
"110 520 LINE SMOOTH",
"110 531 OFFCURVE",
"119 540 OFFCURVE",
"130 540 CURVE SMOOTH",
"141 540 OFFCURVE",
"150 531 OFFCURVE"
);
},
{
closed = 1;
nodes = (
"138 31 CURVE SMOOTH",
"414 31 LINE SMOOTH",
"425 31 OFFCURVE",
"434 22 OFFCURVE",
"434 11 CURVE SMOOTH",
"434 0 OFFCURVE",
"425 -9 OFFCURVE",
"414 -9 CURVE SMOOTH",
"138 -9 LINE SMOOTH",
"127 -9 OFFCURVE",
"118 0 OFFCURVE",
"118 11 CURVE SMOOTH",
"118 22 OFFCURVE",
"127 31 OFFCURVE"
);
}
);
width = 468;
},
{
layerId = "A309AC34-D742-49E2-8DE7-30304959F2B2";
name = Bold;
paths = (
{
closed = 1;
nodes = (
"305 312 CURVE SMOOTH",
"79 163 LINE SMOOTH",
"60 150 OFFCURVE",
"31 156 OFFCURVE",
"18 176 CURVE SMOOTH",
"5 196 OFFCURVE",
"11 224 OFFCURVE",
"31 237 CURVE SMOOTH",
"257 386 LINE SMOOTH",
"276 399 OFFCURVE",
"305 393 OFFCURVE",
"318 373 CURVE SMOOTH",
"331 353 OFFCURVE",
"325 325 OFFCURVE"
);
},
{
closed = 1;
nodes = (
"184 520 CURVE SMOOTH",
"184 11 LINE SMOOTH",
"184 -13 OFFCURVE",
"159 -33 OFFCURVE",
"135 -33 CURVE SMOOTH",
"111 -33 OFFCURVE",
"86 -13 OFFCURVE",
"86 11 CURVE SMOOTH",
"86 520 LINE SMOOTH",
"86 544 OFFCURVE",
"111 564 OFFCURVE",
"135 564 CURVE SMOOTH",
"159 564 OFFCURVE",
"184 544 OFFCURVE"
);
},
{
closed = 1;
nodes = (
"143 55 CURVE SMOOTH",
"419 55 LINE SMOOTH",
"443 55 OFFCURVE",
"463 35 OFFCURVE",
"463 11 CURVE SMOOTH",
"463 -13 OFFCURVE",
"443 -33 OFFCURVE",
"419 -33 CURVE SMOOTH",
"143 -33 LINE SMOOTH",
"119 -33 OFFCURVE",
"99 -13 OFFCURVE",
"99 11 CURVE SMOOTH",
"99 35 OFFCURVE",
"119 55 OFFCURVE"
);
}
);
width = 478;
}
);
rightKerningGroup = L;
unicode = 0141;
userData = {
com.typemytype.robofont.layerData = {
mask = {
anchors = (
);
components = (
);
contours = (
);
lib = {
};
name = Lslash;
unicodes = (
);
width = 468;
};
wire = {
anchors = (
);
components = (
);
contours = (
);
lib = {
};
name = Lslash;
unicodes = (
);
width = 468;
};
};
};
},
{
glyphname = M;
lastChange = "2016-03-19 06:03:29 +0000";
layers = (
{
layerId = "F2EBC5D5-DDE2-4851-B52F-F2293ECE9CC7";
name = Light;
paths = (
{
closed = 1;
nodes = (
"187 526 CURVE SMOOTH",
"161 376 OFFCURVE",
"128 128 OFFCURVE",
"115 7 CURVE SMOOTH",
"114 -4 OFFCURVE",
"104 -12 OFFCURVE",
"93 -11 CURVE SMOOTH",
"82 -10 OFFCURVE",
"74 0 OFFCURVE",
"75 11 CURVE SMOOTH",
"88 132 OFFCURVE",
"121 382 OFFCURVE",
"147 532 CURVE SMOOTH",
"149 543 OFFCURVE",
"160 551 OFFCURVE",
"170 549 CURVE SMOOTH",
"181 547 OFFCURVE",
"189 536 OFFCURVE"
);
},
{
closed = 1;
nodes = (
"669 534 CURVE SMOOTH",
"701 370 OFFCURVE",
"736 152 OFFCURVE",
"755 12 CURVE SMOOTH",
"756 1 OFFCURVE",
"748 -9 OFFCURVE",
"738 -11 CURVE SMOOTH",
"727 -12 OFFCURVE",
"717 -4 OFFCURVE",
"715 6 CURVE SMOOTH",
"696 146 OFFCURVE",
"661 364 OFFCURVE",
"629 526 CURVE SMOOTH",
"627 537 OFFCURVE",
"635 548 OFFCURVE",
"645 550 CURVE SMOOTH",
"656 552 OFFCURVE",
"667 544 OFFCURVE"
);
},
{
closed = 1;
nodes = (
"197 525 CURVE SMOOTH",
"262 391 OFFCURVE",
"361 185 OFFCURVE",
"431 38 CURVE SMOOTH",
"436 28 OFFCURVE",
"431 16 OFFCURVE",
"422 11 CURVE SMOOTH",
"412 6 OFFCURVE",
"400 11 OFFCURVE",
"395 20 CURVE SMOOTH",
"325 167 OFFCURVE",
"226 373 OFFCURVE",
"161 507 CURVE SMOOTH",
"156 517 OFFCURVE",
"161 529 OFFCURVE",
"170 534 CURVE SMOOTH",
"180 539 OFFCURVE",
"192 534 OFFCURVE"
);
},
{
closed = 1;
nodes = (
"399 49 CURVE SMOOTH",
"462 192 OFFCURVE",
"546 378 OFFCURVE",
"623 531 CURVE SMOOTH",
"628 541 OFFCURVE",
"640 545 OFFCURVE",
"650 540 CURVE SMOOTH",
"660 535 OFFCURVE",
"664 523 OFFCURVE",
"659 513 CURVE SMOOTH",
"582 360 OFFCURVE",
"498 176 OFFCURVE",
"435 33 CURVE SMOOTH",
"431 23 OFFCURVE",
"419 18 OFFCURVE",
"409 23 CURVE SMOOTH",
"399 27 OFFCURVE",
"394 39 OFFCURVE"
);
}
);
width = 831;
},
{
layerId = "A309AC34-D742-49E2-8DE7-30304959F2B2";
name = Bold;
paths = (
{
closed = 1;
nodes = (
"220 521 CURVE SMOOTH",
"194 372 OFFCURVE",
"162 124 OFFCURVE",
"149 4 CURVE SMOOTH",
"146 -20 OFFCURVE",
"119 -37 OFFCURVE",
"95 -35 CURVE SMOOTH",
"72 -32 OFFCURVE",
"49 -9 OFFCURVE",
"51 14 CURVE SMOOTH",
"64 136 OFFCURVE",
"98 386 OFFCURVE",
"124 537 CURVE SMOOTH",
"128 561 OFFCURVE",
"156 576 OFFCURVE",
"180 572 CURVE SMOOTH",
"203 568 OFFCURVE",
"224 544 OFFCURVE"
);
},
{
closed = 1;
nodes = (
"702 539 CURVE SMOOTH",
"734 375 OFFCURVE",
"769 156 OFFCURVE",
"788 16 CURVE SMOOTH",
"792 -8 OFFCURVE",
"769 -31 OFFCURVE",
"746 -35 CURVE SMOOTH",
"722 -38 OFFCURVE",
"695 -21 OFFCURVE",
"692 2 CURVE SMOOTH",
"673 142 OFFCURVE",
"638 359 OFFCURVE",
"606 521 CURVE SMOOTH",
"602 544 OFFCURVE",
"622 569 OFFCURVE",
"646 573 CURVE SMOOTH",
"669 578 OFFCURVE",
"697 563 OFFCURVE"
);
},
{
closed = 1;
nodes = (
"226 536 CURVE SMOOTH",
"291 402 OFFCURVE",
"390 196 OFFCURVE",
"460 49 CURVE SMOOTH",
"471 28 OFFCURVE",
"458 -1 OFFCURVE",
"437 -11 CURVE SMOOTH",
"415 -21 OFFCURVE",
"386 -13 OFFCURVE",
"376 9 CURVE SMOOTH",
"306 156 OFFCURVE",
"207 362 OFFCURVE",
"142 496 CURVE SMOOTH",
"131 517 OFFCURVE",
"143 545 OFFCURVE",
"165 556 CURVE SMOOTH",
"186 566 OFFCURVE",
"216 558 OFFCURVE"
);
},
{
closed = 1;
nodes = (
"379 60 CURVE SMOOTH",
"442 204 OFFCURVE",
"527 389 OFFCURVE",
"604 543 CURVE SMOOTH",
"615 564 OFFCURVE",
"645 572 OFFCURVE",
"666 561 CURVE SMOOTH",
"687 551 OFFCURVE",
"699 522 OFFCURVE",
"688 501 CURVE SMOOTH",
"611 349 OFFCURVE",
"528 164 OFFCURVE",
"465 22 CURVE SMOOTH",
"456 0 OFFCURVE",
"426 -9 OFFCURVE",
"404 1 CURVE SMOOTH",
"383 10 OFFCURVE",
"369 38 OFFCURVE"
);
}
);
width = 841;
}
);
unicode = 004D;
userData = {
com.typemytype.robofont.guides = (
{
angle = 0;
isGlobal = 0;
magnetic = 5;
x = 277;
y = 570;
}
);
com.typemytype.robofont.layerData = {
mask = {
anchors = (
);
components = (
);
contours = (
);
lib = {
};
name = M;
unicodes = (
);
width = 831;
};
wire = {
anchors = (
);
components = (
);
contours = (
);
lib = {
};
name = M;
unicodes = (
);
width = 831;
};
};
};
},
{
glyphname = N;
lastChange = "2016-03-19 06:03:29 +0000";
layers = (
{
layerId = "F2EBC5D5-DDE2-4851-B52F-F2293ECE9CC7";
name = Light;
paths = (
{
closed = 1;
nodes = (
"134 520 CURVE SMOOTH",
"134 11 LINE SMOOTH",
"134 0 OFFCURVE",
"125 -9 OFFCURVE",
"114 -9 CURVE SMOOTH",
"103 -9 OFFCURVE",
"94 0 OFFCURVE",
"94 11 CURVE SMOOTH",
"94 520 LINE SMOOTH",
"94 531 OFFCURVE",
"103 540 OFFCURVE",
"114 540 CURVE SMOOTH",
"125 540 OFFCURVE",
"134 531 OFFCURVE"
);
},
{
closed = 1;
nodes = (
"543 520 CURVE SMOOTH",
"543 11 LINE SMOOTH",
"543 0 OFFCURVE",
"534 -9 OFFCURVE",
"523 -9 CURVE SMOOTH",
"512 -9 OFFCURVE",
"503 0 OFFCURVE",
"503 11 CURVE SMOOTH",
"503 520 LINE SMOOTH",
"503 531 OFFCURVE",
"512 540 OFFCURVE",
"523 540 CURVE SMOOTH",
"534 540 OFFCURVE",
"543 531 OFFCURVE"
);
},
{
closed = 1;
nodes = (
"136 532 CURVE SMOOTH",
"215 427 OFFCURVE",
"420 173 OFFCURVE",
"532 23 CURVE SMOOTH",
"538 14 OFFCURVE",
"537 1 OFFCURVE",
"528 -5 CURVE SMOOTH",
"519 -11 OFFCURVE",
"506 -10 OFFCURVE",
"500 -1 CURVE SMOOTH",
"388 149 OFFCURVE",
"183 403 OFFCURVE",
"104 508 CURVE SMOOTH",
"98 517 OFFCURVE",
"99 529 OFFCURVE",
"108 536 CURVE SMOOTH",
"117 542 OFFCURVE",
"129 541 OFFCURVE"
);
}
);
width = 637;
},
{
layerId = "A309AC34-D742-49E2-8DE7-30304959F2B2";
name = Bold;
paths = (
{
closed = 1;
nodes = (
"168 520 CURVE SMOOTH",
"168 11 LINE SMOOTH",
"168 -13 OFFCURVE",
"143 -33 OFFCURVE",
"119 -33 CURVE SMOOTH",
"95 -33 OFFCURVE",
"70 -13 OFFCURVE",
"70 11 CURVE SMOOTH",
"70 520 LINE SMOOTH",
"70 544 OFFCURVE",
"95 564 OFFCURVE",
"119 564 CURVE SMOOTH",
"143 564 OFFCURVE",
"168 544 OFFCURVE"
);
},
{
closed = 1;
nodes = (
"577 520 CURVE SMOOTH",
"577 11 LINE SMOOTH",
"577 -13 OFFCURVE",
"552 -33 OFFCURVE",
"528 -33 CURVE SMOOTH",
"504 -33 OFFCURVE",
"479 -13 OFFCURVE",
"479 11 CURVE SMOOTH",
"479 520 LINE SMOOTH",
"479 544 OFFCURVE",
"504 564 OFFCURVE",
"528 564 CURVE SMOOTH",
"552 564 OFFCURVE",
"577 544 OFFCURVE"
);
},
{
closed = 1;
nodes = (
"161 547 CURVE SMOOTH",
"240 442 OFFCURVE",
"446 188 OFFCURVE",
"558 38 CURVE SMOOTH",
"572 19 OFFCURVE",
"566 -10 OFFCURVE",
"547 -24 CURVE SMOOTH",
"528 -38 OFFCURVE",
"499 -35 OFFCURVE",
"484 -16 CURVE SMOOTH",
"372 134 OFFCURVE",
"168 388 OFFCURVE",
"89 493 CURVE SMOOTH",
"74 512 OFFCURVE",
"80 541 OFFCURVE",
"99 555 CURVE SMOOTH",
"118 569 OFFCURVE",
"147 566 OFFCURVE"
);
}
);
width = 647;
}
);
unicode = 004E;
userData = {
com.typemytype.robofont.guides = (
{
angle = 0;
isGlobal = 0;
magnetic = 5;
x = 277;
y = 570;
}
);
com.typemytype.robofont.layerData = {
mask = {
anchors = (
);
components = (
);
contours = (
);
lib = {
};
name = N;
unicodes = (
);
width = 637;
};
wire = {
anchors = (
);
components = (
);
contours = (
);
lib = {
};
name = N;
unicodes = (
);
width = 637;
};
};
};
},
{
glyphname = Nacute;
lastChange = "2016-03-19 06:03:29 +0000";
layers = (
{
layerId = "F2EBC5D5-DDE2-4851-B52F-F2293ECE9CC7";
name = Light;
paths = (
{
closed = 1;
nodes = (
"134 515 CURVE SMOOTH",
"134 6 LINE SMOOTH",
"134 -5 OFFCURVE",
"125 -14 OFFCURVE",
"114 -14 CURVE SMOOTH",
"103 -14 OFFCURVE",
"94 -5 OFFCURVE",
"94 6 CURVE SMOOTH",
"94 515 LINE SMOOTH",
"94 526 OFFCURVE",
"103 535 OFFCURVE",
"114 535 CURVE SMOOTH",
"125 535 OFFCURVE",
"134 526 OFFCURVE"
);
},
{
closed = 1;
nodes = (
"543 515 CURVE SMOOTH",
"543 6 LINE SMOOTH",
"543 -5 OFFCURVE",
"534 -14 OFFCURVE",
"523 -14 CURVE SMOOTH",
"512 -14 OFFCURVE",
"503 -5 OFFCURVE",
"503 6 CURVE SMOOTH",
"503 515 LINE SMOOTH",
"503 526 OFFCURVE",
"512 535 OFFCURVE",
"523 535 CURVE SMOOTH",
"534 535 OFFCURVE",
"543 526 OFFCURVE"
);
},
{
closed = 1;
nodes = (
"136 527 CURVE SMOOTH",
"215 422 OFFCURVE",
"420 168 OFFCURVE",
"532 18 CURVE SMOOTH",
"538 9 OFFCURVE",
"537 -4 OFFCURVE",
"528 -10 CURVE SMOOTH",
"519 -16 OFFCURVE",
"506 -15 OFFCURVE",
"500 -6 CURVE SMOOTH",
"388 144 OFFCURVE",
"183 398 OFFCURVE",
"104 503 CURVE SMOOTH",
"98 512 OFFCURVE",
"99 524 OFFCURVE",
"108 531 CURVE SMOOTH",
"117 537 OFFCURVE",
"129 536 OFFCURVE"
);
},
{
closed = 1;
nodes = (
"465 705 CURVE SMOOTH",
"418 677 OFFCURVE",
"368 644 OFFCURVE",
"338 623 CURVE SMOOTH",
"329 616 OFFCURVE",
"316 619 OFFCURVE",
"310 627 CURVE SMOOTH",
"303 636 OFFCURVE",
"306 649 OFFCURVE",
"314 655 CURVE SMOOTH",
"346 678 OFFCURVE",
"396 711 OFFCURVE",
"445 739 CURVE SMOOTH",
"454 745 OFFCURVE",
"467 741 OFFCURVE",
"472 732 CURVE SMOOTH",
"478 723 OFFCURVE",
"474 710 OFFCURVE"
);
}
);
width = 637;
},
{
layerId = "A309AC34-D742-49E2-8DE7-30304959F2B2";
name = Bold;
paths = (
{
closed = 1;
nodes = (
"168 515 CURVE SMOOTH",
"168 6 LINE SMOOTH",
"168 -18 OFFCURVE",
"143 -38 OFFCURVE",
"119 -38 CURVE SMOOTH",
"95 -38 OFFCURVE",
"70 -18 OFFCURVE",
"70 6 CURVE SMOOTH",
"70 515 LINE SMOOTH",
"70 539 OFFCURVE",
"95 559 OFFCURVE",
"119 559 CURVE SMOOTH",
"143 559 OFFCURVE",
"168 539 OFFCURVE"
);
},
{
closed = 1;
nodes = (
"577 515 CURVE SMOOTH",
"577 6 LINE SMOOTH",
"577 -18 OFFCURVE",
"552 -38 OFFCURVE",
"528 -38 CURVE SMOOTH",
"504 -38 OFFCURVE",
"479 -18 OFFCURVE",
"479 6 CURVE SMOOTH",
"479 515 LINE SMOOTH",
"479 539 OFFCURVE",
"504 559 OFFCURVE",
"528 559 CURVE SMOOTH",
"552 559 OFFCURVE",
"577 539 OFFCURVE"
);
},
{
closed = 1;
nodes = (
"161 542 CURVE SMOOTH",
"240 437 OFFCURVE",
"446 183 OFFCURVE",
"558 33 CURVE SMOOTH",
"572 14 OFFCURVE",
"566 -15 OFFCURVE",
"547 -29 CURVE SMOOTH",
"528 -43 OFFCURVE",
"499 -40 OFFCURVE",
"484 -21 CURVE SMOOTH",
"372 129 OFFCURVE",
"168 383 OFFCURVE",
"89 488 CURVE SMOOTH",
"74 507 OFFCURVE",
"80 536 OFFCURVE",
"99 550 CURVE SMOOTH",
"118 564 OFFCURVE",
"147 561 OFFCURVE"
);
},
{
closed = 1;
nodes = (
"482 684 CURVE SMOOTH",
"435 657 OFFCURVE",
"387 624 OFFCURVE",
"357 603 CURVE SMOOTH",
"337 589 OFFCURVE",
"309 594 OFFCURVE",
"295 614 CURVE SMOOTH",
"281 633 OFFCURVE",
"286 661 OFFCURVE",
"305 675 CURVE SMOOTH",
"337 698 OFFCURVE",
"389 731 OFFCURVE",
"438 760 CURVE SMOOTH",
"458 772 OFFCURVE",
"486 765 OFFCURVE",
"498 744 CURVE SMOOTH",
"510 724 OFFCURVE",
"503 696 OFFCURVE"
);
}
);
width = 647;
}
);
unicode = 0143;
userData = {
com.typemytype.robofont.layerData = {
mask = {
anchors = (
);
components = (
);
contours = (
);
lib = {
};
name = Nacute;
unicodes = (
);
width = 637;
};
wire = {
anchors = (
);
components = (
);
contours = (
);
lib = {
};
name = Nacute;
unicodes = (
);
width = 637;
};
};
};
},
{
glyphname = Ncaron;
lastChange = "2016-03-19 06:03:29 +0000";
layers = (
{
layerId = "F2EBC5D5-DDE2-4851-B52F-F2293ECE9CC7";
name = Light;
paths = (
{
closed = 1;
nodes = (
"134 515 CURVE SMOOTH",
"134 6 LINE SMOOTH",
"134 -5 OFFCURVE",
"125 -14 OFFCURVE",
"114 -14 CURVE SMOOTH",
"103 -14 OFFCURVE",
"94 -5 OFFCURVE",
"94 6 CURVE SMOOTH",
"94 515 LINE SMOOTH",
"94 526 OFFCURVE",
"103 535 OFFCURVE",
"114 535 CURVE SMOOTH",
"125 535 OFFCURVE",
"134 526 OFFCURVE"
);
},
{
closed = 1;
nodes = (
"543 515 CURVE SMOOTH",
"543 6 LINE SMOOTH",
"543 -5 OFFCURVE",
"534 -14 OFFCURVE",
"523 -14 CURVE SMOOTH",
"512 -14 OFFCURVE",
"503 -5 OFFCURVE",
"503 6 CURVE SMOOTH",
"503 515 LINE SMOOTH",
"503 526 OFFCURVE",
"512 535 OFFCURVE",
"523 535 CURVE SMOOTH",
"534 535 OFFCURVE",
"543 526 OFFCURVE"
);
},
{
closed = 1;
nodes = (
"136 527 CURVE SMOOTH",
"215 422 OFFCURVE",
"420 168 OFFCURVE",
"532 18 CURVE SMOOTH",
"538 9 OFFCURVE",
"537 -4 OFFCURVE",
"528 -10 CURVE SMOOTH",
"519 -16 OFFCURVE",
"506 -15 OFFCURVE",
"500 -6 CURVE SMOOTH",
"388 144 OFFCURVE",
"183 398 OFFCURVE",
"104 503 CURVE SMOOTH",
"98 512 OFFCURVE",
"99 524 OFFCURVE",
"108 531 CURVE SMOOTH",
"117 537 OFFCURVE",
"129 536 OFFCURVE"
);
},
{
closed = 1;
nodes = (
"307 664 CURVE SMOOTH",
"342 689 OFFCURVE",
"378 714 OFFCURVE",
"408 736 CURVE SMOOTH",
"417 743 OFFCURVE",
"430 741 OFFCURVE",
"436 732 CURVE SMOOTH",
"443 723 OFFCURVE",
"441 710 OFFCURVE",
"432 704 CURVE SMOOTH",
"402 682 OFFCURVE",
"366 657 OFFCURVE",
"331 632 CURVE SMOOTH",
"322 625 OFFCURVE",
"309 628 OFFCURVE",
"303 636 CURVE SMOOTH",
"296 645 OFFCURVE",
"299 658 OFFCURVE"
);
},
{
closed = 1;
nodes = (
"223 736 CURVE SMOOTH",
"252 714 OFFCURVE",
"288 689 OFFCURVE",
"323 664 CURVE SMOOTH",
"332 658 OFFCURVE",
"335 645 OFFCURVE",
"328 637 CURVE SMOOTH",
"322 628 OFFCURVE",
"309 625 OFFCURVE",
"301 632 CURVE SMOOTH",
"264 657 OFFCURVE",
"228 682 OFFCURVE",
"199 704 CURVE SMOOTH",
"190 711 OFFCURVE",
"189 723 OFFCURVE",
"195 732 CURVE SMOOTH",
"202 741 OFFCURVE",
"214 742 OFFCURVE"
);
}
);
width = 637;
},
{
layerId = "A309AC34-D742-49E2-8DE7-30304959F2B2";
name = Bold;
paths = (
{
closed = 1;
nodes = (
"168 515 CURVE SMOOTH",
"168 6 LINE SMOOTH",
"168 -18 OFFCURVE",
"143 -38 OFFCURVE",
"119 -38 CURVE SMOOTH",
"95 -38 OFFCURVE",
"70 -18 OFFCURVE",
"70 6 CURVE SMOOTH",
"70 515 LINE SMOOTH",
"70 539 OFFCURVE",
"95 559 OFFCURVE",
"119 559 CURVE SMOOTH",
"143 559 OFFCURVE",
"168 539 OFFCURVE"
);
},
{
closed = 1;
nodes = (
"577 515 CURVE SMOOTH",
"577 6 LINE SMOOTH",
"577 -18 OFFCURVE",
"552 -38 OFFCURVE",
"528 -38 CURVE SMOOTH",
"504 -38 OFFCURVE",
"479 -18 OFFCURVE",
"479 6 CURVE SMOOTH",
"479 515 LINE SMOOTH",
"479 539 OFFCURVE",
"504 559 OFFCURVE",
"528 559 CURVE SMOOTH",
"552 559 OFFCURVE",
"577 539 OFFCURVE"
);
},
{
closed = 1;
nodes = (
"161 542 CURVE SMOOTH",
"240 437 OFFCURVE",
"446 183 OFFCURVE",
"558 33 CURVE SMOOTH",
"572 14 OFFCURVE",
"566 -15 OFFCURVE",
"547 -29 CURVE SMOOTH",
"528 -43 OFFCURVE",
"499 -40 OFFCURVE",
"484 -21 CURVE SMOOTH",
"372 129 OFFCURVE",
"168 383 OFFCURVE",
"89 488 CURVE SMOOTH",
"74 507 OFFCURVE",
"80 536 OFFCURVE",
"99 550 CURVE SMOOTH",
"118 564 OFFCURVE",
"147 561 OFFCURVE"
);
},
{
closed = 1;
nodes = (
"298 684 CURVE SMOOTH",
"333 709 OFFCURVE",
"369 734 OFFCURVE",
"399 756 CURVE SMOOTH",
"418 770 OFFCURVE",
"446 765 OFFCURVE",
"460 746 CURVE SMOOTH",
"475 727 OFFCURVE",
"470 698 OFFCURVE",
"451 684 CURVE SMOOTH",
"421 662 OFFCURVE",
"385 637 OFFCURVE",
"350 612 CURVE SMOOTH",
"330 598 OFFCURVE",
"302 603 OFFCURVE",
"288 622 CURVE SMOOTH",
"274 642 OFFCURVE",
"279 670 OFFCURVE"
);
},
{
closed = 1;
nodes = (
"243 755 CURVE SMOOTH",
"271 734 OFFCURVE",
"307 709 OFFCURVE",
"342 684 CURVE SMOOTH",
"362 671 OFFCURVE",
"367 642 OFFCURVE",
"353 623 CURVE SMOOTH",
"340 603 OFFCURVE",
"311 598 OFFCURVE",
"292 612 CURVE SMOOTH",
"255 637 OFFCURVE",
"219 662 OFFCURVE",
"189 685 CURVE SMOOTH",
"170 699 OFFCURVE",
"167 728 OFFCURVE",
"181 747 CURVE SMOOTH",
"195 766 OFFCURVE",
"224 770 OFFCURVE"
);
}
);
width = 647;
}
);
unicode = 0147;
userData = {
com.typemytype.robofont.layerData = {
mask = {
anchors = (
);
components = (
);
contours = (
);
lib = {
};
name = Ncaron;
unicodes = (
);
width = 637;
};
wire = {
anchors = (
);
components = (
);
contours = (
);
lib = {
};
name = Ncaron;
unicodes = (
);
width = 637;
};
};
};
},
{
glyphname = Ntilde;
lastChange = "2016-03-19 06:03:29 +0000";
layers = (
{
layerId = "F2EBC5D5-DDE2-4851-B52F-F2293ECE9CC7";
name = Light;
paths = (
{
closed = 1;
nodes = (
"134 515 CURVE SMOOTH",
"134 6 LINE SMOOTH",
"134 -5 OFFCURVE",
"125 -14 OFFCURVE",
"114 -14 CURVE SMOOTH",
"103 -14 OFFCURVE",
"94 -5 OFFCURVE",
"94 6 CURVE SMOOTH",
"94 515 LINE SMOOTH",
"94 526 OFFCURVE",
"103 535 OFFCURVE",
"114 535 CURVE SMOOTH",
"125 535 OFFCURVE",
"134 526 OFFCURVE"
);
},
{
closed = 1;
nodes = (
"543 515 CURVE SMOOTH",
"543 6 LINE SMOOTH",
"543 -5 OFFCURVE",
"534 -14 OFFCURVE",
"523 -14 CURVE SMOOTH",
"512 -14 OFFCURVE",
"503 -5 OFFCURVE",
"503 6 CURVE SMOOTH",
"503 515 LINE SMOOTH",
"503 526 OFFCURVE",
"512 535 OFFCURVE",
"523 535 CURVE SMOOTH",
"534 535 OFFCURVE",
"543 526 OFFCURVE"
);
},
{
closed = 1;
nodes = (
"136 527 CURVE SMOOTH",
"215 422 OFFCURVE",
"420 168 OFFCURVE",
"532 18 CURVE SMOOTH",
"538 9 OFFCURVE",
"537 -4 OFFCURVE",
"528 -10 CURVE SMOOTH",
"519 -16 OFFCURVE",
"506 -15 OFFCURVE",
"500 -6 CURVE SMOOTH",
"388 144 OFFCURVE",
"183 398 OFFCURVE",
"104 503 CURVE SMOOTH",
"98 512 OFFCURVE",
"99 524 OFFCURVE",
"108 531 CURVE SMOOTH",
"117 537 OFFCURVE",
"129 536 OFFCURVE"
);
},
{
closed = 1;
nodes = (
"161 674 CURVE SMOOTH",
"190 712 OFFCURVE",
"219 732 OFFCURVE",
"249 732 CURVE SMOOTH",
"275 732 OFFCURVE",
"298 718 OFFCURVE",
"323 699 CURVE SMOOTH",
"340 687 OFFCURVE",
"354 676 OFFCURVE",
"371 676 CURVE SMOOTH",
"396 676 OFFCURVE",
"412 694 OFFCURVE",
"434 723 CURVE SMOOTH",
"440 732 OFFCURVE",
"453 733 OFFCURVE",
"462 727 CURVE SMOOTH",
"471 721 OFFCURVE",
"472 708 OFFCURVE",
"466 699 CURVE SMOOTH",
"434 656 OFFCURVE",
"406 636 OFFCURVE",
"371 636 CURVE SMOOTH",
"346 636 OFFCURVE",
"324 649 OFFCURVE",
"299 667 CURVE SMOOTH",
"282 680 OFFCURVE",
"267 692 OFFCURVE",
"249 692 CURVE SMOOTH",
"229 692 OFFCURVE",
"212 674 OFFCURVE",
"193 650 CURVE SMOOTH",
"186 641 OFFCURVE",
"173 640 OFFCURVE",
"165 646 CURVE SMOOTH",
"156 653 OFFCURVE",
"155 666 OFFCURVE"
);
}
);
width = 637;
},
{
layerId = "A309AC34-D742-49E2-8DE7-30304959F2B2";
name = Bold;
paths = (
{
closed = 1;
nodes = (
"168 515 CURVE SMOOTH",
"168 6 LINE SMOOTH",
"168 -18 OFFCURVE",
"143 -38 OFFCURVE",
"119 -38 CURVE SMOOTH",
"95 -38 OFFCURVE",
"70 -18 OFFCURVE",
"70 6 CURVE SMOOTH",
"70 515 LINE SMOOTH",
"70 539 OFFCURVE",
"95 559 OFFCURVE",
"119 559 CURVE SMOOTH",
"143 559 OFFCURVE",
"168 539 OFFCURVE"
);
},
{
closed = 1;
nodes = (
"577 515 CURVE SMOOTH",
"577 6 LINE SMOOTH",
"577 -18 OFFCURVE",
"552 -38 OFFCURVE",
"528 -38 CURVE SMOOTH",
"504 -38 OFFCURVE",
"479 -18 OFFCURVE",
"479 6 CURVE SMOOTH",
"479 515 LINE SMOOTH",
"479 539 OFFCURVE",
"504 559 OFFCURVE",
"528 559 CURVE SMOOTH",
"552 559 OFFCURVE",
"577 539 OFFCURVE"
);
},
{
closed = 1;
nodes = (
"161 542 CURVE SMOOTH",
"240 437 OFFCURVE",
"446 183 OFFCURVE",
"558 33 CURVE SMOOTH",
"572 14 OFFCURVE",
"566 -15 OFFCURVE",
"547 -29 CURVE SMOOTH",
"528 -43 OFFCURVE",
"499 -40 OFFCURVE",
"484 -21 CURVE SMOOTH",
"372 129 OFFCURVE",
"168 383 OFFCURVE",
"89 488 CURVE SMOOTH",
"74 507 OFFCURVE",
"80 536 OFFCURVE",
"99 550 CURVE SMOOTH",
"118 564 OFFCURVE",
"147 561 OFFCURVE"
);
},
{
closed = 1;
nodes = (
"146 690 CURVE SMOOTH",
"182 736 OFFCURVE",
"219 756 OFFCURVE",
"254 756 CURVE SMOOTH",
"285 756 OFFCURVE",
"313 741 OFFCURVE",
"343 718 CURVE SMOOTH",
"354 711 OFFCURVE",
"363 700 OFFCURVE",
"376 700 CURVE SMOOTH",
"394 700 OFFCURVE",
"404 719 OFFCURVE",
"418 738 CURVE SMOOTH",
"433 757 OFFCURVE",
"462 760 OFFCURVE",
"481 746 CURVE SMOOTH",
"500 732 OFFCURVE",
"506 703 OFFCURVE",
"492 684 CURVE SMOOTH",
"452 631 OFFCURVE",
"418 612 OFFCURVE",
"376 612 CURVE SMOOTH",
"347 612 OFFCURVE",
"320 625 OFFCURVE",
"289 648 CURVE SMOOTH",
"277 657 OFFCURVE",
"267 668 OFFCURVE",
"254 668 CURVE SMOOTH",
"239 668 OFFCURVE",
"230 650 OFFCURVE",
"218 634 CURVE SMOOTH",
"203 615 OFFCURVE",
"174 613 OFFCURVE",
"155 627 CURVE SMOOTH",
"136 642 OFFCURVE",
"131 671 OFFCURVE"
);
}
);
width = 647;
}
);
unicode = 00D1;
userData = {
com.typemytype.robofont.layerData = {
mask = {
anchors = (
);
components = (
);
contours = (
);
lib = {
};
name = Ntilde;
unicodes = (
);
width = 637;
};
wire = {
anchors = (
);
components = (
);
contours = (
);
lib = {
};
name = Ntilde;
unicodes = (
);
width = 637;
};
};
};
},
{
glyphname = O;
lastChange = "2016-03-19 06:03:29 +0000";
layers = (
{
layerId = "F2EBC5D5-DDE2-4851-B52F-F2293ECE9CC7";
name = Light;
paths = (
{
closed = 1;
nodes = (
"323 550 CURVE SMOOTH",
"469 550 OFFCURVE",
"587 433 OFFCURVE",
"587 265 CURVE SMOOTH",
"587 105 OFFCURVE",
"489 -19 OFFCURVE",
"323 -19 CURVE SMOOTH",
"166 -19 OFFCURVE",
"55 105 OFFCURVE",
"55 262 CURVE SMOOTH",
"55 433 OFFCURVE",
"164 550 OFFCURVE"
);
},
{
closed = 1;
nodes = (
"323 510 CURVE SMOOTH",
"186 510 OFFCURVE",
"95 407 OFFCURVE",
"95 262 CURVE SMOOTH",
"95 129 OFFCURVE",
"188 21 OFFCURVE",
"323 21 CURVE SMOOTH",
"465 21 OFFCURVE",
"547 129 OFFCURVE",
"547 265 CURVE SMOOTH",
"547 407 OFFCURVE",
"449 510 OFFCURVE"
);
}
);
width = 642;
},
{
layerId = "A309AC34-D742-49E2-8DE7-30304959F2B2";
name = Bold;
paths = (
{
closed = 1;
nodes = (
"328 574 CURVE SMOOTH",
"487 574 OFFCURVE",
"621 451 OFFCURVE",
"621 265 CURVE SMOOTH",
"621 87 OFFCURVE",
"508 -43 OFFCURVE",
"328 -43 CURVE SMOOTH",
"157 -43 OFFCURVE",
"31 88 OFFCURVE",
"31 262 CURVE",
"31 451 OFFCURVE",
"156 574 OFFCURVE"
);
},
{
closed = 1;
nodes = (
"328 486 CURVE SMOOTH",
"204 486 OFFCURVE",
"129 389 OFFCURVE",
"129 262 CURVE SMOOTH",
"129 146 OFFCURVE",
"207 45 OFFCURVE",
"328 45 CURVE SMOOTH",
"456 45 OFFCURVE",
"523 147 OFFCURVE",
"523 265 CURVE SMOOTH",
"523 389 OFFCURVE",
"441 486 OFFCURVE"
);
}
);
width = 652;
}
);
leftKerningGroup = O;
rightKerningGroup = O;
unicode = 004F;
userData = {
com.typemytype.robofont.layerData = {
mask = {
anchors = (
);
components = (
);
contours = (
);
lib = {
};
name = O;
unicodes = (
);
width = 642;
};
wire = {
anchors = (
);
components = (
);
contours = (
);
lib = {
};
name = O;
unicodes = (
);
width = 642;
};
};
};
},
{
glyphname = Oacute;
lastChange = "2016-03-19 06:03:29 +0000";
layers = (
{
layerId = "F2EBC5D5-DDE2-4851-B52F-F2293ECE9CC7";
name = Light;
paths = (
{
closed = 1;
nodes = (
"323 544 CURVE SMOOTH",
"469 544 OFFCURVE",
"587 428 OFFCURVE",
"587 260 CURVE SMOOTH",
"587 100 OFFCURVE",
"489 -24 OFFCURVE",
"323 -24 CURVE SMOOTH",
"166 -24 OFFCURVE",
"55 100 OFFCURVE",
"55 257 CURVE SMOOTH",
"55 428 OFFCURVE",
"164 544 OFFCURVE"
);
},
{
closed = 1;
nodes = (
"323 504 CURVE SMOOTH",
"186 504 OFFCURVE",
"95 402 OFFCURVE",
"95 257 CURVE SMOOTH",
"95 124 OFFCURVE",
"188 16 OFFCURVE",
"323 16 CURVE SMOOTH",
"465 16 OFFCURVE",
"547 124 OFFCURVE",
"547 260 CURVE SMOOTH",
"547 402 OFFCURVE",
"449 504 OFFCURVE"
);
},
{
closed = 1;
nodes = (
"451 726 CURVE SMOOTH",
"403 697 OFFCURVE",
"353 666 OFFCURVE",
"324 644 CURVE SMOOTH",
"315 637 OFFCURVE",
"302 639 OFFCURVE",
"296 648 CURVE SMOOTH",
"289 657 OFFCURVE",
"291 670 OFFCURVE",
"300 676 CURVE SMOOTH",
"331 698 OFFCURVE",
"381 731 OFFCURVE",
"431 760 CURVE SMOOTH",
"440 766 OFFCURVE",
"453 762 OFFCURVE",
"458 753 CURVE SMOOTH",
"464 744 OFFCURVE",
"460 731 OFFCURVE"
);
}
);
width = 642;
},
{
layerId = "A309AC34-D742-49E2-8DE7-30304959F2B2";
name = Bold;
paths = (
{
closed = 1;
nodes = (
"328 568 CURVE SMOOTH",
"487 568 OFFCURVE",
"621 446 OFFCURVE",
"621 260 CURVE SMOOTH",
"621 82 OFFCURVE",
"508 -48 OFFCURVE",
"328 -48 CURVE SMOOTH",
"157 -48 OFFCURVE",
"31 83 OFFCURVE",
"31 257 CURVE",
"31 446 OFFCURVE",
"156 568 OFFCURVE"
);
},
{
closed = 1;
nodes = (
"328 480 CURVE SMOOTH",
"204 480 OFFCURVE",
"129 384 OFFCURVE",
"129 257 CURVE SMOOTH",
"129 141 OFFCURVE",
"207 40 OFFCURVE",
"328 40 CURVE SMOOTH",
"456 40 OFFCURVE",
"523 142 OFFCURVE",
"523 260 CURVE SMOOTH",
"523 384 OFFCURVE",
"441 480 OFFCURVE"
);
},
{
closed = 1;
nodes = (
"468 705 CURVE SMOOTH",
"421 677 OFFCURVE",
"372 646 OFFCURVE",
"343 624 CURVE SMOOTH",
"324 610 OFFCURVE",
"296 615 OFFCURVE",
"282 634 CURVE SMOOTH",
"267 653 OFFCURVE",
"272 682 OFFCURVE",
"291 696 CURVE SMOOTH",
"322 718 OFFCURVE",
"373 751 OFFCURVE",
"424 781 CURVE SMOOTH",
"444 793 OFFCURVE",
"472 786 OFFCURVE",
"484 765 CURVE SMOOTH",
"496 745 OFFCURVE",
"489 717 OFFCURVE"
);
}
);
width = 652;
}
);
leftKerningGroup = O;
rightKerningGroup = O;
unicode = 00D3;
userData = {
com.typemytype.robofont.layerData = {
mask = {
anchors = (
);
components = (
);
contours = (
);
lib = {
};
name = Oacute;
unicodes = (
);
width = 642;
};
wire = {
anchors = (
);
components = (
);
contours = (
);
lib = {
};
name = Oacute;
unicodes = (
);
width = 642;
};
};
};
},
{
glyphname = Ocircumflex;
lastChange = "2016-03-19 06:03:29 +0000";
layers = (
{
layerId = "F2EBC5D5-DDE2-4851-B52F-F2293ECE9CC7";
name = Light;
paths = (
{
closed = 1;
nodes = (
"323 545 CURVE SMOOTH",
"469 545 OFFCURVE",
"587 428 OFFCURVE",
"587 260 CURVE SMOOTH",
"587 100 OFFCURVE",
"489 -23 OFFCURVE",
"323 -23 CURVE SMOOTH",
"166 -23 OFFCURVE",
"55 100 OFFCURVE",
"55 257 CURVE SMOOTH",
"55 428 OFFCURVE",
"164 545 OFFCURVE"
);
},
{
closed = 1;
nodes = (
"323 505 CURVE SMOOTH",
"186 505 OFFCURVE",
"95 402 OFFCURVE",
"95 257 CURVE SMOOTH",
"95 124 OFFCURVE",
"188 17 OFFCURVE",
"323 17 CURVE SMOOTH",
"465 17 OFFCURVE",
"547 124 OFFCURVE",
"547 260 CURVE SMOOTH",
"547 402 OFFCURVE",
"449 505 OFFCURVE"
);
},
{
closed = 1;
nodes = (
"329 714 CURVE SMOOTH",
"294 689 OFFCURVE",
"257 664 OFFCURVE",
"228 642 CURVE SMOOTH",
"219 636 OFFCURVE",
"207 637 OFFCURVE",
"200 646 CURVE SMOOTH",
"194 655 OFFCURVE",
"195 667 OFFCURVE",
"204 674 CURVE SMOOTH",
"233 696 OFFCURVE",
"270 721 OFFCURVE",
"305 746 CURVE SMOOTH",
"314 753 OFFCURVE",
"327 750 OFFCURVE",
"333 742 CURVE SMOOTH",
"340 733 OFFCURVE",
"337 720 OFFCURVE"
);
},
{
closed = 1;
nodes = (
"413 642 CURVE SMOOTH",
"384 664 OFFCURVE",
"348 689 OFFCURVE",
"313 714 CURVE SMOOTH",
"304 720 OFFCURVE",
"301 733 OFFCURVE",
"308 741 CURVE SMOOTH",
"314 750 OFFCURVE",
"327 753 OFFCURVE",
"335 746 CURVE SMOOTH",
"372 721 OFFCURVE",
"408 696 OFFCURVE",
"437 674 CURVE SMOOTH",
"446 667 OFFCURVE",
"447 655 OFFCURVE",
"441 646 CURVE SMOOTH",
"434 637 OFFCURVE",
"422 636 OFFCURVE"
);
}
);
width = 642;
},
{
layerId = "A309AC34-D742-49E2-8DE7-30304959F2B2";
name = Bold;
paths = (
{
closed = 1;
nodes = (
"328 569 CURVE SMOOTH",
"487 569 OFFCURVE",
"621 446 OFFCURVE",
"621 260 CURVE SMOOTH",
"621 82 OFFCURVE",
"508 -47 OFFCURVE",
"328 -47 CURVE SMOOTH",
"157 -47 OFFCURVE",
"31 83 OFFCURVE",
"31 257 CURVE",
"31 446 OFFCURVE",
"156 569 OFFCURVE"
);
},
{
closed = 1;
nodes = (
"328 481 CURVE SMOOTH",
"204 481 OFFCURVE",
"129 384 OFFCURVE",
"129 257 CURVE SMOOTH",
"129 141 OFFCURVE",
"207 41 OFFCURVE",
"328 41 CURVE SMOOTH",
"456 41 OFFCURVE",
"523 142 OFFCURVE",
"523 260 CURVE SMOOTH",
"523 384 OFFCURVE",
"441 481 OFFCURVE"
);
},
{
closed = 1;
nodes = (
"348 694 CURVE SMOOTH",
"313 669 OFFCURVE",
"277 644 OFFCURVE",
"248 623 CURVE SMOOTH",
"229 608 OFFCURVE",
"200 612 OFFCURVE",
"186 631 CURVE SMOOTH",
"172 650 OFFCURVE",
"175 679 OFFCURVE",
"194 693 CURVE SMOOTH",
"223 716 OFFCURVE",
"261 741 OFFCURVE",
"296 766 CURVE SMOOTH",
"316 780 OFFCURVE",
"344 775 OFFCURVE",
"358 756 CURVE SMOOTH",
"372 736 OFFCURVE",
"367 708 OFFCURVE"
);
},
{
closed = 1;
nodes = (
"403 623 CURVE SMOOTH",
"375 644 OFFCURVE",
"339 669 OFFCURVE",
"304 694 CURVE SMOOTH",
"284 707 OFFCURVE",
"279 736 OFFCURVE",
"293 755 CURVE SMOOTH",
"306 775 OFFCURVE",
"335 780 OFFCURVE",
"354 766 CURVE SMOOTH",
"391 741 OFFCURVE",
"427 716 OFFCURVE",
"457 693 CURVE SMOOTH",
"476 679 OFFCURVE",
"479 650 OFFCURVE",
"465 631 CURVE SMOOTH",
"451 612 OFFCURVE",
"422 608 OFFCURVE"
);
}
);
width = 652;
}
);
leftKerningGroup = O;
rightKerningGroup = O;
unicode = 00D4;
userData = {
com.typemytype.robofont.layerData = {
mask = {
anchors = (
);
components = (
);
contours = (
);
lib = {
};
name = Ocircumflex;
unicodes = (
);
width = 642;
};
wire = {
anchors = (
);
components = (
);
contours = (
);
lib = {
};
name = Ocircumflex;
unicodes = (
);
width = 642;
};
};
};
},
{
glyphname = Odieresis;
lastChange = "2016-03-19 06:03:29 +0000";
layers = (
{
layerId = "F2EBC5D5-DDE2-4851-B52F-F2293ECE9CC7";
name = Light;
paths = (
{
closed = 1;
nodes = (
"323 545 CURVE SMOOTH",
"469 545 OFFCURVE",
"587 429 OFFCURVE",
"587 260 CURVE SMOOTH",
"587 100 OFFCURVE",
"489 -23 OFFCURVE",
"323 -23 CURVE SMOOTH",
"166 -23 OFFCURVE",
"55 100 OFFCURVE",
"55 257 CURVE SMOOTH",
"55 429 OFFCURVE",
"164 545 OFFCURVE"
);
},
{
closed = 1;
nodes = (
"218 743 CURVE SMOOTH",
"237 743 OFFCURVE",
"255 726 OFFCURVE",
"255 696 CURVE SMOOTH",
"255 663 OFFCURVE",
"237 649 OFFCURVE",
"218 649 CURVE SMOOTH",
"199 649 OFFCURVE",
"179 665 OFFCURVE",
"179 696 CURVE SMOOTH",
"179 725 OFFCURVE",
"199 743 OFFCURVE"
);
},
{
closed = 1;
nodes = (
"421 743 CURVE SMOOTH",
"438 743 OFFCURVE",
"458 726 OFFCURVE",
"458 696 CURVE SMOOTH",
"458 663 OFFCURVE",
"438 649 OFFCURVE",
"421 649 CURVE SMOOTH",
"400 649 OFFCURVE",
"383 664 OFFCURVE",
"383 696 CURVE SMOOTH",
"383 726 OFFCURVE",
"400 743 OFFCURVE"
);
},
{
closed = 1;
nodes = (
"323 505 CURVE SMOOTH",
"186 505 OFFCURVE",
"95 403 OFFCURVE",
"95 257 CURVE SMOOTH",
"95 124 OFFCURVE",
"188 17 OFFCURVE",
"323 17 CURVE SMOOTH",
"465 17 OFFCURVE",
"547 124 OFFCURVE",
"547 260 CURVE SMOOTH",
"547 403 OFFCURVE",
"449 505 OFFCURVE"
);
}
);
width = 642;
},
{
layerId = "A309AC34-D742-49E2-8DE7-30304959F2B2";
name = Bold;
paths = (
{
closed = 1;
nodes = (
"328 569 CURVE SMOOTH",
"487 569 OFFCURVE",
"621 447 OFFCURVE",
"621 260 CURVE SMOOTH",
"621 82 OFFCURVE",
"508 -47 OFFCURVE",
"328 -47 CURVE SMOOTH",
"157 -47 OFFCURVE",
"31 83 OFFCURVE",
"31 257 CURVE",
"31 447 OFFCURVE",
"156 569 OFFCURVE"
);
},
{
closed = 1;
nodes = (
"223 767 CURVE SMOOTH",
"252 767 OFFCURVE",
"289 750 OFFCURVE",
"289 696 CURVE SMOOTH",
"289 638 OFFCURVE",
"252 625 OFFCURVE",
"223 625 CURVE SMOOTH",
"194 625 OFFCURVE",
"155 642 OFFCURVE",
"155 696 CURVE SMOOTH",
"155 746 OFFCURVE",
"194 767 OFFCURVE"
);
},
{
closed = 1;
nodes = (
"426 767 CURVE SMOOTH",
"452 767 OFFCURVE",
"492 750 OFFCURVE",
"492 696 CURVE SMOOTH",
"492 638 OFFCURVE",
"452 625 OFFCURVE",
"426 625 CURVE SMOOTH",
"394 625 OFFCURVE",
"359 640 OFFCURVE",
"359 696 CURVE SMOOTH",
"359 748 OFFCURVE",
"394 767 OFFCURVE"
);
},
{
closed = 1;
nodes = (
"328 481 CURVE SMOOTH",
"204 481 OFFCURVE",
"129 385 OFFCURVE",
"129 257 CURVE SMOOTH",
"129 141 OFFCURVE",
"207 41 OFFCURVE",
"328 41 CURVE SMOOTH",
"456 41 OFFCURVE",
"523 142 OFFCURVE",
"523 260 CURVE SMOOTH",
"523 385 OFFCURVE",
"441 481 OFFCURVE"
);
}
);
width = 652;
}
);
leftKerningGroup = O;
rightKerningGroup = O;
unicode = 00D6;
userData = {
com.typemytype.robofont.layerData = {
mask = {
anchors = (
);
components = (
);
contours = (
);
lib = {
};
name = Odieresis;
unicodes = (
);
width = 642;
};
wire = {
anchors = (
);
components = (
);
contours = (
);
lib = {
};
name = Odieresis;
unicodes = (
);
width = 642;
};
};
};
},
{
glyphname = Ograve;
lastChange = "2016-03-19 06:03:29 +0000";
layers = (
{
layerId = "F2EBC5D5-DDE2-4851-B52F-F2293ECE9CC7";
name = Light;
paths = (
{
closed = 1;
nodes = (
"323 544 CURVE SMOOTH",
"469 544 OFFCURVE",
"587 428 OFFCURVE",
"587 260 CURVE SMOOTH",
"587 100 OFFCURVE",
"489 -24 OFFCURVE",
"323 -24 CURVE SMOOTH",
"166 -24 OFFCURVE",
"55 100 OFFCURVE",
"55 257 CURVE SMOOTH",
"55 428 OFFCURVE",
"164 544 OFFCURVE"
);
},
{
closed = 1;
nodes = (
"323 504 CURVE SMOOTH",
"186 504 OFFCURVE",
"95 402 OFFCURVE",
"95 257 CURVE SMOOTH",
"95 124 OFFCURVE",
"188 16 OFFCURVE",
"323 16 CURVE SMOOTH",
"465 16 OFFCURVE",
"547 124 OFFCURVE",
"547 260 CURVE SMOOTH",
"547 402 OFFCURVE",
"449 504 OFFCURVE"
);
},
{
closed = 1;
nodes = (
"208 762 CURVE SMOOTH",
"246 740 OFFCURVE",
"304 697 OFFCURVE",
"332 675 CURVE SMOOTH",
"341 668 OFFCURVE",
"342 655 OFFCURVE",
"336 647 CURVE SMOOTH",
"329 638 OFFCURVE",
"316 637 OFFCURVE",
"308 643 CURVE SMOOTH",
"280 665 OFFCURVE",
"226 706 OFFCURVE",
"188 726 CURVE SMOOTH",
"179 732 OFFCURVE",
"175 744 OFFCURVE",
"180 754 CURVE SMOOTH",
"186 763 OFFCURVE",
"198 767 OFFCURVE"
);
}
);
width = 642;
},
{
layerId = "A309AC34-D742-49E2-8DE7-30304959F2B2";
name = Bold;
paths = (
{
closed = 1;
nodes = (
"328 568 CURVE SMOOTH",
"487 568 OFFCURVE",
"621 446 OFFCURVE",
"621 260 CURVE SMOOTH",
"621 82 OFFCURVE",
"508 -48 OFFCURVE",
"328 -48 CURVE SMOOTH",
"157 -48 OFFCURVE",
"31 83 OFFCURVE",
"31 257 CURVE",
"31 446 OFFCURVE",
"156 568 OFFCURVE"
);
},
{
closed = 1;
nodes = (
"328 480 CURVE SMOOTH",
"204 480 OFFCURVE",
"129 384 OFFCURVE",
"129 257 CURVE SMOOTH",
"129 141 OFFCURVE",
"207 40 OFFCURVE",
"328 40 CURVE SMOOTH",
"456 40 OFFCURVE",
"523 142 OFFCURVE",
"523 260 CURVE SMOOTH",
"523 384 OFFCURVE",
"441 480 OFFCURVE"
);
},
{
closed = 1;
nodes = (
"224 783 CURVE SMOOTH",
"264 761 OFFCURVE",
"323 717 OFFCURVE",
"352 694 CURVE SMOOTH",
"371 679 OFFCURVE",
"374 650 OFFCURVE",
"360 632 CURVE SMOOTH",
"345 613 OFFCURVE",
"316 609 OFFCURVE",
"298 624 CURVE SMOOTH",
"271 645 OFFCURVE",
"218 685 OFFCURVE",
"182 705 CURVE SMOOTH",
"161 717 OFFCURVE",
"153 744 OFFCURVE",
"164 765 CURVE SMOOTH",
"176 786 OFFCURVE",
"204 794 OFFCURVE"
);
}
);
width = 652;
}
);
leftKerningGroup = O;
rightKerningGroup = O;
unicode = 00D2;
userData = {
com.typemytype.robofont.layerData = {
mask = {
anchors = (
);
components = (
);
contours = (
);
lib = {
};
name = Ograve;
unicodes = (
);
width = 642;
};
wire = {
anchors = (
);
components = (
);
contours = (
);
lib = {
};
name = Ograve;
unicodes = (
);
width = 642;
};
};
};
},
{
glyphname = Ohungarumlaut;
lastChange = "2016-03-19 06:03:29 +0000";
layers = (
{
layerId = "F2EBC5D5-DDE2-4851-B52F-F2293ECE9CC7";
name = Light;
paths = (
{
closed = 1;
nodes = (
"323 544 CURVE SMOOTH",
"469 544 OFFCURVE",
"587 428 OFFCURVE",
"587 259 CURVE SMOOTH",
"587 99 OFFCURVE",
"489 -24 OFFCURVE",
"323 -24 CURVE SMOOTH",
"166 -24 OFFCURVE",
"55 99 OFFCURVE",
"55 256 CURVE SMOOTH",
"55 428 OFFCURVE",
"164 544 OFFCURVE"
);
},
{
closed = 1;
nodes = (
"323 504 CURVE SMOOTH",
"186 504 OFFCURVE",
"95 402 OFFCURVE",
"95 256 CURVE SMOOTH",
"95 123 OFFCURVE",
"188 16 OFFCURVE",
"323 16 CURVE SMOOTH",
"465 16 OFFCURVE",
"547 123 OFFCURVE",
"547 259 CURVE SMOOTH",
"547 402 OFFCURVE",
"449 504 OFFCURVE"
);
},
{
closed = 1;
nodes = (
"275 746 CURVE SMOOTH",
"253 711 OFFCURVE",
"237 681 OFFCURVE",
"226 650 CURVE SMOOTH",
"222 640 OFFCURVE",
"210 634 OFFCURVE",
"200 638 CURVE SMOOTH",
"190 642 OFFCURVE",
"184 654 OFFCURVE",
"188 664 CURVE SMOOTH",
"201 697 OFFCURVE",
"217 729 OFFCURVE",
"241 768 CURVE SMOOTH",
"247 777 OFFCURVE",
"259 780 OFFCURVE",
"269 774 CURVE SMOOTH",
"278 768 OFFCURVE",
"281 756 OFFCURVE"
);
},
{
closed = 1;
nodes = (
"490 746 CURVE SMOOTH",
"468 711 OFFCURVE",
"452 681 OFFCURVE",
"441 650 CURVE SMOOTH",
"437 640 OFFCURVE",
"425 634 OFFCURVE",
"415 638 CURVE SMOOTH",
"405 642 OFFCURVE",
"399 654 OFFCURVE",
"403 664 CURVE SMOOTH",
"416 697 OFFCURVE",
"432 729 OFFCURVE",
"456 768 CURVE SMOOTH",
"462 777 OFFCURVE",
"474 780 OFFCURVE",
"484 774 CURVE SMOOTH",
"493 768 OFFCURVE",
"496 756 OFFCURVE"
);
}
);
width = 642;
},
{
layerId = "A309AC34-D742-49E2-8DE7-30304959F2B2";
name = Bold;
paths = (
{
closed = 1;
nodes = (
"328 568 CURVE SMOOTH",
"487 568 OFFCURVE",
"621 446 OFFCURVE",
"621 259 CURVE SMOOTH",
"621 81 OFFCURVE",
"508 -48 OFFCURVE",
"328 -48 CURVE SMOOTH",
"157 -48 OFFCURVE",
"31 82 OFFCURVE",
"31 256 CURVE",
"31 446 OFFCURVE",
"156 568 OFFCURVE"
);
},
{
closed = 1;
nodes = (
"328 480 CURVE SMOOTH",
"204 480 OFFCURVE",
"129 384 OFFCURVE",
"129 256 CURVE SMOOTH",
"129 140 OFFCURVE",
"207 40 OFFCURVE",
"328 40 CURVE SMOOTH",
"456 40 OFFCURVE",
"523 141 OFFCURVE",
"523 259 CURVE SMOOTH",
"523 384 OFFCURVE",
"441 480 OFFCURVE"
);
},
{
closed = 1;
nodes = (
"302 733 CURVE SMOOTH",
"281 699 OFFCURVE",
"268 670 OFFCURVE",
"257 640 CURVE SMOOTH",
"248 618 OFFCURVE",
"219 607 OFFCURVE",
"197 616 CURVE SMOOTH",
"174 624 OFFCURVE",
"159 651 OFFCURVE",
"167 674 CURVE SMOOTH",
"180 708 OFFCURVE",
"199 741 OFFCURVE",
"224 781 CURVE SMOOTH",
"236 802 OFFCURVE",
"266 807 OFFCURVE",
"286 794 CURVE SMOOTH",
"306 782 OFFCURVE",
"315 753 OFFCURVE"
);
},
{
closed = 1;
nodes = (
"517 733 CURVE SMOOTH",
"496 699 OFFCURVE",
"483 670 OFFCURVE",
"472 640 CURVE SMOOTH",
"463 618 OFFCURVE",
"434 607 OFFCURVE",
"412 616 CURVE SMOOTH",
"389 624 OFFCURVE",
"374 651 OFFCURVE",
"382 674 CURVE SMOOTH",
"395 708 OFFCURVE",
"414 741 OFFCURVE",
"439 781 CURVE SMOOTH",
"451 802 OFFCURVE",
"481 807 OFFCURVE",
"501 794 CURVE SMOOTH",
"521 782 OFFCURVE",
"530 753 OFFCURVE"
);
}
);
width = 652;
}
);
leftKerningGroup = O;
rightKerningGroup = O;
unicode = 0150;
userData = {
com.typemytype.robofont.layerData = {
mask = {
anchors = (
);
components = (
);
contours = (
);
lib = {
};
name = Ohungarumlaut;
unicodes = (
);
width = 642;
};
wire = {
anchors = (
);
components = (
);
contours = (
);
lib = {
};
name = Ohungarumlaut;
unicodes = (
);
width = 642;
};
};
};
},
{
glyphname = Omacron;
lastChange = "2016-03-19 06:03:29 +0000";
layers = (
{
layerId = "F2EBC5D5-DDE2-4851-B52F-F2293ECE9CC7";
name = Light;
paths = (
{
closed = 1;
nodes = (
"323 545 CURVE SMOOTH",
"469 545 OFFCURVE",
"587 429 OFFCURVE",
"587 261 CURVE SMOOTH",
"587 101 OFFCURVE",
"489 -23 OFFCURVE",
"323 -23 CURVE SMOOTH",
"166 -23 OFFCURVE",
"55 101 OFFCURVE",
"55 258 CURVE SMOOTH",
"55 429 OFFCURVE",
"164 545 OFFCURVE"
);
},
{
closed = 1;
nodes = (
"323 505 CURVE SMOOTH",
"186 505 OFFCURVE",
"95 403 OFFCURVE",
"95 258 CURVE SMOOTH",
"95 125 OFFCURVE",
"188 17 OFFCURVE",
"323 17 CURVE SMOOTH",
"465 17 OFFCURVE",
"547 125 OFFCURVE",
"547 261 CURVE SMOOTH",
"547 403 OFFCURVE",
"449 505 OFFCURVE"
);
},
{
closed = 1;
nodes = (
"458 681 CURVE SMOOTH",
"165 681 LINE SMOOTH",
"154 681 OFFCURVE",
"145 690 OFFCURVE",
"145 701 CURVE SMOOTH",
"145 712 OFFCURVE",
"154 721 OFFCURVE",
"165 721 CURVE SMOOTH",
"458 721 LINE SMOOTH",
"469 721 OFFCURVE",
"478 712 OFFCURVE",
"478 701 CURVE SMOOTH",
"478 690 OFFCURVE",
"469 681 OFFCURVE"
);
}
);
width = 642;
},
{
layerId = "A309AC34-D742-49E2-8DE7-30304959F2B2";
name = Bold;
paths = (
{
closed = 1;
nodes = (
"328 569 CURVE SMOOTH",
"487 569 OFFCURVE",
"621 447 OFFCURVE",
"621 261 CURVE SMOOTH",
"621 83 OFFCURVE",
"508 -47 OFFCURVE",
"328 -47 CURVE SMOOTH",
"157 -47 OFFCURVE",
"31 84 OFFCURVE",
"31 258 CURVE",
"31 447 OFFCURVE",
"156 569 OFFCURVE"
);
},
{
closed = 1;
nodes = (
"328 481 CURVE SMOOTH",
"204 481 OFFCURVE",
"129 385 OFFCURVE",
"129 258 CURVE SMOOTH",
"129 142 OFFCURVE",
"207 41 OFFCURVE",
"328 41 CURVE SMOOTH",
"456 41 OFFCURVE",
"523 143 OFFCURVE",
"523 261 CURVE SMOOTH",
"523 385 OFFCURVE",
"441 481 OFFCURVE"
);
},
{
closed = 1;
nodes = (
"463 657 CURVE SMOOTH",
"170 657 LINE SMOOTH",
"146 657 OFFCURVE",
"126 677 OFFCURVE",
"126 701 CURVE SMOOTH",
"126 725 OFFCURVE",
"146 745 OFFCURVE",
"170 745 CURVE SMOOTH",
"463 745 LINE SMOOTH",
"487 745 OFFCURVE",
"507 725 OFFCURVE",
"507 701 CURVE SMOOTH",
"507 677 OFFCURVE",
"487 657 OFFCURVE"
);
}
);
width = 652;
}
);
leftKerningGroup = O;
rightKerningGroup = O;
unicode = 014C;
userData = {
com.typemytype.robofont.layerData = {
mask = {
anchors = (
);
components = (
);
contours = (
);
lib = {
};
name = Omacron;
unicodes = (
);
width = 642;
};
wire = {
anchors = (
);
components = (
);
contours = (
);
lib = {
};
name = Omacron;
unicodes = (
);
width = 642;
};
};
};
},
{
glyphname = Oslash;
lastChange = "2016-03-19 06:03:29 +0000";
layers = (
{
layerId = "F2EBC5D5-DDE2-4851-B52F-F2293ECE9CC7";
name = Light;
paths = (
{
closed = 1;
nodes = (
"323 550 CURVE SMOOTH",
"469 550 OFFCURVE",
"587 434 OFFCURVE",
"587 265 CURVE SMOOTH",
"587 105 OFFCURVE",
"489 -18 OFFCURVE",
"323 -18 CURVE SMOOTH",
"166 -18 OFFCURVE",
"55 105 OFFCURVE",
"55 262 CURVE SMOOTH",
"55 434 OFFCURVE",
"164 550 OFFCURVE"
);
},
{
closed = 1;
nodes = (
"552 507 CURVE SMOOTH",
"122 -22 LINE SMOOTH",
"115 -30 OFFCURVE",
"102 -31 OFFCURVE",
"93 -25 CURVE SMOOTH",
"85 -18 OFFCURVE",
"84 -5 OFFCURVE",
"90 4 CURVE SMOOTH",
"520 533 LINE SMOOTH",
"527 541 OFFCURVE",
"540 542 OFFCURVE",
"549 536 CURVE SMOOTH",
"557 529 OFFCURVE",
"558 516 OFFCURVE"
);
},
{
closed = 1;
nodes = (
"323 510 CURVE SMOOTH",
"186 510 OFFCURVE",
"95 408 OFFCURVE",
"95 262 CURVE SMOOTH",
"95 129 OFFCURVE",
"188 22 OFFCURVE",
"323 22 CURVE SMOOTH",
"465 22 OFFCURVE",
"547 129 OFFCURVE",
"547 265 CURVE SMOOTH",
"547 408 OFFCURVE",
"449 510 OFFCURVE"
);
}
);
width = 642;
},
{
layerId = "A309AC34-D742-49E2-8DE7-30304959F2B2";
name = Bold;
paths = (
{
closed = 1;
nodes = (
"328 574 CURVE SMOOTH",
"487 574 OFFCURVE",
"621 452 OFFCURVE",
"621 265 CURVE SMOOTH",
"621 87 OFFCURVE",
"508 -42 OFFCURVE",
"328 -42 CURVE SMOOTH",
"157 -42 OFFCURVE",
"31 88 OFFCURVE",
"31 262 CURVE",
"31 452 OFFCURVE",
"156 574 OFFCURVE"
);
},
{
closed = 1;
nodes = (
"576 491 CURVE SMOOTH",
"146 -38 LINE SMOOTH",
"131 -56 OFFCURVE",
"102 -58 OFFCURVE",
"83 -43 CURVE SMOOTH",
"65 -28 OFFCURVE",
"61 1 OFFCURVE",
"76 20 CURVE SMOOTH",
"506 549 LINE SMOOTH",
"521 567 OFFCURVE",
"550 569 OFFCURVE",
"569 554 CURVE SMOOTH",
"587 539 OFFCURVE",
"591 510 OFFCURVE"
);
},
{
closed = 1;
nodes = (
"328 486 CURVE SMOOTH",
"204 486 OFFCURVE",
"129 390 OFFCURVE",
"129 262 CURVE SMOOTH",
"129 146 OFFCURVE",
"207 46 OFFCURVE",
"328 46 CURVE SMOOTH",
"456 46 OFFCURVE",
"523 147 OFFCURVE",
"523 265 CURVE SMOOTH",
"523 390 OFFCURVE",
"441 486 OFFCURVE"
);
}
);
width = 652;
}
);
leftKerningGroup = O;
rightKerningGroup = O;
unicode = 00D8;
userData = {
com.typemytype.robofont.layerData = {
mask = {
anchors = (
);
components = (
);
contours = (
);
lib = {
};
name = Oslash;
unicodes = (
);
width = 642;
};
wire = {
anchors = (
);
components = (
);
contours = (
);
lib = {
};
name = Oslash;
unicodes = (
);
width = 642;
};
};
};
},
{
glyphname = Otilde;
lastChange = "2016-03-19 06:03:29 +0000";
layers = (
{
layerId = "F2EBC5D5-DDE2-4851-B52F-F2293ECE9CC7";
name = Light;
paths = (
{
closed = 1;
nodes = (
"323 545 CURVE SMOOTH",
"469 545 OFFCURVE",
"587 429 OFFCURVE",
"587 260 CURVE SMOOTH",
"587 100 OFFCURVE",
"489 -23 OFFCURVE",
"323 -23 CURVE SMOOTH",
"166 -23 OFFCURVE",
"55 100 OFFCURVE",
"55 257 CURVE SMOOTH",
"55 429 OFFCURVE",
"164 545 OFFCURVE"
);
},
{
closed = 1;
nodes = (
"323 505 CURVE SMOOTH",
"186 505 OFFCURVE",
"95 403 OFFCURVE",
"95 257 CURVE SMOOTH",
"95 124 OFFCURVE",
"188 17 OFFCURVE",
"323 17 CURVE SMOOTH",
"465 17 OFFCURVE",
"547 124 OFFCURVE",
"547 260 CURVE SMOOTH",
"547 403 OFFCURVE",
"449 505 OFFCURVE"
);
},
{
closed = 1;
nodes = (
"174 685 CURVE SMOOTH",
"204 722 OFFCURVE",
"232 742 OFFCURVE",
"261 742 CURVE SMOOTH",
"287 742 OFFCURVE",
"310 729 OFFCURVE",
"335 710 CURVE SMOOTH",
"352 697 OFFCURVE",
"367 687 OFFCURVE",
"384 687 CURVE SMOOTH",
"408 687 OFFCURVE",
"425 705 OFFCURVE",
"447 733 CURVE SMOOTH",
"454 742 OFFCURVE",
"467 743 OFFCURVE",
"475 737 CURVE SMOOTH",
"484 730 OFFCURVE",
"485 717 OFFCURVE",
"479 709 CURVE SMOOTH",
"445 667 OFFCURVE",
"418 647 OFFCURVE",
"384 647 CURVE SMOOTH",
"359 647 OFFCURVE",
"336 659 OFFCURVE",
"311 678 CURVE SMOOTH",
"294 691 OFFCURVE",
"279 702 OFFCURVE",
"261 702 CURVE SMOOTH",
"242 702 OFFCURVE",
"224 684 OFFCURVE",
"206 661 CURVE SMOOTH",
"199 652 OFFCURVE",
"186 651 OFFCURVE",
"178 657 CURVE SMOOTH",
"169 664 OFFCURVE",
"168 677 OFFCURVE"
);
}
);
width = 642;
},
{
layerId = "A309AC34-D742-49E2-8DE7-30304959F2B2";
name = Bold;
paths = (
{
closed = 1;
nodes = (
"328 569 CURVE SMOOTH",
"487 569 OFFCURVE",
"621 447 OFFCURVE",
"621 260 CURVE SMOOTH",
"621 82 OFFCURVE",
"508 -47 OFFCURVE",
"328 -47 CURVE SMOOTH",
"157 -47 OFFCURVE",
"31 83 OFFCURVE",
"31 257 CURVE",
"31 447 OFFCURVE",
"156 569 OFFCURVE"
);
},
{
closed = 1;
nodes = (
"328 481 CURVE SMOOTH",
"204 481 OFFCURVE",
"129 385 OFFCURVE",
"129 257 CURVE SMOOTH",
"129 141 OFFCURVE",
"207 41 OFFCURVE",
"328 41 CURVE SMOOTH",
"456 41 OFFCURVE",
"523 142 OFFCURVE",
"523 260 CURVE SMOOTH",
"523 385 OFFCURVE",
"441 481 OFFCURVE"
);
},
{
closed = 1;
nodes = (
"160 701 CURVE SMOOTH",
"196 746 OFFCURVE",
"232 766 OFFCURVE",
"266 766 CURVE SMOOTH",
"297 766 OFFCURVE",
"325 752 OFFCURVE",
"355 729 CURVE SMOOTH",
"367 720 OFFCURVE",
"377 711 OFFCURVE",
"389 711 CURVE SMOOTH",
"407 711 OFFCURVE",
"417 730 OFFCURVE",
"433 749 CURVE SMOOTH",
"447 768 OFFCURVE",
"477 770 OFFCURVE",
"495 755 CURVE SMOOTH",
"514 741 OFFCURVE",
"518 711 OFFCURVE",
"503 693 CURVE SMOOTH",
"463 642 OFFCURVE",
"429 623 OFFCURVE",
"389 623 CURVE SMOOTH",
"359 623 OFFCURVE",
"331 636 OFFCURVE",
"301 659 CURVE SMOOTH",
"289 668 OFFCURVE",
"279 678 OFFCURVE",
"266 678 CURVE SMOOTH",
"252 678 OFFCURVE",
"242 660 OFFCURVE",
"230 645 CURVE SMOOTH",
"216 626 OFFCURVE",
"186 624 OFFCURVE",
"168 639 CURVE SMOOTH",
"149 653 OFFCURVE",
"145 683 OFFCURVE"
);
}
);
width = 652;
}
);
leftKerningGroup = O;
rightKerningGroup = O;
unicode = 00D5;
userData = {
com.typemytype.robofont.layerData = {
mask = {
anchors = (
);
components = (
);
contours = (
);
lib = {
};
name = Otilde;
unicodes = (
);
width = 642;
};
wire = {
anchors = (
);
components = (
);
contours = (
);
lib = {
};
name = Otilde;
unicodes = (
);
width = 642;
};
};
};
},
